<?xml version="1.0" encoding="utf-8" standalone="no"?>
<!DOCTYPE svg PUBLIC "-//W3C//DTD SVG 1.1//EN"
  "http://www.w3.org/Graphics/SVG/1.1/DTD/svg11.dtd">
<svg xmlns:xlink="http://www.w3.org/1999/xlink" width="233.007874pt" height="102.047244pt" viewBox="0 0 233.007874 102.047244" xmlns="http://www.w3.org/2000/svg" version="1.1">
 <metadata>
  <rdf:RDF xmlns:dc="http://purl.org/dc/elements/1.1/" xmlns:cc="http://creativecommons.org/ns#" xmlns:rdf="http://www.w3.org/1999/02/22-rdf-syntax-ns#">
   <cc:Work>
    <dc:type rdf:resource="http://purl.org/dc/dcmitype/StillImage"/>
    <dc:date>2022-03-04T10:58:35.312604</dc:date>
    <dc:format>image/svg+xml</dc:format>
    <dc:creator>
     <cc:Agent>
      <dc:title>Matplotlib v3.5.1, https://matplotlib.org/</dc:title>
     </cc:Agent>
    </dc:creator>
   </cc:Work>
  </rdf:RDF>
 </metadata>
 <defs>
  <style type="text/css">*{stroke-linejoin: round; stroke-linecap: butt}</style>
 </defs>
 <g id="figure_1">
  <g id="patch_1">
   <path d="M 0 102.047244 
L 233.007874 102.047244 
L 233.007874 0 
L 0 0 
z
" style="fill: #ffffff"/>
  </g>
  <g id="axes_1">
   <g id="patch_2">
    <path d="M 57.259843 96.377953 
L 227.338583 96.377953 
L 227.338583 5.669291 
L 57.259843 5.669291 
L 57.259843 96.377953 
z
" clip-path="url(#pb82ba08012)" style="fill: none; stroke: #000000; stroke-linejoin: miter"/>
   </g>
   <g id="patch_3">
    <path d="M 66.897638 73.700787 
L 180.283465 73.700787 
L 180.283465 17.007874 
L 66.897638 17.007874 
L 66.897638 73.700787 
z
" clip-path="url(#pb82ba08012)" style="fill: none; stroke: #000000; stroke-linejoin: miter"/>
   </g>
   <g id="patch_4">
    <path d="M 81.070866 39.685039 
L 73.984252 41.102362 
L 73.984252 39.685039 
L 34.015748 39.685039 
L 34.015748 39.685039 
L 73.984252 39.685039 
L 73.984252 38.267717 
z
" clip-path="url(#pb82ba08012)" style="stroke: #000000; stroke-linejoin: miter"/>
   </g>
   <g id="patch_5">
    <path d="M 137.76378 39.685039 
L 130.677165 41.102362 
L 130.677165 39.685039 
L 109.417323 39.685039 
L 109.417323 39.685039 
L 130.677165 39.685039 
L 130.677165 38.267717 
z
" clip-path="url(#pb82ba08012)" style="stroke: #000000; stroke-linejoin: miter"/>
   </g>
   <g id="patch_6">
    <path d="M 166.110236 39.685039 
L 173.19685 38.267717 
L 173.19685 39.685039 
L 194.456693 39.685039 
L 194.456693 39.685039 
L 173.19685 39.685039 
L 173.19685 41.102362 
z
" clip-path="url(#pb82ba08012)" style="stroke: #000000; stroke-linejoin: miter"/>
   </g>
   <g id="patch_7">
    <path d="M 19.84252 53.858268 
C 23.601304 53.858268 27.206644 52.364887 29.864506 49.707025 
C 32.522367 47.049164 34.015748 43.443823 34.015748 39.685039 
C 34.015748 35.926255 32.522367 32.320915 29.864506 29.663053 
C 27.206644 27.005192 23.601304 25.511811 19.84252 25.511811 
C 16.083736 25.511811 12.478396 27.005192 9.820534 29.663053 
C 7.162672 32.320915 5.669291 35.926255 5.669291 39.685039 
C 5.669291 43.443823 7.162672 47.049164 9.820534 49.707025 
C 12.478396 52.364887 16.083736 53.858268 19.84252 53.858268 
z
" clip-path="url(#pb82ba08012)" style="fill: #b2b2b2; stroke: #000000; stroke-linejoin: miter"/>
   </g>
   <g id="patch_8">
    <path d="M 19.84252 53.858268 
C 23.601304 53.858268 27.206644 52.364887 29.864506 49.707025 
C 32.522367 47.049164 34.015748 43.443823 34.015748 39.685039 
C 34.015748 35.926255 32.522367 32.320915 29.864506 29.663053 
C 27.206644 27.005192 23.601304 25.511811 19.84252 25.511811 
C 16.083736 25.511811 12.478396 27.005192 9.820534 29.663053 
C 7.162672 32.320915 5.669291 35.926255 5.669291 39.685039 
C 5.669291 43.443823 7.162672 47.049164 9.820534 49.707025 
C 12.478396 52.364887 16.083736 53.858268 19.84252 53.858268 
L 19.84252 53.858268 
z
" clip-path="url(#pb82ba08012)" style="fill: none; stroke: #000000; stroke-linejoin: miter"/>
   </g>
   <g id="patch_9">
    <path d="M 95.244094 53.858268 
C 99.002879 53.858268 102.608219 52.364887 105.26608 49.707025 
C 107.923942 47.049164 109.417323 43.443823 109.417323 39.685039 
C 109.417323 35.926255 107.923942 32.320915 105.26608 29.663053 
C 102.608219 27.005192 99.002879 25.511811 95.244094 25.511811 
C 91.48531 25.511811 87.87997 27.005192 85.222109 29.663053 
C 82.564247 32.320915 81.070866 35.926255 81.070866 39.685039 
C 81.070866 43.443823 82.564247 47.049164 85.222109 49.707025 
C 87.87997 52.364887 91.48531 53.858268 95.244094 53.858268 
L 95.244094 53.858268 
z
" clip-path="url(#pb82ba08012)" style="fill: none; stroke: #000000; stroke-linejoin: miter"/>
   </g>
   <g id="patch_10">
    <path d="M 151.937008 53.858268 
C 155.695792 53.858268 159.301132 52.364887 161.958994 49.707025 
C 164.616855 47.049164 166.110236 43.443823 166.110236 39.685039 
C 166.110236 35.926255 164.616855 32.320915 161.958994 29.663053 
C 159.301132 27.005192 155.695792 25.511811 151.937008 25.511811 
C 148.178224 25.511811 144.572884 27.005192 141.915022 29.663053 
C 139.25716 32.320915 137.76378 35.926255 137.76378 39.685039 
C 137.76378 43.443823 139.25716 47.049164 141.915022 49.707025 
C 144.572884 52.364887 148.178224 53.858268 151.937008 53.858268 
z
" clip-path="url(#pb82ba08012)" style="fill: #b2b2b2; stroke: #000000; stroke-linejoin: miter"/>
   </g>
   <g id="patch_11">
    <path d="M 151.937008 53.858268 
C 155.695792 53.858268 159.301132 52.364887 161.958994 49.707025 
C 164.616855 47.049164 166.110236 43.443823 166.110236 39.685039 
C 166.110236 35.926255 164.616855 32.320915 161.958994 29.663053 
C 159.301132 27.005192 155.695792 25.511811 151.937008 25.511811 
C 148.178224 25.511811 144.572884 27.005192 141.915022 29.663053 
C 139.25716 32.320915 137.76378 35.926255 137.76378 39.685039 
C 137.76378 43.443823 139.25716 47.049164 141.915022 49.707025 
C 144.572884 52.364887 148.178224 53.858268 151.937008 53.858268 
L 151.937008 53.858268 
z
" clip-path="url(#pb82ba08012)" style="fill: none; stroke: #000000; stroke-linejoin: miter"/>
   </g>
   <g id="patch_12">
    <path d="M 208.629921 53.858268 
C 212.388705 53.858268 215.994045 52.364887 218.651907 49.707025 
C 221.309769 47.049164 222.80315 43.443823 222.80315 39.685039 
C 222.80315 35.926255 221.309769 32.320915 218.651907 29.663053 
C 215.994045 27.005192 212.388705 25.511811 208.629921 25.511811 
C 204.871137 25.511811 201.265797 27.005192 198.607935 29.663053 
C 195.950074 32.320915 194.456693 35.926255 194.456693 39.685039 
C 194.456693 43.443823 195.950074 47.049164 198.607935 49.707025 
C 201.265797 52.364887 204.871137 53.858268 208.629921 53.858268 
L 208.629921 53.858268 
z
" clip-path="url(#pb82ba08012)" style="fill: none; stroke: #000000; stroke-linejoin: miter"/>
   </g>
   <g id="matplotlib.axis_1"/>
   <g id="matplotlib.axis_2"/>
   <g id="text_1">
    <!-- Miller index $h$ -->
    <g transform="translate(154.838583 89.298265)scale(0.1 -0.1)">
     <defs>
      <path id="DejaVuSans-4d" d="M 628 4666 
L 1569 4666 
L 2759 1491 
L 3956 4666 
L 4897 4666 
L 4897 0 
L 4281 0 
L 4281 4097 
L 3078 897 
L 2444 897 
L 1241 4097 
L 1241 0 
L 628 0 
L 628 4666 
z
" transform="scale(0.015625)"/>
      <path id="DejaVuSans-69" d="M 603 3500 
L 1178 3500 
L 1178 0 
L 603 0 
L 603 3500 
z
M 603 4863 
L 1178 4863 
L 1178 4134 
L 603 4134 
L 603 4863 
z
" transform="scale(0.015625)"/>
      <path id="DejaVuSans-6c" d="M 603 4863 
L 1178 4863 
L 1178 0 
L 603 0 
L 603 4863 
z
" transform="scale(0.015625)"/>
      <path id="DejaVuSans-65" d="M 3597 1894 
L 3597 1613 
L 953 1613 
Q 991 1019 1311 708 
Q 1631 397 2203 397 
Q 2534 397 2845 478 
Q 3156 559 3463 722 
L 3463 178 
Q 3153 47 2828 -22 
Q 2503 -91 2169 -91 
Q 1331 -91 842 396 
Q 353 884 353 1716 
Q 353 2575 817 3079 
Q 1281 3584 2069 3584 
Q 2775 3584 3186 3129 
Q 3597 2675 3597 1894 
z
M 3022 2063 
Q 3016 2534 2758 2815 
Q 2500 3097 2075 3097 
Q 1594 3097 1305 2825 
Q 1016 2553 972 2059 
L 3022 2063 
z
" transform="scale(0.015625)"/>
      <path id="DejaVuSans-72" d="M 2631 2963 
Q 2534 3019 2420 3045 
Q 2306 3072 2169 3072 
Q 1681 3072 1420 2755 
Q 1159 2438 1159 1844 
L 1159 0 
L 581 0 
L 581 3500 
L 1159 3500 
L 1159 2956 
Q 1341 3275 1631 3429 
Q 1922 3584 2338 3584 
Q 2397 3584 2469 3576 
Q 2541 3569 2628 3553 
L 2631 2963 
z
" transform="scale(0.015625)"/>
      <path id="DejaVuSans-20" transform="scale(0.015625)"/>
      <path id="DejaVuSans-6e" d="M 3513 2113 
L 3513 0 
L 2938 0 
L 2938 2094 
Q 2938 2591 2744 2837 
Q 2550 3084 2163 3084 
Q 1697 3084 1428 2787 
Q 1159 2491 1159 1978 
L 1159 0 
L 581 0 
L 581 3500 
L 1159 3500 
L 1159 2956 
Q 1366 3272 1645 3428 
Q 1925 3584 2291 3584 
Q 2894 3584 3203 3211 
Q 3513 2838 3513 2113 
z
" transform="scale(0.015625)"/>
      <path id="DejaVuSans-64" d="M 2906 2969 
L 2906 4863 
L 3481 4863 
L 3481 0 
L 2906 0 
L 2906 525 
Q 2725 213 2448 61 
Q 2172 -91 1784 -91 
Q 1150 -91 751 415 
Q 353 922 353 1747 
Q 353 2572 751 3078 
Q 1150 3584 1784 3584 
Q 2172 3584 2448 3432 
Q 2725 3281 2906 2969 
z
M 947 1747 
Q 947 1113 1208 752 
Q 1469 391 1925 391 
Q 2381 391 2643 752 
Q 2906 1113 2906 1747 
Q 2906 2381 2643 2742 
Q 2381 3103 1925 3103 
Q 1469 3103 1208 2742 
Q 947 2381 947 1747 
z
" transform="scale(0.015625)"/>
      <path id="DejaVuSans-78" d="M 3513 3500 
L 2247 1797 
L 3578 0 
L 2900 0 
L 1881 1375 
L 863 0 
L 184 0 
L 1544 1831 
L 300 3500 
L 978 3500 
L 1906 2253 
L 2834 3500 
L 3513 3500 
z
" transform="scale(0.015625)"/>
      <path id="DejaVuSans-Oblique-68" d="M 3566 2113 
L 3156 0 
L 2578 0 
L 2988 2091 
Q 3016 2238 3031 2350 
Q 3047 2463 3047 2528 
Q 3047 2791 2881 2937 
Q 2716 3084 2419 3084 
Q 1956 3084 1617 2771 
Q 1278 2459 1178 1941 
L 800 0 
L 225 0 
L 1172 4863 
L 1747 4863 
L 1375 2950 
Q 1594 3244 1934 3414 
Q 2275 3584 2650 3584 
Q 3113 3584 3367 3334 
Q 3622 3084 3622 2631 
Q 3622 2519 3608 2391 
Q 3594 2263 3566 2113 
z
" transform="scale(0.015625)"/>
     </defs>
     <use xlink:href="#DejaVuSans-4d" transform="translate(0 0.015625)"/>
     <use xlink:href="#DejaVuSans-69" transform="translate(86.279297 0.015625)"/>
     <use xlink:href="#DejaVuSans-6c" transform="translate(114.0625 0.015625)"/>
     <use xlink:href="#DejaVuSans-6c" transform="translate(141.845703 0.015625)"/>
     <use xlink:href="#DejaVuSans-65" transform="translate(169.628906 0.015625)"/>
     <use xlink:href="#DejaVuSans-72" transform="translate(231.152344 0.015625)"/>
     <use xlink:href="#DejaVuSans-20" transform="translate(272.265625 0.015625)"/>
     <use xlink:href="#DejaVuSans-69" transform="translate(304.052734 0.015625)"/>
     <use xlink:href="#DejaVuSans-6e" transform="translate(331.835938 0.015625)"/>
     <use xlink:href="#DejaVuSans-64" transform="translate(395.214844 0.015625)"/>
     <use xlink:href="#DejaVuSans-65" transform="translate(458.691406 0.015625)"/>
     <use xlink:href="#DejaVuSans-78" transform="translate(520.214844 0.015625)"/>
     <use xlink:href="#DejaVuSans-20" transform="translate(579.394531 0.015625)"/>
     <use xlink:href="#DejaVuSans-Oblique-68" transform="translate(611.181641 0.015625)"/>
    </g>
   </g>
   <g id="text_2">
    <!-- image $i$ -->
    <g transform="translate(138.083465 66.600787)scale(0.1 -0.1)">
     <defs>
      <path id="DejaVuSans-6d" d="M 3328 2828 
Q 3544 3216 3844 3400 
Q 4144 3584 4550 3584 
Q 5097 3584 5394 3201 
Q 5691 2819 5691 2113 
L 5691 0 
L 5113 0 
L 5113 2094 
Q 5113 2597 4934 2840 
Q 4756 3084 4391 3084 
Q 3944 3084 3684 2787 
Q 3425 2491 3425 1978 
L 3425 0 
L 2847 0 
L 2847 2094 
Q 2847 2600 2669 2842 
Q 2491 3084 2119 3084 
Q 1678 3084 1418 2786 
Q 1159 2488 1159 1978 
L 1159 0 
L 581 0 
L 581 3500 
L 1159 3500 
L 1159 2956 
Q 1356 3278 1631 3431 
Q 1906 3584 2284 3584 
Q 2666 3584 2933 3390 
Q 3200 3197 3328 2828 
z
" transform="scale(0.015625)"/>
      <path id="DejaVuSans-61" d="M 2194 1759 
Q 1497 1759 1228 1600 
Q 959 1441 959 1056 
Q 959 750 1161 570 
Q 1363 391 1709 391 
Q 2188 391 2477 730 
Q 2766 1069 2766 1631 
L 2766 1759 
L 2194 1759 
z
M 3341 1997 
L 3341 0 
L 2766 0 
L 2766 531 
Q 2569 213 2275 61 
Q 1981 -91 1556 -91 
Q 1019 -91 701 211 
Q 384 513 384 1019 
Q 384 1609 779 1909 
Q 1175 2209 1959 2209 
L 2766 2209 
L 2766 2266 
Q 2766 2663 2505 2880 
Q 2244 3097 1772 3097 
Q 1472 3097 1187 3025 
Q 903 2953 641 2809 
L 641 3341 
Q 956 3463 1253 3523 
Q 1550 3584 1831 3584 
Q 2591 3584 2966 3190 
Q 3341 2797 3341 1997 
z
" transform="scale(0.015625)"/>
      <path id="DejaVuSans-67" d="M 2906 1791 
Q 2906 2416 2648 2759 
Q 2391 3103 1925 3103 
Q 1463 3103 1205 2759 
Q 947 2416 947 1791 
Q 947 1169 1205 825 
Q 1463 481 1925 481 
Q 2391 481 2648 825 
Q 2906 1169 2906 1791 
z
M 3481 434 
Q 3481 -459 3084 -895 
Q 2688 -1331 1869 -1331 
Q 1566 -1331 1297 -1286 
Q 1028 -1241 775 -1147 
L 775 -588 
Q 1028 -725 1275 -790 
Q 1522 -856 1778 -856 
Q 2344 -856 2625 -561 
Q 2906 -266 2906 331 
L 2906 616 
Q 2728 306 2450 153 
Q 2172 0 1784 0 
Q 1141 0 747 490 
Q 353 981 353 1791 
Q 353 2603 747 3093 
Q 1141 3584 1784 3584 
Q 2172 3584 2450 3431 
Q 2728 3278 2906 2969 
L 2906 3500 
L 3481 3500 
L 3481 434 
z
" transform="scale(0.015625)"/>
      <path id="DejaVuSans-Oblique-69" d="M 1172 4863 
L 1747 4863 
L 1606 4134 
L 1031 4134 
L 1172 4863 
z
M 909 3500 
L 1484 3500 
L 800 0 
L 225 0 
L 909 3500 
z
" transform="scale(0.015625)"/>
     </defs>
     <use xlink:href="#DejaVuSans-69" transform="translate(0 0.015625)"/>
     <use xlink:href="#DejaVuSans-6d" transform="translate(27.783203 0.015625)"/>
     <use xlink:href="#DejaVuSans-61" transform="translate(125.195312 0.015625)"/>
     <use xlink:href="#DejaVuSans-67" transform="translate(186.474609 0.015625)"/>
     <use xlink:href="#DejaVuSans-65" transform="translate(249.951172 0.015625)"/>
     <use xlink:href="#DejaVuSans-20" transform="translate(311.474609 0.015625)"/>
     <use xlink:href="#DejaVuSans-Oblique-69" transform="translate(343.261719 0.015625)"/>
    </g>
   </g>
   <g id="text_3">
    <!-- $\theta$ -->
    <g transform="translate(45.088976 36.609769)scale(0.1 -0.1)">
     <defs>
      <path id="DejaVuSans-Oblique-3b8" d="M 2913 2219 
L 925 2219 
Q 791 1284 928 888 
Q 1100 400 1566 400 
Q 2034 400 2391 891 
Q 2703 1322 2913 2219 
z
M 3009 2750 
Q 3094 3638 2984 3950 
Q 2813 4444 2353 4444 
Q 1875 4444 1525 3956 
Q 1250 3563 1034 2750 
L 3009 2750 
z
M 2444 4913 
Q 3194 4913 3494 4250 
Q 3794 3591 3566 2422 
Q 3341 1256 2781 594 
Q 2225 -72 1475 -72 
Q 722 -72 425 594 
Q 128 1256 353 2422 
Q 581 3591 1134 4250 
Q 1691 4913 2444 4913 
z
" transform="scale(0.015625)"/>
     </defs>
     <use xlink:href="#DejaVuSans-Oblique-3b8" transform="translate(0 0.234375)"/>
    </g>
   </g>
   <g id="text_4">
    <!-- $M$ -->
    <g transform="translate(15.49252 42.444414)scale(0.1 -0.1)">
     <defs>
      <path id="DejaVuSans-Oblique-4d" d="M 1081 4666 
L 2028 4666 
L 2572 1522 
L 4378 4666 
L 5350 4666 
L 4441 0 
L 3828 0 
L 4622 4091 
L 2791 897 
L 2175 897 
L 1581 4103 
L 788 0 
L 172 0 
L 1081 4666 
z
" transform="scale(0.015625)"/>
     </defs>
     <use xlink:href="#DejaVuSans-Oblique-4d" transform="translate(0 0.09375)"/>
    </g>
   </g>
   <g id="text_5">
    <!-- $\Sigma_{h,i}$ -->
    <g transform="translate(86.894094 42.085039)scale(0.1 -0.1)">
     <defs>
      <path id="DejaVuSans-3a3" d="M 1353 531 
L 3634 531 
L 3634 0 
L 628 0 
L 628 531 
L 2125 2481 
L 628 4134 
L 628 4666 
L 3578 4666 
L 3578 4134 
L 1353 4134 
L 2850 2494 
L 1353 531 
z
" transform="scale(0.015625)"/>
      <path id="DejaVuSans-2c" d="M 750 794 
L 1409 794 
L 1409 256 
L 897 -744 
L 494 -744 
L 750 256 
L 750 794 
z
" transform="scale(0.015625)"/>
     </defs>
     <use xlink:href="#DejaVuSans-3a3" transform="translate(0 0.09375)"/>
     <use xlink:href="#DejaVuSans-Oblique-68" transform="translate(64.140625 -16.3125)scale(0.7)"/>
     <use xlink:href="#DejaVuSans-2c" transform="translate(108.505859 -16.3125)scale(0.7)"/>
     <use xlink:href="#DejaVuSans-Oblique-69" transform="translate(144.394531 -16.3125)scale(0.7)"/>
    </g>
   </g>
   <g id="text_6">
    <!-- $I_{h,i}$ -->
    <g transform="translate(145.337008 42.085039)scale(0.1 -0.1)">
     <defs>
      <path id="DejaVuSans-Oblique-49" d="M 1081 4666 
L 1716 4666 
L 806 0 
L 172 0 
L 1081 4666 
z
" transform="scale(0.015625)"/>
     </defs>
     <use xlink:href="#DejaVuSans-Oblique-49" transform="translate(0 0.09375)"/>
     <use xlink:href="#DejaVuSans-Oblique-68" transform="translate(29.492188 -16.3125)scale(0.7)"/>
     <use xlink:href="#DejaVuSans-2c" transform="translate(73.857422 -16.3125)scale(0.7)"/>
     <use xlink:href="#DejaVuSans-Oblique-69" transform="translate(109.746094 -16.3125)scale(0.7)"/>
    </g>
   </g>
   <g id="text_7">
    <!-- $F_{h}$ -->
    <g transform="translate(203.379921 42.444414)scale(0.1 -0.1)">
     <defs>
      <path id="DejaVuSans-Oblique-46" d="M 1081 4666 
L 3756 4666 
L 3653 4134 
L 1606 4134 
L 1338 2759 
L 3188 2759 
L 3084 2228 
L 1234 2228 
L 800 0 
L 172 0 
L 1081 4666 
z
" transform="scale(0.015625)"/>
     </defs>
     <use xlink:href="#DejaVuSans-Oblique-46" transform="translate(0 0.09375)"/>
     <use xlink:href="#DejaVuSans-Oblique-68" transform="translate(57.519531 -16.3125)scale(0.7)"/>
    </g>
   </g>
  </g>
 </g>
 <defs>
  <clipPath id="pb82ba08012">
   <rect x="0" y="0" width="233.007874" height="102.047244"/>
  </clipPath>
 </defs>
</svg>
