<?xml version="1.0" encoding="utf-8" standalone="no"?>
<!DOCTYPE svg PUBLIC "-//W3C//DTD SVG 1.1//EN"
  "http://www.w3.org/Graphics/SVG/1.1/DTD/svg11.dtd">
<!-- Created with matplotlib (https://matplotlib.org/) -->
<svg height="105.826772pt" version="1.1" viewBox="0 0 328.818898 105.826772" width="328.818898pt" xmlns="http://www.w3.org/2000/svg" xmlns:xlink="http://www.w3.org/1999/xlink">
 <metadata>
  <rdf:RDF xmlns:cc="http://creativecommons.org/ns#" xmlns:dc="http://purl.org/dc/elements/1.1/" xmlns:rdf="http://www.w3.org/1999/02/22-rdf-syntax-ns#">
   <cc:Work>
    <dc:type rdf:resource="http://purl.org/dc/dcmitype/StillImage"/>
    <dc:date>2021-01-05T20:02:18.211522</dc:date>
    <dc:format>image/svg+xml</dc:format>
    <dc:creator>
     <cc:Agent>
      <dc:title>Matplotlib v3.3.3, https://matplotlib.org/</dc:title>
     </cc:Agent>
    </dc:creator>
   </cc:Work>
  </rdf:RDF>
 </metadata>
 <defs>
  <style type="text/css">*{stroke-linecap:butt;stroke-linejoin:round;}</style>
 </defs>
 <g id="figure_1">
  <g id="patch_1">
   <path d="M 0 105.826772 
L 328.818898 105.826772 
L 328.818898 0 
L 0 0 
z
" style="fill:#ffffff;"/>
  </g>
  <g id="axes_1">
   <g id="patch_2">
    <path clip-path="url(#p527fba42f5)" d="M 209.76378 100.15748 
L 323.149606 100.15748 
L 323.149606 9.448819 
L 209.76378 9.448819 
z
" style="fill:none;stroke:#000000;stroke-linejoin:miter;"/>
   </g>
   <g id="patch_3">
    <path clip-path="url(#p527fba42f5)" d="M 218.267717 77.480315 
L 274.96063 77.480315 
L 274.96063 20.787402 
L 218.267717 20.787402 
z
" style="fill:none;stroke:#000000;stroke-linejoin:miter;"/>
   </g>
   <g id="patch_4">
    <path clip-path="url(#p527fba42f5)" d="M 124.777066 19.343751 
L 119.072452 23.780673 
L 118.438606 22.512981 
L 89.212354 37.126107 
L 89.212354 37.126107 
L 118.438606 22.512981 
L 117.804759 21.245289 
z
" style="stroke:#000000;stroke-linejoin:miter;"/>
   </g>
   <g id="patch_5">
    <path clip-path="url(#p527fba42f5)" d="M 124.777066 67.585383 
L 117.804759 65.683845 
L 118.438606 64.416153 
L 89.212354 49.803027 
L 89.212354 49.803027 
L 118.438606 64.416153 
L 119.072452 63.148461 
z
" style="stroke:#000000;stroke-linejoin:miter;"/>
   </g>
   <g id="patch_6">
    <path clip-path="url(#p527fba42f5)" d="M 62.362205 43.464567 
L 55.275591 44.88189 
L 55.275591 43.464567 
L 34.015748 43.464567 
L 34.015748 43.464567 
L 55.275591 43.464567 
L 55.275591 42.047244 
z
" style="stroke:#000000;stroke-linejoin:miter;"/>
   </g>
   <g id="patch_7">
    <path clip-path="url(#p527fba42f5)" d="M 177.244339 37.126107 
L 170.272033 35.224568 
L 170.905879 33.956876 
L 141.679627 19.343751 
L 141.679627 19.343751 
L 170.905879 33.956876 
L 171.539725 32.689184 
z
" style="stroke:#000000;stroke-linejoin:miter;"/>
   </g>
   <g id="patch_8">
    <path clip-path="url(#p527fba42f5)" d="M 177.244339 49.803027 
L 171.539725 54.23995 
L 170.905879 52.972258 
L 141.679627 67.585383 
L 141.679627 67.585383 
L 170.905879 52.972258 
L 170.272033 51.704565 
z
" style="stroke:#000000;stroke-linejoin:miter;"/>
   </g>
   <g id="patch_9">
    <path clip-path="url(#p527fba42f5)" d="M 232.440945 43.464567 
L 225.354331 44.88189 
L 225.354331 43.464567 
L 204.094488 43.464567 
L 204.094488 43.464567 
L 225.354331 43.464567 
L 225.354331 42.047244 
z
" style="stroke:#000000;stroke-linejoin:miter;"/>
   </g>
   <g id="patch_10">
    <path clip-path="url(#p527fba42f5)" d="M 260.787402 43.464567 
L 267.874016 42.047244 
L 267.874016 43.464567 
L 289.133858 43.464567 
L 289.133858 43.464567 
L 267.874016 43.464567 
L 267.874016 44.88189 
z
" style="stroke:#000000;stroke-linejoin:miter;"/>
   </g>
   <g id="patch_11">
    <path clip-path="url(#p527fba42f5)" d="M 19.84252 57.637795 
C 23.601304 57.637795 27.206644 56.144415 29.864506 53.486553 
C 32.522367 50.828691 34.015748 47.223351 34.015748 43.464567 
C 34.015748 39.705783 32.522367 36.100443 29.864506 33.442581 
C 27.206644 30.784719 23.601304 29.291339 19.84252 29.291339 
C 16.083736 29.291339 12.478396 30.784719 9.820534 33.442581 
C 7.162672 36.100443 5.669291 39.705783 5.669291 43.464567 
C 5.669291 47.223351 7.162672 50.828691 9.820534 53.486553 
C 12.478396 56.144415 16.083736 57.637795 19.84252 57.637795 
z
" style="fill:#b2b2b2;stroke:#000000;stroke-linejoin:miter;"/>
   </g>
   <g id="patch_12">
    <path clip-path="url(#p527fba42f5)" d="M 19.84252 57.637795 
C 23.601304 57.637795 27.206644 56.144415 29.864506 53.486553 
C 32.522367 50.828691 34.015748 47.223351 34.015748 43.464567 
C 34.015748 39.705783 32.522367 36.100443 29.864506 33.442581 
C 27.206644 30.784719 23.601304 29.291339 19.84252 29.291339 
C 16.083736 29.291339 12.478396 30.784719 9.820534 33.442581 
C 7.162672 36.100443 5.669291 39.705783 5.669291 43.464567 
C 5.669291 47.223351 7.162672 50.828691 9.820534 53.486553 
C 12.478396 56.144415 16.083736 57.637795 19.84252 57.637795 
z
" style="fill:none;stroke:#000000;stroke-linejoin:miter;"/>
   </g>
   <g id="patch_13">
    <path clip-path="url(#p527fba42f5)" d="M 76.535433 57.637795 
C 80.294217 57.637795 83.899557 56.144415 86.557419 53.486553 
C 89.215281 50.828691 90.708661 47.223351 90.708661 43.464567 
C 90.708661 39.705783 89.215281 36.100443 86.557419 33.442581 
C 83.899557 30.784719 80.294217 29.291339 76.535433 29.291339 
C 72.776649 29.291339 69.171309 30.784719 66.513447 33.442581 
C 63.855585 36.100443 62.362205 39.705783 62.362205 43.464567 
C 62.362205 47.223351 63.855585 50.828691 66.513447 53.486553 
C 69.171309 56.144415 72.776649 57.637795 76.535433 57.637795 
z
" style="stroke:#000000;stroke-linejoin:miter;"/>
   </g>
   <g id="patch_14">
    <path clip-path="url(#p527fba42f5)" d="M 133.228346 24.566929 
C 135.734203 24.566929 138.137763 23.571342 139.90967 21.799434 
C 141.681578 20.027526 142.677165 17.623966 142.677165 15.11811 
C 142.677165 12.612254 141.681578 10.208694 139.90967 8.436786 
C 138.137763 6.664879 135.734203 5.669291 133.228346 5.669291 
C 130.72249 5.669291 128.31893 6.664879 126.547023 8.436786 
C 124.775115 10.208694 123.779528 12.612254 123.779528 15.11811 
C 123.779528 17.623966 124.775115 20.027526 126.547023 21.799434 
C 128.31893 23.571342 130.72249 24.566929 133.228346 24.566929 
z
" style="stroke:#000000;stroke-linejoin:miter;"/>
   </g>
   <g id="patch_15">
    <path clip-path="url(#p527fba42f5)" d="M 133.228346 81.259843 
C 135.734203 81.259843 138.137763 80.264255 139.90967 78.492348 
C 141.681578 76.72044 142.677165 74.31688 142.677165 71.811024 
C 142.677165 69.305168 141.681578 66.901608 139.90967 65.1297 
C 138.137763 63.357792 135.734203 62.362205 133.228346 62.362205 
C 130.72249 62.362205 128.31893 63.357792 126.547023 65.1297 
C 124.775115 66.901608 123.779528 69.305168 123.779528 71.811024 
C 123.779528 74.31688 124.775115 76.72044 126.547023 78.492348 
C 128.31893 80.264255 130.72249 81.259843 133.228346 81.259843 
z
" style="stroke:#000000;stroke-linejoin:miter;"/>
   </g>
   <g id="patch_16">
    <path clip-path="url(#p527fba42f5)" d="M 189.92126 57.637795 
C 193.680044 57.637795 197.285384 56.144415 199.943246 53.486553 
C 202.601107 50.828691 204.094488 47.223351 204.094488 43.464567 
C 204.094488 39.705783 202.601107 36.100443 199.943246 33.442581 
C 197.285384 30.784719 193.680044 29.291339 189.92126 29.291339 
C 186.162476 29.291339 182.557136 30.784719 179.899274 33.442581 
C 177.241412 36.100443 175.748031 39.705783 175.748031 43.464567 
C 175.748031 47.223351 177.241412 50.828691 179.899274 53.486553 
C 182.557136 56.144415 186.162476 57.637795 189.92126 57.637795 
z
" style="fill:none;stroke:#000000;stroke-linejoin:miter;"/>
   </g>
   <g id="patch_17">
    <path clip-path="url(#p527fba42f5)" d="M 246.614173 57.637795 
C 250.372957 57.637795 253.978297 56.144415 256.636159 53.486553 
C 259.294021 50.828691 260.787402 47.223351 260.787402 43.464567 
C 260.787402 39.705783 259.294021 36.100443 256.636159 33.442581 
C 253.978297 30.784719 250.372957 29.291339 246.614173 29.291339 
C 242.855389 29.291339 239.250049 30.784719 236.592187 33.442581 
C 233.934326 36.100443 232.440945 39.705783 232.440945 43.464567 
C 232.440945 47.223351 233.934326 50.828691 236.592187 53.486553 
C 239.250049 56.144415 242.855389 57.637795 246.614173 57.637795 
z
" style="fill:#b2b2b2;stroke:#000000;stroke-linejoin:miter;"/>
   </g>
   <g id="patch_18">
    <path clip-path="url(#p527fba42f5)" d="M 246.614173 57.637795 
C 250.372957 57.637795 253.978297 56.144415 256.636159 53.486553 
C 259.294021 50.828691 260.787402 47.223351 260.787402 43.464567 
C 260.787402 39.705783 259.294021 36.100443 256.636159 33.442581 
C 253.978297 30.784719 250.372957 29.291339 246.614173 29.291339 
C 242.855389 29.291339 239.250049 30.784719 236.592187 33.442581 
C 233.934326 36.100443 232.440945 39.705783 232.440945 43.464567 
C 232.440945 47.223351 233.934326 50.828691 236.592187 53.486553 
C 239.250049 56.144415 242.855389 57.637795 246.614173 57.637795 
z
" style="fill:none;stroke:#000000;stroke-linejoin:miter;"/>
   </g>
   <g id="patch_19">
    <path clip-path="url(#p527fba42f5)" d="M 303.307087 57.637795 
C 307.065871 57.637795 310.671211 56.144415 313.329072 53.486553 
C 315.986934 50.828691 317.480315 47.223351 317.480315 43.464567 
C 317.480315 39.705783 315.986934 36.100443 313.329072 33.442581 
C 310.671211 30.784719 307.065871 29.291339 303.307087 29.291339 
C 299.548303 29.291339 295.942962 30.784719 293.285101 33.442581 
C 290.627239 36.100443 289.133858 39.705783 289.133858 43.464567 
C 289.133858 47.223351 290.627239 50.828691 293.285101 53.486553 
C 295.942962 56.144415 299.548303 57.637795 303.307087 57.637795 
z
" style="fill:none;stroke:#000000;stroke-linejoin:miter;"/>
   </g>
   <g id="matplotlib.axis_1"/>
   <g id="matplotlib.axis_2"/>
   <g id="text_1">
    <!-- Miller index $h$ -->
    <g transform="translate(214.76378 93.077793)scale(0.1 -0.1)">
     <defs>
      <path d="M 9.8125 72.90625 
L 24.515625 72.90625 
L 43.109375 23.296875 
L 61.8125 72.90625 
L 76.515625 72.90625 
L 76.515625 0 
L 66.890625 0 
L 66.890625 64.015625 
L 48.09375 14.015625 
L 38.1875 14.015625 
L 19.390625 64.015625 
L 19.390625 0 
L 9.8125 0 
z
" id="DejaVuSans-77"/>
      <path d="M 9.421875 54.6875 
L 18.40625 54.6875 
L 18.40625 0 
L 9.421875 0 
z
M 9.421875 75.984375 
L 18.40625 75.984375 
L 18.40625 64.59375 
L 9.421875 64.59375 
z
" id="DejaVuSans-105"/>
      <path d="M 9.421875 75.984375 
L 18.40625 75.984375 
L 18.40625 0 
L 9.421875 0 
z
" id="DejaVuSans-108"/>
      <path d="M 56.203125 29.59375 
L 56.203125 25.203125 
L 14.890625 25.203125 
Q 15.484375 15.921875 20.484375 11.0625 
Q 25.484375 6.203125 34.421875 6.203125 
Q 39.59375 6.203125 44.453125 7.46875 
Q 49.3125 8.734375 54.109375 11.28125 
L 54.109375 2.78125 
Q 49.265625 0.734375 44.1875 -0.34375 
Q 39.109375 -1.421875 33.890625 -1.421875 
Q 20.796875 -1.421875 13.15625 6.1875 
Q 5.515625 13.8125 5.515625 26.8125 
Q 5.515625 40.234375 12.765625 48.109375 
Q 20.015625 56 32.328125 56 
Q 43.359375 56 49.78125 48.890625 
Q 56.203125 41.796875 56.203125 29.59375 
z
M 47.21875 32.234375 
Q 47.125 39.59375 43.09375 43.984375 
Q 39.0625 48.390625 32.421875 48.390625 
Q 24.90625 48.390625 20.390625 44.140625 
Q 15.875 39.890625 15.1875 32.171875 
z
" id="DejaVuSans-101"/>
      <path d="M 41.109375 46.296875 
Q 39.59375 47.171875 37.8125 47.578125 
Q 36.03125 48 33.890625 48 
Q 26.265625 48 22.1875 43.046875 
Q 18.109375 38.09375 18.109375 28.8125 
L 18.109375 0 
L 9.078125 0 
L 9.078125 54.6875 
L 18.109375 54.6875 
L 18.109375 46.1875 
Q 20.953125 51.171875 25.484375 53.578125 
Q 30.03125 56 36.53125 56 
Q 37.453125 56 38.578125 55.875 
Q 39.703125 55.765625 41.0625 55.515625 
z
" id="DejaVuSans-114"/>
      <path id="DejaVuSans-32"/>
      <path d="M 54.890625 33.015625 
L 54.890625 0 
L 45.90625 0 
L 45.90625 32.71875 
Q 45.90625 40.484375 42.875 44.328125 
Q 39.84375 48.1875 33.796875 48.1875 
Q 26.515625 48.1875 22.3125 43.546875 
Q 18.109375 38.921875 18.109375 30.90625 
L 18.109375 0 
L 9.078125 0 
L 9.078125 54.6875 
L 18.109375 54.6875 
L 18.109375 46.1875 
Q 21.34375 51.125 25.703125 53.5625 
Q 30.078125 56 35.796875 56 
Q 45.21875 56 50.046875 50.171875 
Q 54.890625 44.34375 54.890625 33.015625 
z
" id="DejaVuSans-110"/>
      <path d="M 45.40625 46.390625 
L 45.40625 75.984375 
L 54.390625 75.984375 
L 54.390625 0 
L 45.40625 0 
L 45.40625 8.203125 
Q 42.578125 3.328125 38.25 0.953125 
Q 33.9375 -1.421875 27.875 -1.421875 
Q 17.96875 -1.421875 11.734375 6.484375 
Q 5.515625 14.40625 5.515625 27.296875 
Q 5.515625 40.1875 11.734375 48.09375 
Q 17.96875 56 27.875 56 
Q 33.9375 56 38.25 53.625 
Q 42.578125 51.265625 45.40625 46.390625 
z
M 14.796875 27.296875 
Q 14.796875 17.390625 18.875 11.75 
Q 22.953125 6.109375 30.078125 6.109375 
Q 37.203125 6.109375 41.296875 11.75 
Q 45.40625 17.390625 45.40625 27.296875 
Q 45.40625 37.203125 41.296875 42.84375 
Q 37.203125 48.484375 30.078125 48.484375 
Q 22.953125 48.484375 18.875 42.84375 
Q 14.796875 37.203125 14.796875 27.296875 
z
" id="DejaVuSans-100"/>
      <path d="M 54.890625 54.6875 
L 35.109375 28.078125 
L 55.90625 0 
L 45.3125 0 
L 29.390625 21.484375 
L 13.484375 0 
L 2.875 0 
L 24.125 28.609375 
L 4.6875 54.6875 
L 15.28125 54.6875 
L 29.78125 35.203125 
L 44.28125 54.6875 
z
" id="DejaVuSans-120"/>
      <path d="M 55.71875 33.015625 
L 49.3125 0 
L 40.28125 0 
L 46.6875 32.671875 
Q 47.125 34.96875 47.359375 36.71875 
Q 47.609375 38.484375 47.609375 39.5 
Q 47.609375 43.609375 45.015625 45.890625 
Q 42.4375 48.1875 37.796875 48.1875 
Q 30.5625 48.1875 25.265625 43.296875 
Q 19.96875 38.421875 18.40625 30.328125 
L 12.5 0 
L 3.515625 0 
L 18.3125 75.984375 
L 27.296875 75.984375 
L 21.484375 46.09375 
Q 24.90625 50.6875 30.21875 53.34375 
Q 35.546875 56 41.40625 56 
Q 48.640625 56 52.609375 52.09375 
Q 56.59375 48.1875 56.59375 41.109375 
Q 56.59375 39.359375 56.375 37.359375 
Q 56.15625 35.359375 55.71875 33.015625 
z
" id="DejaVuSans-Oblique-104"/>
     </defs>
     <use transform="translate(0 0.015625)" xlink:href="#DejaVuSans-77"/>
     <use transform="translate(86.279297 0.015625)" xlink:href="#DejaVuSans-105"/>
     <use transform="translate(114.0625 0.015625)" xlink:href="#DejaVuSans-108"/>
     <use transform="translate(141.845703 0.015625)" xlink:href="#DejaVuSans-108"/>
     <use transform="translate(169.628906 0.015625)" xlink:href="#DejaVuSans-101"/>
     <use transform="translate(231.152344 0.015625)" xlink:href="#DejaVuSans-114"/>
     <use transform="translate(272.265625 0.015625)" xlink:href="#DejaVuSans-32"/>
     <use transform="translate(304.052734 0.015625)" xlink:href="#DejaVuSans-105"/>
     <use transform="translate(331.835938 0.015625)" xlink:href="#DejaVuSans-110"/>
     <use transform="translate(395.214844 0.015625)" xlink:href="#DejaVuSans-100"/>
     <use transform="translate(458.691406 0.015625)" xlink:href="#DejaVuSans-101"/>
     <use transform="translate(520.214844 0.015625)" xlink:href="#DejaVuSans-120"/>
     <use transform="translate(579.394531 0.015625)" xlink:href="#DejaVuSans-32"/>
     <use transform="translate(611.181641 0.015625)" xlink:href="#DejaVuSans-Oblique-104"/>
    </g>
   </g>
   <g id="text_2">
    <!-- image $i$ -->
    <g transform="translate(223.267717 70.380315)scale(0.1 -0.1)">
     <defs>
      <path d="M 52 44.1875 
Q 55.375 50.25 60.0625 53.125 
Q 64.75 56 71.09375 56 
Q 79.640625 56 84.28125 50.015625 
Q 88.921875 44.046875 88.921875 33.015625 
L 88.921875 0 
L 79.890625 0 
L 79.890625 32.71875 
Q 79.890625 40.578125 77.09375 44.375 
Q 74.3125 48.1875 68.609375 48.1875 
Q 61.625 48.1875 57.5625 43.546875 
Q 53.515625 38.921875 53.515625 30.90625 
L 53.515625 0 
L 44.484375 0 
L 44.484375 32.71875 
Q 44.484375 40.625 41.703125 44.40625 
Q 38.921875 48.1875 33.109375 48.1875 
Q 26.21875 48.1875 22.15625 43.53125 
Q 18.109375 38.875 18.109375 30.90625 
L 18.109375 0 
L 9.078125 0 
L 9.078125 54.6875 
L 18.109375 54.6875 
L 18.109375 46.1875 
Q 21.1875 51.21875 25.484375 53.609375 
Q 29.78125 56 35.6875 56 
Q 41.65625 56 45.828125 52.96875 
Q 50 49.953125 52 44.1875 
z
" id="DejaVuSans-109"/>
      <path d="M 34.28125 27.484375 
Q 23.390625 27.484375 19.1875 25 
Q 14.984375 22.515625 14.984375 16.5 
Q 14.984375 11.71875 18.140625 8.90625 
Q 21.296875 6.109375 26.703125 6.109375 
Q 34.1875 6.109375 38.703125 11.40625 
Q 43.21875 16.703125 43.21875 25.484375 
L 43.21875 27.484375 
z
M 52.203125 31.203125 
L 52.203125 0 
L 43.21875 0 
L 43.21875 8.296875 
Q 40.140625 3.328125 35.546875 0.953125 
Q 30.953125 -1.421875 24.3125 -1.421875 
Q 15.921875 -1.421875 10.953125 3.296875 
Q 6 8.015625 6 15.921875 
Q 6 25.140625 12.171875 29.828125 
Q 18.359375 34.515625 30.609375 34.515625 
L 43.21875 34.515625 
L 43.21875 35.40625 
Q 43.21875 41.609375 39.140625 45 
Q 35.0625 48.390625 27.6875 48.390625 
Q 23 48.390625 18.546875 47.265625 
Q 14.109375 46.140625 10.015625 43.890625 
L 10.015625 52.203125 
Q 14.9375 54.109375 19.578125 55.046875 
Q 24.21875 56 28.609375 56 
Q 40.484375 56 46.34375 49.84375 
Q 52.203125 43.703125 52.203125 31.203125 
z
" id="DejaVuSans-97"/>
      <path d="M 45.40625 27.984375 
Q 45.40625 37.75 41.375 43.109375 
Q 37.359375 48.484375 30.078125 48.484375 
Q 22.859375 48.484375 18.828125 43.109375 
Q 14.796875 37.75 14.796875 27.984375 
Q 14.796875 18.265625 18.828125 12.890625 
Q 22.859375 7.515625 30.078125 7.515625 
Q 37.359375 7.515625 41.375 12.890625 
Q 45.40625 18.265625 45.40625 27.984375 
z
M 54.390625 6.78125 
Q 54.390625 -7.171875 48.1875 -13.984375 
Q 42 -20.796875 29.203125 -20.796875 
Q 24.46875 -20.796875 20.265625 -20.09375 
Q 16.0625 -19.390625 12.109375 -17.921875 
L 12.109375 -9.1875 
Q 16.0625 -11.328125 19.921875 -12.34375 
Q 23.78125 -13.375 27.78125 -13.375 
Q 36.625 -13.375 41.015625 -8.765625 
Q 45.40625 -4.15625 45.40625 5.171875 
L 45.40625 9.625 
Q 42.625 4.78125 38.28125 2.390625 
Q 33.9375 0 27.875 0 
Q 17.828125 0 11.671875 7.65625 
Q 5.515625 15.328125 5.515625 27.984375 
Q 5.515625 40.671875 11.671875 48.328125 
Q 17.828125 56 27.875 56 
Q 33.9375 56 38.28125 53.609375 
Q 42.625 51.21875 45.40625 46.390625 
L 45.40625 54.6875 
L 54.390625 54.6875 
z
" id="DejaVuSans-103"/>
      <path d="M 18.3125 75.984375 
L 27.296875 75.984375 
L 25.09375 64.59375 
L 16.109375 64.59375 
z
M 14.203125 54.6875 
L 23.1875 54.6875 
L 12.5 0 
L 3.515625 0 
z
" id="DejaVuSans-Oblique-105"/>
     </defs>
     <use transform="translate(0 0.015625)" xlink:href="#DejaVuSans-105"/>
     <use transform="translate(27.783203 0.015625)" xlink:href="#DejaVuSans-109"/>
     <use transform="translate(125.195312 0.015625)" xlink:href="#DejaVuSans-97"/>
     <use transform="translate(186.474609 0.015625)" xlink:href="#DejaVuSans-103"/>
     <use transform="translate(249.951172 0.015625)" xlink:href="#DejaVuSans-101"/>
     <use transform="translate(311.474609 0.015625)" xlink:href="#DejaVuSans-32"/>
     <use transform="translate(343.261719 0.015625)" xlink:href="#DejaVuSans-Oblique-105"/>
    </g>
   </g>
   <g id="text_3">
    <!-- $M$ -->
    <g transform="translate(15.49252 46.223942)scale(0.1 -0.1)">
     <defs>
      <path d="M 16.890625 72.90625 
L 31.6875 72.90625 
L 40.1875 23.78125 
L 68.40625 72.90625 
L 83.59375 72.90625 
L 69.390625 0 
L 59.8125 0 
L 72.21875 63.921875 
L 43.609375 14.015625 
L 33.984375 14.015625 
L 24.703125 64.109375 
L 12.3125 0 
L 2.6875 0 
z
" id="DejaVuSans-Oblique-77"/>
     </defs>
     <use transform="translate(0 0.09375)" xlink:href="#DejaVuSans-Oblique-77"/>
    </g>
   </g>
   <g id="text_4">
    <!-- $NN_w$ -->
    <g style="fill:#ffffff;" transform="translate(66.035433 45.964567)scale(0.1 -0.1)">
     <defs>
      <path d="M 16.890625 72.90625 
L 30.171875 72.90625 
L 50.296875 10.40625 
L 62.5 72.90625 
L 72.125 72.90625 
L 57.90625 0 
L 44.578125 0 
L 24.515625 62.890625 
L 12.3125 0 
L 2.6875 0 
z
" id="DejaVuSans-Oblique-78"/>
      <path d="M 8.5 54.6875 
L 17.390625 54.6875 
L 19.671875 10.6875 
L 40.09375 54.6875 
L 50.484375 54.6875 
L 53.515625 10.6875 
L 72.90625 54.6875 
L 81.890625 54.6875 
L 56.890625 0 
L 46.390625 0 
L 43.703125 45.3125 
L 22.796875 0 
L 12.203125 0 
z
" id="DejaVuSans-Oblique-119"/>
     </defs>
     <use transform="translate(0 0.09375)" xlink:href="#DejaVuSans-Oblique-78"/>
     <use transform="translate(74.804688 0.09375)" xlink:href="#DejaVuSans-Oblique-78"/>
     <use transform="translate(149.609375 -16.3125)scale(0.7)" xlink:href="#DejaVuSans-Oblique-119"/>
    </g>
   </g>
   <g id="text_5">
    <!-- $\mu$ -->
    <g style="fill:#ffffff;" transform="translate(130.028346 17.61811)scale(0.1 -0.1)">
     <defs>
      <path d="M -1.3125 -20.796875 
L 13.375 54.6875 
L 22.40625 54.6875 
L 15.765625 20.65625 
Q 15.578125 19.625 15.421875 18.359375 
Q 15.28125 17.09375 15.28125 15.828125 
Q 15.28125 11.28125 18.140625 8.828125 
Q 21 6.390625 26.3125 6.390625 
Q 33.546875 6.390625 37.984375 10.484375 
Q 42.4375 14.59375 44 22.796875 
L 50.203125 54.6875 
L 59.1875 54.6875 
L 51.03125 12.640625 
Q 50.828125 11.71875 50.75 11.03125 
Q 50.6875 10.359375 50.6875 9.8125 
Q 50.6875 8.296875 51.296875 7.59375 
Q 51.90625 6.890625 53.21875 6.890625 
Q 53.71875 6.890625 54.5625 7.125 
Q 55.421875 7.375 56.984375 8.015625 
L 55.609375 0.78125 
Q 53.46875 -0.296875 51.515625 -0.859375 
Q 49.5625 -1.421875 47.703125 -1.421875 
Q 44.484375 -1.421875 42.65625 0.625 
Q 40.828125 2.6875 40.828125 6.296875 
Q 38.09375 2.390625 34.296875 0.484375 
Q 30.515625 -1.421875 25.390625 -1.421875 
Q 20.84375 -1.421875 17.453125 0.671875 
Q 14.0625 2.78125 12.984375 6.203125 
L 7.71875 -20.796875 
z
" id="DejaVuSans-Oblique-956"/>
     </defs>
     <use transform="translate(0 0.3125)" xlink:href="#DejaVuSans-Oblique-956"/>
    </g>
   </g>
   <g id="text_6">
    <!-- $\sigma$ -->
    <g style="fill:#ffffff;" transform="translate(130.028346 73.311024)scale(0.1 -0.1)">
     <defs>
      <path d="M 34.671875 47.5625 
Q 27.25 47.5625 22.21875 42.1875 
Q 16.890625 36.578125 15.140625 27.296875 
Q 13.1875 17.484375 16.3125 11.8125 
Q 19.390625 6.203125 26.65625 6.203125 
Q 33.84375 6.203125 39.109375 11.859375 
Q 44.4375 17.53125 46.34375 27.296875 
Q 48.046875 36.234375 45.015625 42.1875 
Q 42.1875 47.5625 34.671875 47.5625 
z
M 36.078125 54.734375 
L 65.921875 54.6875 
L 64.15625 45.703125 
L 54.109375 45.703125 
Q 57.90625 38.09375 55.859375 27.296875 
Q 53.21875 13.875 45.0625 6.25 
Q 36.859375 -1.421875 25.140625 -1.421875 
Q 13.375 -1.421875 8.203125 6.25 
Q 3.03125 13.875 5.671875 27.296875 
Q 8.25 40.765625 16.40625 48.390625 
Q 23.1875 54.734375 36.078125 54.734375 
z
" id="DejaVuSans-Oblique-963"/>
     </defs>
     <use transform="translate(0 0.265625)" xlink:href="#DejaVuSans-Oblique-963"/>
    </g>
   </g>
   <g id="text_7">
    <!-- $\Sigma$ -->
    <g transform="translate(186.72126 46.223942)scale(0.1 -0.1)">
     <defs>
      <path d="M 21.140625 8.296875 
L 56.78125 8.296875 
L 56.78125 0 
L 9.8125 0 
L 9.8125 8.296875 
L 33.203125 38.765625 
L 9.8125 64.59375 
L 9.8125 72.90625 
L 55.90625 72.90625 
L 55.90625 64.59375 
L 21.140625 64.59375 
L 44.53125 38.96875 
z
" id="DejaVuSans-931"/>
     </defs>
     <use transform="translate(0 0.09375)" xlink:href="#DejaVuSans-931"/>
    </g>
   </g>
   <g id="text_8">
    <!-- $I_{h,i}$ -->
    <g transform="translate(240.014173 45.864567)scale(0.1 -0.1)">
     <defs>
      <path d="M 16.890625 72.90625 
L 26.8125 72.90625 
L 12.59375 0 
L 2.6875 0 
z
" id="DejaVuSans-Oblique-73"/>
      <path d="M 11.71875 12.40625 
L 22.015625 12.40625 
L 22.015625 4 
L 14.015625 -11.625 
L 7.71875 -11.625 
L 11.71875 4 
z
" id="DejaVuSans-44"/>
     </defs>
     <use transform="translate(0 0.09375)" xlink:href="#DejaVuSans-Oblique-73"/>
     <use transform="translate(29.492188 -16.3125)scale(0.7)" xlink:href="#DejaVuSans-Oblique-104"/>
     <use transform="translate(73.857422 -16.3125)scale(0.7)" xlink:href="#DejaVuSans-44"/>
     <use transform="translate(109.746094 -16.3125)scale(0.7)" xlink:href="#DejaVuSans-Oblique-105"/>
    </g>
   </g>
   <g id="text_9">
    <!-- $F_{h}$ -->
    <g transform="translate(298.057087 46.223942)scale(0.1 -0.1)">
     <defs>
      <path d="M 16.890625 72.90625 
L 58.6875 72.90625 
L 57.078125 64.59375 
L 25.09375 64.59375 
L 20.90625 43.109375 
L 49.8125 43.109375 
L 48.1875 34.8125 
L 19.28125 34.8125 
L 12.5 0 
L 2.6875 0 
z
" id="DejaVuSans-Oblique-70"/>
     </defs>
     <use transform="translate(0 0.09375)" xlink:href="#DejaVuSans-Oblique-70"/>
     <use transform="translate(57.519531 -16.3125)scale(0.7)" xlink:href="#DejaVuSans-Oblique-104"/>
    </g>
   </g>
  </g>
 </g>
 <defs>
  <clipPath id="p527fba42f5">
   <rect height="105.826772" width="328.818898" x="0" y="0"/>
  </clipPath>
 </defs>
</svg>
