<?xml version="1.0" encoding="utf-8" standalone="no"?>
<!DOCTYPE svg PUBLIC "-//W3C//DTD SVG 1.1//EN"
  "http://www.w3.org/Graphics/SVG/1.1/DTD/svg11.dtd">
<!-- Created with matplotlib (https://matplotlib.org/) -->
<svg height="209.52pt" version="1.1" viewBox="0 0 606.24 209.52" width="606.24pt" xmlns="http://www.w3.org/2000/svg" xmlns:xlink="http://www.w3.org/1999/xlink">
 <metadata>
  <rdf:RDF xmlns:cc="http://creativecommons.org/ns#" xmlns:dc="http://purl.org/dc/elements/1.1/" xmlns:rdf="http://www.w3.org/1999/02/22-rdf-syntax-ns#">
   <cc:Work>
    <dc:type rdf:resource="http://purl.org/dc/dcmitype/StillImage"/>
    <dc:date>2020-08-28T09:40:19.042123</dc:date>
    <dc:format>image/svg+xml</dc:format>
    <dc:creator>
     <cc:Agent>
      <dc:title>Matplotlib v3.3.0, https://matplotlib.org/</dc:title>
     </cc:Agent>
    </dc:creator>
   </cc:Work>
  </rdf:RDF>
 </metadata>
 <defs>
  <style type="text/css">*{stroke-linecap:butt;stroke-linejoin:round;}</style>
 </defs>
 <g id="figure_1">
  <g id="patch_1">
   <path d="M 0 209.52 
L 606.24 209.52 
L 606.24 0 
L 0 0 
z
" style="fill:#ffffff;"/>
  </g>
  <g id="axes_1">
   <g id="patch_2">
    <path clip-path="url(#p4782af11d8)" d="M 436.266168 172.712432 
L 560.913645 172.712432 
L 560.913645 59.458378 
L 436.266168 59.458378 
z
" style="fill:none;stroke:#000000;stroke-linejoin:miter;"/>
   </g>
   <g id="patch_3">
    <path clip-path="url(#p4782af11d8)" d="M 444.76486 138.736216 
L 501.422804 138.736216 
L 501.422804 82.109189 
L 444.76486 82.109189 
z
" style="fill:none;stroke:#000000;stroke-linejoin:miter;"/>
   </g>
   <g id="patch_4">
    <path clip-path="url(#p4782af11d8)" d="M 403.766786 98.428906 
L 396.798781 96.529578 
L 397.432236 95.263359 
L 368.224012 80.667216 
L 368.224012 80.667216 
L 397.432236 95.263359 
L 398.065691 93.99714 
z
" style="stroke:#000000;stroke-linejoin:miter;"/>
   </g>
   <g id="patch_5">
    <path clip-path="url(#p4782af11d8)" d="M 403.766786 111.091094 
L 398.065691 115.52286 
L 397.432236 114.256641 
L 368.224012 128.852784 
L 368.224012 128.852784 
L 397.432236 114.256641 
L 396.798781 112.990422 
z
" style="stroke:#000000;stroke-linejoin:miter;"/>
   </g>
   <g id="patch_6">
    <path clip-path="url(#p4782af11d8)" d="M 458.929346 104.76 
L 451.847103 106.175676 
L 451.847103 104.76 
L 430.600374 104.76 
L 430.600374 104.76 
L 451.847103 104.76 
L 451.847103 103.344324 
z
" style="stroke:#000000;stroke-linejoin:miter;"/>
   </g>
   <g id="patch_7">
    <path clip-path="url(#p4782af11d8)" d="M 487.258318 104.76 
L 494.340561 103.344324 
L 494.340561 104.76 
L 515.58729 104.76 
L 515.58729 104.76 
L 494.340561 104.76 
L 494.340561 106.175676 
z
" style="stroke:#000000;stroke-linejoin:miter;"/>
   </g>
   <g id="patch_8">
    <path clip-path="url(#p4782af11d8)" d="M 543.916262 104.76 
L 550.998505 103.344324 
L 550.998505 104.76 
L 572.245234 104.76 
L 572.245234 104.76 
L 550.998505 104.76 
L 550.998505 106.175676 
z
" style="stroke:#000000;stroke-linejoin:miter;"/>
   </g>
   <g id="patch_9">
    <path clip-path="url(#p4782af11d8)" d="M 76.488224 194.419459 
C 77.740379 194.419459 78.941418 193.922244 79.826826 193.03732 
C 80.712233 192.152396 81.20972 190.952012 81.20972 189.700541 
C 81.20972 188.449069 80.712233 187.248685 79.826826 186.363761 
C 78.941418 185.478837 77.740379 184.981622 76.488224 184.981622 
C 75.236069 184.981622 74.03503 185.478837 73.149623 186.363761 
C 72.264216 187.248685 71.766729 188.449069 71.766729 189.700541 
C 71.766729 190.952012 72.264216 192.152396 73.149623 193.03732 
C 74.03503 193.922244 75.236069 194.419459 76.488224 194.419459 
z
" style="stroke:#000000;stroke-linejoin:miter;"/>
   </g>
   <g id="patch_10">
    <path clip-path="url(#p4782af11d8)" d="M 76.488224 137.792432 
C 77.740379 137.792432 78.941418 137.295217 79.826826 136.410293 
C 80.712233 135.525369 81.20972 134.324985 81.20972 133.073514 
C 81.20972 131.822042 80.712233 130.621658 79.826826 129.736734 
C 78.941418 128.85181 77.740379 128.354595 76.488224 128.354595 
C 75.236069 128.354595 74.03503 128.85181 73.149623 129.736734 
C 72.264216 130.621658 71.766729 131.822042 71.766729 133.073514 
C 71.766729 134.324985 72.264216 135.525369 73.149623 136.410293 
C 74.03503 137.295217 75.236069 137.792432 76.488224 137.792432 
z
" style="stroke:#000000;stroke-linejoin:miter;"/>
   </g>
   <g id="patch_11">
    <path clip-path="url(#p4782af11d8)" d="M 76.488224 81.165405 
C 77.740379 81.165405 78.941418 80.66819 79.826826 79.783266 
C 80.712233 78.898342 81.20972 77.697958 81.20972 76.446486 
C 81.20972 75.195015 80.712233 73.994631 79.826826 73.109707 
C 78.941418 72.224783 77.740379 71.727568 76.488224 71.727568 
C 75.236069 71.727568 74.03503 72.224783 73.149623 73.109707 
C 72.264216 73.994631 71.766729 75.195015 71.766729 76.446486 
C 71.766729 77.697958 72.264216 78.898342 73.149623 79.783266 
C 74.03503 80.66819 75.236069 81.165405 76.488224 81.165405 
z
" style="stroke:#000000;stroke-linejoin:miter;"/>
   </g>
   <g id="patch_12">
    <path clip-path="url(#p4782af11d8)" d="M 76.488224 24.538378 
C 77.740379 24.538378 78.941418 24.041163 79.826826 23.156239 
C 80.712233 22.271315 81.20972 21.070931 81.20972 19.819459 
C 81.20972 18.567988 80.712233 17.367604 79.826826 16.48268 
C 78.941418 15.597756 77.740379 15.100541 76.488224 15.100541 
C 75.236069 15.100541 74.03503 15.597756 73.149623 16.48268 
C 72.264216 17.367604 71.766729 18.567988 71.766729 19.819459 
C 71.766729 21.070931 72.264216 22.271315 73.149623 23.156239 
C 74.03503 24.041163 75.236069 24.538378 76.488224 24.538378 
z
" style="stroke:#000000;stroke-linejoin:miter;"/>
   </g>
   <g id="patch_13">
    <path clip-path="url(#p4782af11d8)" d="M 133.146168 194.419459 
C 134.398323 194.419459 135.599362 193.922244 136.48477 193.03732 
C 137.370177 192.152396 137.867664 190.952012 137.867664 189.700541 
C 137.867664 188.449069 137.370177 187.248685 136.48477 186.363761 
C 135.599362 185.478837 134.398323 184.981622 133.146168 184.981622 
C 131.894013 184.981622 130.692974 185.478837 129.807567 186.363761 
C 128.922159 187.248685 128.424673 188.449069 128.424673 189.700541 
C 128.424673 190.952012 128.922159 192.152396 129.807567 193.03732 
C 130.692974 193.922244 131.894013 194.419459 133.146168 194.419459 
z
" style="stroke:#000000;stroke-linejoin:miter;"/>
   </g>
   <g id="patch_14">
    <path clip-path="url(#p4782af11d8)" d="M 133.146168 137.792432 
C 134.398323 137.792432 135.599362 137.295217 136.48477 136.410293 
C 137.370177 135.525369 137.867664 134.324985 137.867664 133.073514 
C 137.867664 131.822042 137.370177 130.621658 136.48477 129.736734 
C 135.599362 128.85181 134.398323 128.354595 133.146168 128.354595 
C 131.894013 128.354595 130.692974 128.85181 129.807567 129.736734 
C 128.922159 130.621658 128.424673 131.822042 128.424673 133.073514 
C 128.424673 134.324985 128.922159 135.525369 129.807567 136.410293 
C 130.692974 137.295217 131.894013 137.792432 133.146168 137.792432 
z
" style="stroke:#000000;stroke-linejoin:miter;"/>
   </g>
   <g id="patch_15">
    <path clip-path="url(#p4782af11d8)" d="M 133.146168 81.165405 
C 134.398323 81.165405 135.599362 80.66819 136.48477 79.783266 
C 137.370177 78.898342 137.867664 77.697958 137.867664 76.446486 
C 137.867664 75.195015 137.370177 73.994631 136.48477 73.109707 
C 135.599362 72.224783 134.398323 71.727568 133.146168 71.727568 
C 131.894013 71.727568 130.692974 72.224783 129.807567 73.109707 
C 128.922159 73.994631 128.424673 75.195015 128.424673 76.446486 
C 128.424673 77.697958 128.922159 78.898342 129.807567 79.783266 
C 130.692974 80.66819 131.894013 81.165405 133.146168 81.165405 
z
" style="stroke:#000000;stroke-linejoin:miter;"/>
   </g>
   <g id="patch_16">
    <path clip-path="url(#p4782af11d8)" d="M 133.146168 24.538378 
C 134.398323 24.538378 135.599362 24.041163 136.48477 23.156239 
C 137.370177 22.271315 137.867664 21.070931 137.867664 19.819459 
C 137.867664 18.567988 137.370177 17.367604 136.48477 16.48268 
C 135.599362 15.597756 134.398323 15.100541 133.146168 15.100541 
C 131.894013 15.100541 130.692974 15.597756 129.807567 16.48268 
C 128.922159 17.367604 128.424673 18.567988 128.424673 19.819459 
C 128.424673 21.070931 128.922159 22.271315 129.807567 23.156239 
C 130.692974 24.041163 131.894013 24.538378 133.146168 24.538378 
z
" style="stroke:#000000;stroke-linejoin:miter;"/>
   </g>
   <g id="patch_17">
    <path clip-path="url(#p4782af11d8)" d="M 189.804112 194.419459 
C 191.056267 194.419459 192.257306 193.922244 193.142714 193.03732 
C 194.028121 192.152396 194.525607 190.952012 194.525607 189.700541 
C 194.525607 188.449069 194.028121 187.248685 193.142714 186.363761 
C 192.257306 185.478837 191.056267 184.981622 189.804112 184.981622 
C 188.551957 184.981622 187.350918 185.478837 186.465511 186.363761 
C 185.580103 187.248685 185.082617 188.449069 185.082617 189.700541 
C 185.082617 190.952012 185.580103 192.152396 186.465511 193.03732 
C 187.350918 193.922244 188.551957 194.419459 189.804112 194.419459 
z
" style="stroke:#000000;stroke-linejoin:miter;"/>
   </g>
   <g id="patch_18">
    <path clip-path="url(#p4782af11d8)" d="M 189.804112 137.792432 
C 191.056267 137.792432 192.257306 137.295217 193.142714 136.410293 
C 194.028121 135.525369 194.525607 134.324985 194.525607 133.073514 
C 194.525607 131.822042 194.028121 130.621658 193.142714 129.736734 
C 192.257306 128.85181 191.056267 128.354595 189.804112 128.354595 
C 188.551957 128.354595 187.350918 128.85181 186.465511 129.736734 
C 185.580103 130.621658 185.082617 131.822042 185.082617 133.073514 
C 185.082617 134.324985 185.580103 135.525369 186.465511 136.410293 
C 187.350918 137.295217 188.551957 137.792432 189.804112 137.792432 
z
" style="stroke:#000000;stroke-linejoin:miter;"/>
   </g>
   <g id="patch_19">
    <path clip-path="url(#p4782af11d8)" d="M 189.804112 81.165405 
C 191.056267 81.165405 192.257306 80.66819 193.142714 79.783266 
C 194.028121 78.898342 194.525607 77.697958 194.525607 76.446486 
C 194.525607 75.195015 194.028121 73.994631 193.142714 73.109707 
C 192.257306 72.224783 191.056267 71.727568 189.804112 71.727568 
C 188.551957 71.727568 187.350918 72.224783 186.465511 73.109707 
C 185.580103 73.994631 185.082617 75.195015 185.082617 76.446486 
C 185.082617 77.697958 185.580103 78.898342 186.465511 79.783266 
C 187.350918 80.66819 188.551957 81.165405 189.804112 81.165405 
z
" style="stroke:#000000;stroke-linejoin:miter;"/>
   </g>
   <g id="patch_20">
    <path clip-path="url(#p4782af11d8)" d="M 189.804112 24.538378 
C 191.056267 24.538378 192.257306 24.041163 193.142714 23.156239 
C 194.028121 22.271315 194.525607 21.070931 194.525607 19.819459 
C 194.525607 18.567988 194.028121 17.367604 193.142714 16.48268 
C 192.257306 15.597756 191.056267 15.100541 189.804112 15.100541 
C 188.551957 15.100541 187.350918 15.597756 186.465511 16.48268 
C 185.580103 17.367604 185.082617 18.567988 185.082617 19.819459 
C 185.082617 21.070931 185.580103 22.271315 186.465511 23.156239 
C 187.350918 24.041163 188.551957 24.538378 189.804112 24.538378 
z
" style="stroke:#000000;stroke-linejoin:miter;"/>
   </g>
   <g id="patch_21">
    <path clip-path="url(#p4782af11d8)" d="M 246.462056 194.419459 
C 247.714211 194.419459 248.91525 193.922244 249.800657 193.03732 
C 250.686065 192.152396 251.183551 190.952012 251.183551 189.700541 
C 251.183551 188.449069 250.686065 187.248685 249.800657 186.363761 
C 248.91525 185.478837 247.714211 184.981622 246.462056 184.981622 
C 245.209901 184.981622 244.008862 185.478837 243.123455 186.363761 
C 242.238047 187.248685 241.740561 188.449069 241.740561 189.700541 
C 241.740561 190.952012 242.238047 192.152396 243.123455 193.03732 
C 244.008862 193.922244 245.209901 194.419459 246.462056 194.419459 
z
" style="stroke:#000000;stroke-linejoin:miter;"/>
   </g>
   <g id="patch_22">
    <path clip-path="url(#p4782af11d8)" d="M 246.462056 137.792432 
C 247.714211 137.792432 248.91525 137.295217 249.800657 136.410293 
C 250.686065 135.525369 251.183551 134.324985 251.183551 133.073514 
C 251.183551 131.822042 250.686065 130.621658 249.800657 129.736734 
C 248.91525 128.85181 247.714211 128.354595 246.462056 128.354595 
C 245.209901 128.354595 244.008862 128.85181 243.123455 129.736734 
C 242.238047 130.621658 241.740561 131.822042 241.740561 133.073514 
C 241.740561 134.324985 242.238047 135.525369 243.123455 136.410293 
C 244.008862 137.295217 245.209901 137.792432 246.462056 137.792432 
z
" style="stroke:#000000;stroke-linejoin:miter;"/>
   </g>
   <g id="patch_23">
    <path clip-path="url(#p4782af11d8)" d="M 246.462056 81.165405 
C 247.714211 81.165405 248.91525 80.66819 249.800657 79.783266 
C 250.686065 78.898342 251.183551 77.697958 251.183551 76.446486 
C 251.183551 75.195015 250.686065 73.994631 249.800657 73.109707 
C 248.91525 72.224783 247.714211 71.727568 246.462056 71.727568 
C 245.209901 71.727568 244.008862 72.224783 243.123455 73.109707 
C 242.238047 73.994631 241.740561 75.195015 241.740561 76.446486 
C 241.740561 77.697958 242.238047 78.898342 243.123455 79.783266 
C 244.008862 80.66819 245.209901 81.165405 246.462056 81.165405 
z
" style="stroke:#000000;stroke-linejoin:miter;"/>
   </g>
   <g id="patch_24">
    <path clip-path="url(#p4782af11d8)" d="M 246.462056 24.538378 
C 247.714211 24.538378 248.91525 24.041163 249.800657 23.156239 
C 250.686065 22.271315 251.183551 21.070931 251.183551 19.819459 
C 251.183551 18.567988 250.686065 17.367604 249.800657 16.48268 
C 248.91525 15.597756 247.714211 15.100541 246.462056 15.100541 
C 245.209901 15.100541 244.008862 15.597756 243.123455 16.48268 
C 242.238047 17.367604 241.740561 18.567988 241.740561 19.819459 
C 241.740561 21.070931 242.238047 22.271315 243.123455 23.156239 
C 244.008862 24.041163 245.209901 24.538378 246.462056 24.538378 
z
" style="stroke:#000000;stroke-linejoin:miter;"/>
   </g>
   <g id="patch_25">
    <path clip-path="url(#p4782af11d8)" d="M 303.12 194.419459 
C 304.372155 194.419459 305.573194 193.922244 306.458601 193.03732 
C 307.344009 192.152396 307.841495 190.952012 307.841495 189.700541 
C 307.841495 188.449069 307.344009 187.248685 306.458601 186.363761 
C 305.573194 185.478837 304.372155 184.981622 303.12 184.981622 
C 301.867845 184.981622 300.666806 185.478837 299.781399 186.363761 
C 298.895991 187.248685 298.398505 188.449069 298.398505 189.700541 
C 298.398505 190.952012 298.895991 192.152396 299.781399 193.03732 
C 300.666806 193.922244 301.867845 194.419459 303.12 194.419459 
z
" style="stroke:#000000;stroke-linejoin:miter;"/>
   </g>
   <g id="patch_26">
    <path clip-path="url(#p4782af11d8)" d="M 303.12 137.792432 
C 304.372155 137.792432 305.573194 137.295217 306.458601 136.410293 
C 307.344009 135.525369 307.841495 134.324985 307.841495 133.073514 
C 307.841495 131.822042 307.344009 130.621658 306.458601 129.736734 
C 305.573194 128.85181 304.372155 128.354595 303.12 128.354595 
C 301.867845 128.354595 300.666806 128.85181 299.781399 129.736734 
C 298.895991 130.621658 298.398505 131.822042 298.398505 133.073514 
C 298.398505 134.324985 298.895991 135.525369 299.781399 136.410293 
C 300.666806 137.295217 301.867845 137.792432 303.12 137.792432 
z
" style="stroke:#000000;stroke-linejoin:miter;"/>
   </g>
   <g id="patch_27">
    <path clip-path="url(#p4782af11d8)" d="M 303.12 81.165405 
C 304.372155 81.165405 305.573194 80.66819 306.458601 79.783266 
C 307.344009 78.898342 307.841495 77.697958 307.841495 76.446486 
C 307.841495 75.195015 307.344009 73.994631 306.458601 73.109707 
C 305.573194 72.224783 304.372155 71.727568 303.12 71.727568 
C 301.867845 71.727568 300.666806 72.224783 299.781399 73.109707 
C 298.895991 73.994631 298.398505 75.195015 298.398505 76.446486 
C 298.398505 77.697958 298.895991 78.898342 299.781399 79.783266 
C 300.666806 80.66819 301.867845 81.165405 303.12 81.165405 
z
" style="stroke:#000000;stroke-linejoin:miter;"/>
   </g>
   <g id="patch_28">
    <path clip-path="url(#p4782af11d8)" d="M 303.12 24.538378 
C 304.372155 24.538378 305.573194 24.041163 306.458601 23.156239 
C 307.344009 22.271315 307.841495 21.070931 307.841495 19.819459 
C 307.841495 18.567988 307.344009 17.367604 306.458601 16.48268 
C 305.573194 15.597756 304.372155 15.100541 303.12 15.100541 
C 301.867845 15.100541 300.666806 15.597756 299.781399 16.48268 
C 298.895991 17.367604 298.398505 18.567988 298.398505 19.819459 
C 298.398505 21.070931 298.895991 22.271315 299.781399 23.156239 
C 300.666806 24.041163 301.867845 24.538378 303.12 24.538378 
z
" style="stroke:#000000;stroke-linejoin:miter;"/>
   </g>
   <g id="patch_29">
    <path clip-path="url(#p4782af11d8)" d="M 19.83028 203.857297 
C 23.586746 203.857297 27.189862 202.365652 29.846084 199.710879 
C 32.502307 197.056106 33.994766 193.454956 33.994766 189.700541 
C 33.994766 185.946125 32.502307 182.344975 29.846084 179.690202 
C 27.189862 177.035429 23.586746 175.543784 19.83028 175.543784 
C 16.073815 175.543784 12.470699 177.035429 9.814476 179.690202 
C 7.158254 182.344975 5.665794 185.946125 5.665794 189.700541 
C 5.665794 193.454956 7.158254 197.056106 9.814476 199.710879 
C 12.470699 202.365652 16.073815 203.857297 19.83028 203.857297 
z
" style="fill:#b2b2b2;stroke:#000000;stroke-linejoin:miter;"/>
   </g>
   <g id="patch_30">
    <path clip-path="url(#p4782af11d8)" d="M 19.83028 203.857297 
C 23.586746 203.857297 27.189862 202.365652 29.846084 199.710879 
C 32.502307 197.056106 33.994766 193.454956 33.994766 189.700541 
C 33.994766 185.946125 32.502307 182.344975 29.846084 179.690202 
C 27.189862 177.035429 23.586746 175.543784 19.83028 175.543784 
C 16.073815 175.543784 12.470699 177.035429 9.814476 179.690202 
C 7.158254 182.344975 5.665794 185.946125 5.665794 189.700541 
C 5.665794 193.454956 7.158254 197.056106 9.814476 199.710879 
C 12.470699 202.365652 16.073815 203.857297 19.83028 203.857297 
z
" style="fill:none;stroke:#000000;stroke-linejoin:miter;"/>
   </g>
   <g id="patch_31">
    <path clip-path="url(#p4782af11d8)" d="M 19.83028 147.23027 
C 23.586746 147.23027 27.189862 145.738625 29.846084 143.083852 
C 32.502307 140.429079 33.994766 136.827929 33.994766 133.073514 
C 33.994766 129.319098 32.502307 125.717948 29.846084 123.063175 
C 27.189862 120.408402 23.586746 118.916757 19.83028 118.916757 
C 16.073815 118.916757 12.470699 120.408402 9.814476 123.063175 
C 7.158254 125.717948 5.665794 129.319098 5.665794 133.073514 
C 5.665794 136.827929 7.158254 140.429079 9.814476 143.083852 
C 12.470699 145.738625 16.073815 147.23027 19.83028 147.23027 
z
" style="fill:#b2b2b2;stroke:#000000;stroke-linejoin:miter;"/>
   </g>
   <g id="patch_32">
    <path clip-path="url(#p4782af11d8)" d="M 19.83028 147.23027 
C 23.586746 147.23027 27.189862 145.738625 29.846084 143.083852 
C 32.502307 140.429079 33.994766 136.827929 33.994766 133.073514 
C 33.994766 129.319098 32.502307 125.717948 29.846084 123.063175 
C 27.189862 120.408402 23.586746 118.916757 19.83028 118.916757 
C 16.073815 118.916757 12.470699 120.408402 9.814476 123.063175 
C 7.158254 125.717948 5.665794 129.319098 5.665794 133.073514 
C 5.665794 136.827929 7.158254 140.429079 9.814476 143.083852 
C 12.470699 145.738625 16.073815 147.23027 19.83028 147.23027 
z
" style="fill:none;stroke:#000000;stroke-linejoin:miter;"/>
   </g>
   <g id="patch_33">
    <path clip-path="url(#p4782af11d8)" d="M 19.83028 90.603243 
C 23.586746 90.603243 27.189862 89.111598 29.846084 86.456825 
C 32.502307 83.802052 33.994766 80.200902 33.994766 76.446486 
C 33.994766 72.692071 32.502307 69.090921 29.846084 66.436148 
C 27.189862 63.781375 23.586746 62.28973 19.83028 62.28973 
C 16.073815 62.28973 12.470699 63.781375 9.814476 66.436148 
C 7.158254 69.090921 5.665794 72.692071 5.665794 76.446486 
C 5.665794 80.200902 7.158254 83.802052 9.814476 86.456825 
C 12.470699 89.111598 16.073815 90.603243 19.83028 90.603243 
z
" style="fill:#b2b2b2;stroke:#000000;stroke-linejoin:miter;"/>
   </g>
   <g id="patch_34">
    <path clip-path="url(#p4782af11d8)" d="M 19.83028 90.603243 
C 23.586746 90.603243 27.189862 89.111598 29.846084 86.456825 
C 32.502307 83.802052 33.994766 80.200902 33.994766 76.446486 
C 33.994766 72.692071 32.502307 69.090921 29.846084 66.436148 
C 27.189862 63.781375 23.586746 62.28973 19.83028 62.28973 
C 16.073815 62.28973 12.470699 63.781375 9.814476 66.436148 
C 7.158254 69.090921 5.665794 72.692071 5.665794 76.446486 
C 5.665794 80.200902 7.158254 83.802052 9.814476 86.456825 
C 12.470699 89.111598 16.073815 90.603243 19.83028 90.603243 
z
" style="fill:none;stroke:#000000;stroke-linejoin:miter;"/>
   </g>
   <g id="patch_35">
    <path clip-path="url(#p4782af11d8)" d="M 19.83028 33.976216 
C 23.586746 33.976216 27.189862 32.484571 29.846084 29.829798 
C 32.502307 27.175025 33.994766 23.573875 33.994766 19.819459 
C 33.994766 16.065044 32.502307 12.463894 29.846084 9.809121 
C 27.189862 7.154348 23.586746 5.662703 19.83028 5.662703 
C 16.073815 5.662703 12.470699 7.154348 9.814476 9.809121 
C 7.158254 12.463894 5.665794 16.065044 5.665794 19.819459 
C 5.665794 23.573875 7.158254 27.175025 9.814476 29.829798 
C 12.470699 32.484571 16.073815 33.976216 19.83028 33.976216 
z
" style="fill:#b2b2b2;stroke:#000000;stroke-linejoin:miter;"/>
   </g>
   <g id="patch_36">
    <path clip-path="url(#p4782af11d8)" d="M 19.83028 33.976216 
C 23.586746 33.976216 27.189862 32.484571 29.846084 29.829798 
C 32.502307 27.175025 33.994766 23.573875 33.994766 19.819459 
C 33.994766 16.065044 32.502307 12.463894 29.846084 9.809121 
C 27.189862 7.154348 23.586746 5.662703 19.83028 5.662703 
C 16.073815 5.662703 12.470699 7.154348 9.814476 9.809121 
C 7.158254 12.463894 5.665794 16.065044 5.665794 19.819459 
C 5.665794 23.573875 7.158254 27.175025 9.814476 29.829798 
C 12.470699 32.484571 16.073815 33.976216 19.83028 33.976216 
z
" style="fill:none;stroke:#000000;stroke-linejoin:miter;"/>
   </g>
   <g id="patch_37">
    <path clip-path="url(#p4782af11d8)" d="M 359.777944 85.884324 
C 362.282254 85.884324 364.684332 84.889894 366.455147 83.120046 
C 368.225962 81.350197 369.220935 78.94943 369.220935 76.446486 
C 369.220935 73.943543 368.225962 71.542776 366.455147 69.772927 
C 364.684332 68.003079 362.282254 67.008649 359.777944 67.008649 
C 357.273634 67.008649 354.871556 68.003079 353.100741 69.772927 
C 351.329926 71.542776 350.334953 73.943543 350.334953 76.446486 
C 350.334953 78.94943 351.329926 81.350197 353.100741 83.120046 
C 354.871556 84.889894 357.273634 85.884324 359.777944 85.884324 
z
" style="stroke:#000000;stroke-linejoin:miter;"/>
   </g>
   <g id="patch_38">
    <path clip-path="url(#p4782af11d8)" d="M 359.777944 142.511351 
C 362.282254 142.511351 364.684332 141.516921 366.455147 139.747073 
C 368.225962 137.977224 369.220935 135.576457 369.220935 133.073514 
C 369.220935 130.57057 368.225962 128.169803 366.455147 126.399954 
C 364.684332 124.630106 362.282254 123.635676 359.777944 123.635676 
C 357.273634 123.635676 354.871556 124.630106 353.100741 126.399954 
C 351.329926 128.169803 350.334953 130.57057 350.334953 133.073514 
C 350.334953 135.576457 351.329926 137.977224 353.100741 139.747073 
C 354.871556 141.516921 357.273634 142.511351 359.777944 142.511351 
z
" style="stroke:#000000;stroke-linejoin:miter;"/>
   </g>
   <g id="patch_39">
    <path clip-path="url(#p4782af11d8)" d="M 416.435888 118.916757 
C 420.192353 118.916757 423.79547 117.425112 426.451692 114.770339 
C 429.107914 112.115566 430.600374 108.514416 430.600374 104.76 
C 430.600374 101.005584 429.107914 97.404434 426.451692 94.749661 
C 423.79547 92.094888 420.192353 90.603243 416.435888 90.603243 
C 412.679422 90.603243 409.076306 92.094888 406.420084 94.749661 
C 403.763861 97.404434 402.271402 101.005584 402.271402 104.76 
C 402.271402 108.514416 403.763861 112.115566 406.420084 114.770339 
C 409.076306 117.425112 412.679422 118.916757 416.435888 118.916757 
z
" style="fill:none;stroke:#000000;stroke-linejoin:miter;"/>
   </g>
   <g id="patch_40">
    <path clip-path="url(#p4782af11d8)" d="M 473.093832 118.916757 
C 476.850297 118.916757 480.453414 117.425112 483.109636 114.770339 
C 485.765858 112.115566 487.258318 108.514416 487.258318 104.76 
C 487.258318 101.005584 485.765858 97.404434 483.109636 94.749661 
C 480.453414 92.094888 476.850297 90.603243 473.093832 90.603243 
C 469.337366 90.603243 465.73425 92.094888 463.078028 94.749661 
C 460.421805 97.404434 458.929346 101.005584 458.929346 104.76 
C 458.929346 108.514416 460.421805 112.115566 463.078028 114.770339 
C 465.73425 117.425112 469.337366 118.916757 473.093832 118.916757 
z
" style="fill:#b2b2b2;stroke:#000000;stroke-linejoin:miter;"/>
   </g>
   <g id="patch_41">
    <path clip-path="url(#p4782af11d8)" d="M 473.093832 118.916757 
C 476.850297 118.916757 480.453414 117.425112 483.109636 114.770339 
C 485.765858 112.115566 487.258318 108.514416 487.258318 104.76 
C 487.258318 101.005584 485.765858 97.404434 483.109636 94.749661 
C 480.453414 92.094888 476.850297 90.603243 473.093832 90.603243 
C 469.337366 90.603243 465.73425 92.094888 463.078028 94.749661 
C 460.421805 97.404434 458.929346 101.005584 458.929346 104.76 
C 458.929346 108.514416 460.421805 112.115566 463.078028 114.770339 
C 465.73425 117.425112 469.337366 118.916757 473.093832 118.916757 
z
" style="fill:none;stroke:#000000;stroke-linejoin:miter;"/>
   </g>
   <g id="patch_42">
    <path clip-path="url(#p4782af11d8)" d="M 529.751776 118.916757 
C 533.508241 118.916757 537.111357 117.425112 539.76758 114.770339 
C 542.423802 112.115566 543.916262 108.514416 543.916262 104.76 
C 543.916262 101.005584 542.423802 97.404434 539.76758 94.749661 
C 537.111357 92.094888 533.508241 90.603243 529.751776 90.603243 
C 525.99531 90.603243 522.392194 92.094888 519.735972 94.749661 
C 517.079749 97.404434 515.58729 101.005584 515.58729 104.76 
C 515.58729 108.514416 517.079749 112.115566 519.735972 114.770339 
C 522.392194 117.425112 525.99531 118.916757 529.751776 118.916757 
z
" style="fill:none;stroke:#000000;stroke-linejoin:miter;"/>
   </g>
   <g id="patch_43">
    <path clip-path="url(#p4782af11d8)" d="M 586.40972 118.916757 
C 590.166185 118.916757 593.769301 117.425112 596.425524 114.770339 
C 599.081746 112.115566 600.574206 108.514416 600.574206 104.76 
C 600.574206 101.005584 599.081746 97.404434 596.425524 94.749661 
C 593.769301 92.094888 590.166185 90.603243 586.40972 90.603243 
C 582.653254 90.603243 579.050138 92.094888 576.393916 94.749661 
C 573.737693 97.404434 572.245234 101.005584 572.245234 104.76 
C 572.245234 108.514416 573.737693 112.115566 576.393916 114.770339 
C 579.050138 117.425112 582.653254 118.916757 586.40972 118.916757 
z
" style="fill:none;stroke:#000000;stroke-linejoin:miter;"/>
   </g>
   <g id="matplotlib.axis_1"/>
   <g id="matplotlib.axis_2"/>
   <g id="line2d_1">
    <path clip-path="url(#p4782af11d8)" d="M 81.20972 189.700541 
L 128.424673 189.700541 
" style="fill:none;stroke:#000000;stroke-linecap:square;"/>
   </g>
   <g id="line2d_2">
    <path clip-path="url(#p4782af11d8)" d="M 79.826826 136.410293 
L 129.807567 186.363761 
" style="fill:none;stroke:#000000;stroke-linecap:square;"/>
   </g>
   <g id="line2d_3">
    <path clip-path="url(#p4782af11d8)" d="M 78.599741 80.667216 
L 131.034651 185.479811 
" style="fill:none;stroke:#000000;stroke-linecap:square;"/>
   </g>
   <g id="line2d_4">
    <path clip-path="url(#p4782af11d8)" d="M 77.981292 24.296219 
L 131.6531 185.223781 
" style="fill:none;stroke:#000000;stroke-linecap:square;"/>
   </g>
   <g id="line2d_5">
    <path clip-path="url(#p4782af11d8)" d="M 79.826826 186.363761 
L 129.807567 136.410293 
" style="fill:none;stroke:#000000;stroke-linecap:square;"/>
   </g>
   <g id="line2d_6">
    <path clip-path="url(#p4782af11d8)" d="M 81.20972 133.073514 
L 128.424673 133.073514 
" style="fill:none;stroke:#000000;stroke-linecap:square;"/>
   </g>
   <g id="line2d_7">
    <path clip-path="url(#p4782af11d8)" d="M 79.826826 79.783266 
L 129.807567 129.736734 
" style="fill:none;stroke:#000000;stroke-linecap:square;"/>
   </g>
   <g id="line2d_8">
    <path clip-path="url(#p4782af11d8)" d="M 78.599741 24.040189 
L 131.034651 128.852784 
" style="fill:none;stroke:#000000;stroke-linecap:square;"/>
   </g>
   <g id="line2d_9">
    <path clip-path="url(#p4782af11d8)" d="M 78.599741 185.479811 
L 131.034651 80.667216 
" style="fill:none;stroke:#000000;stroke-linecap:square;"/>
   </g>
   <g id="line2d_10">
    <path clip-path="url(#p4782af11d8)" d="M 79.826826 129.736734 
L 129.807567 79.783266 
" style="fill:none;stroke:#000000;stroke-linecap:square;"/>
   </g>
   <g id="line2d_11">
    <path clip-path="url(#p4782af11d8)" d="M 81.20972 76.446486 
L 128.424673 76.446486 
" style="fill:none;stroke:#000000;stroke-linecap:square;"/>
   </g>
   <g id="line2d_12">
    <path clip-path="url(#p4782af11d8)" d="M 79.826826 23.156239 
L 129.807567 73.109707 
" style="fill:none;stroke:#000000;stroke-linecap:square;"/>
   </g>
   <g id="line2d_13">
    <path clip-path="url(#p4782af11d8)" d="M 77.981292 185.223781 
L 131.6531 24.296219 
" style="fill:none;stroke:#000000;stroke-linecap:square;"/>
   </g>
   <g id="line2d_14">
    <path clip-path="url(#p4782af11d8)" d="M 78.599741 128.852784 
L 131.034651 24.040189 
" style="fill:none;stroke:#000000;stroke-linecap:square;"/>
   </g>
   <g id="line2d_15">
    <path clip-path="url(#p4782af11d8)" d="M 79.826826 73.109707 
L 129.807567 23.156239 
" style="fill:none;stroke:#000000;stroke-linecap:square;"/>
   </g>
   <g id="line2d_16">
    <path clip-path="url(#p4782af11d8)" d="M 81.20972 19.819459 
L 128.424673 19.819459 
" style="fill:none;stroke:#000000;stroke-linecap:square;"/>
   </g>
   <g id="line2d_17">
    <path clip-path="url(#p4782af11d8)" d="M 137.867664 189.700541 
L 185.082617 189.700541 
" style="fill:none;stroke:#000000;stroke-linecap:square;"/>
   </g>
   <g id="line2d_18">
    <path clip-path="url(#p4782af11d8)" d="M 136.48477 136.410293 
L 186.465511 186.363761 
" style="fill:none;stroke:#000000;stroke-linecap:square;"/>
   </g>
   <g id="line2d_19">
    <path clip-path="url(#p4782af11d8)" d="M 135.257685 80.667216 
L 187.692595 185.479811 
" style="fill:none;stroke:#000000;stroke-linecap:square;"/>
   </g>
   <g id="line2d_20">
    <path clip-path="url(#p4782af11d8)" d="M 134.639236 24.296219 
L 188.311044 185.223781 
" style="fill:none;stroke:#000000;stroke-linecap:square;"/>
   </g>
   <g id="line2d_21">
    <path clip-path="url(#p4782af11d8)" d="M 136.48477 186.363761 
L 186.465511 136.410293 
" style="fill:none;stroke:#000000;stroke-linecap:square;"/>
   </g>
   <g id="line2d_22">
    <path clip-path="url(#p4782af11d8)" d="M 137.867664 133.073514 
L 185.082617 133.073514 
" style="fill:none;stroke:#000000;stroke-linecap:square;"/>
   </g>
   <g id="line2d_23">
    <path clip-path="url(#p4782af11d8)" d="M 136.48477 79.783266 
L 186.465511 129.736734 
" style="fill:none;stroke:#000000;stroke-linecap:square;"/>
   </g>
   <g id="line2d_24">
    <path clip-path="url(#p4782af11d8)" d="M 135.257685 24.040189 
L 187.692595 128.852784 
" style="fill:none;stroke:#000000;stroke-linecap:square;"/>
   </g>
   <g id="line2d_25">
    <path clip-path="url(#p4782af11d8)" d="M 135.257685 185.479811 
L 187.692595 80.667216 
" style="fill:none;stroke:#000000;stroke-linecap:square;"/>
   </g>
   <g id="line2d_26">
    <path clip-path="url(#p4782af11d8)" d="M 136.48477 129.736734 
L 186.465511 79.783266 
" style="fill:none;stroke:#000000;stroke-linecap:square;"/>
   </g>
   <g id="line2d_27">
    <path clip-path="url(#p4782af11d8)" d="M 137.867664 76.446486 
L 185.082617 76.446486 
" style="fill:none;stroke:#000000;stroke-linecap:square;"/>
   </g>
   <g id="line2d_28">
    <path clip-path="url(#p4782af11d8)" d="M 136.48477 23.156239 
L 186.465511 73.109707 
" style="fill:none;stroke:#000000;stroke-linecap:square;"/>
   </g>
   <g id="line2d_29">
    <path clip-path="url(#p4782af11d8)" d="M 134.639236 185.223781 
L 188.311044 24.296219 
" style="fill:none;stroke:#000000;stroke-linecap:square;"/>
   </g>
   <g id="line2d_30">
    <path clip-path="url(#p4782af11d8)" d="M 135.257685 128.852784 
L 187.692595 24.040189 
" style="fill:none;stroke:#000000;stroke-linecap:square;"/>
   </g>
   <g id="line2d_31">
    <path clip-path="url(#p4782af11d8)" d="M 136.48477 73.109707 
L 186.465511 23.156239 
" style="fill:none;stroke:#000000;stroke-linecap:square;"/>
   </g>
   <g id="line2d_32">
    <path clip-path="url(#p4782af11d8)" d="M 137.867664 19.819459 
L 185.082617 19.819459 
" style="fill:none;stroke:#000000;stroke-linecap:square;"/>
   </g>
   <g id="line2d_33">
    <path clip-path="url(#p4782af11d8)" d="M 194.525607 189.700541 
L 241.740561 189.700541 
" style="fill:none;stroke:#000000;stroke-linecap:square;"/>
   </g>
   <g id="line2d_34">
    <path clip-path="url(#p4782af11d8)" d="M 193.142714 136.410293 
L 243.123455 186.363761 
" style="fill:none;stroke:#000000;stroke-linecap:square;"/>
   </g>
   <g id="line2d_35">
    <path clip-path="url(#p4782af11d8)" d="M 191.915629 80.667216 
L 244.350539 185.479811 
" style="fill:none;stroke:#000000;stroke-linecap:square;"/>
   </g>
   <g id="line2d_36">
    <path clip-path="url(#p4782af11d8)" d="M 191.29718 24.296219 
L 244.968988 185.223781 
" style="fill:none;stroke:#000000;stroke-linecap:square;"/>
   </g>
   <g id="line2d_37">
    <path clip-path="url(#p4782af11d8)" d="M 193.142714 186.363761 
L 243.123455 136.410293 
" style="fill:none;stroke:#000000;stroke-linecap:square;"/>
   </g>
   <g id="line2d_38">
    <path clip-path="url(#p4782af11d8)" d="M 194.525607 133.073514 
L 241.740561 133.073514 
" style="fill:none;stroke:#000000;stroke-linecap:square;"/>
   </g>
   <g id="line2d_39">
    <path clip-path="url(#p4782af11d8)" d="M 193.142714 79.783266 
L 243.123455 129.736734 
" style="fill:none;stroke:#000000;stroke-linecap:square;"/>
   </g>
   <g id="line2d_40">
    <path clip-path="url(#p4782af11d8)" d="M 191.915629 24.040189 
L 244.350539 128.852784 
" style="fill:none;stroke:#000000;stroke-linecap:square;"/>
   </g>
   <g id="line2d_41">
    <path clip-path="url(#p4782af11d8)" d="M 191.915629 185.479811 
L 244.350539 80.667216 
" style="fill:none;stroke:#000000;stroke-linecap:square;"/>
   </g>
   <g id="line2d_42">
    <path clip-path="url(#p4782af11d8)" d="M 193.142714 129.736734 
L 243.123455 79.783266 
" style="fill:none;stroke:#000000;stroke-linecap:square;"/>
   </g>
   <g id="line2d_43">
    <path clip-path="url(#p4782af11d8)" d="M 194.525607 76.446486 
L 241.740561 76.446486 
" style="fill:none;stroke:#000000;stroke-linecap:square;"/>
   </g>
   <g id="line2d_44">
    <path clip-path="url(#p4782af11d8)" d="M 193.142714 23.156239 
L 243.123455 73.109707 
" style="fill:none;stroke:#000000;stroke-linecap:square;"/>
   </g>
   <g id="line2d_45">
    <path clip-path="url(#p4782af11d8)" d="M 191.29718 185.223781 
L 244.968988 24.296219 
" style="fill:none;stroke:#000000;stroke-linecap:square;"/>
   </g>
   <g id="line2d_46">
    <path clip-path="url(#p4782af11d8)" d="M 191.915629 128.852784 
L 244.350539 24.040189 
" style="fill:none;stroke:#000000;stroke-linecap:square;"/>
   </g>
   <g id="line2d_47">
    <path clip-path="url(#p4782af11d8)" d="M 193.142714 73.109707 
L 243.123455 23.156239 
" style="fill:none;stroke:#000000;stroke-linecap:square;"/>
   </g>
   <g id="line2d_48">
    <path clip-path="url(#p4782af11d8)" d="M 194.525607 19.819459 
L 241.740561 19.819459 
" style="fill:none;stroke:#000000;stroke-linecap:square;"/>
   </g>
   <g id="line2d_49">
    <path clip-path="url(#p4782af11d8)" d="M 251.183551 189.700541 
L 298.398505 189.700541 
" style="fill:none;stroke:#000000;stroke-linecap:square;"/>
   </g>
   <g id="line2d_50">
    <path clip-path="url(#p4782af11d8)" d="M 249.800657 136.410293 
L 299.781399 186.363761 
" style="fill:none;stroke:#000000;stroke-linecap:square;"/>
   </g>
   <g id="line2d_51">
    <path clip-path="url(#p4782af11d8)" d="M 248.573573 80.667216 
L 301.008483 185.479811 
" style="fill:none;stroke:#000000;stroke-linecap:square;"/>
   </g>
   <g id="line2d_52">
    <path clip-path="url(#p4782af11d8)" d="M 247.955124 24.296219 
L 301.626932 185.223781 
" style="fill:none;stroke:#000000;stroke-linecap:square;"/>
   </g>
   <g id="line2d_53">
    <path clip-path="url(#p4782af11d8)" d="M 249.800657 186.363761 
L 299.781399 136.410293 
" style="fill:none;stroke:#000000;stroke-linecap:square;"/>
   </g>
   <g id="line2d_54">
    <path clip-path="url(#p4782af11d8)" d="M 251.183551 133.073514 
L 298.398505 133.073514 
" style="fill:none;stroke:#000000;stroke-linecap:square;"/>
   </g>
   <g id="line2d_55">
    <path clip-path="url(#p4782af11d8)" d="M 249.800657 79.783266 
L 299.781399 129.736734 
" style="fill:none;stroke:#000000;stroke-linecap:square;"/>
   </g>
   <g id="line2d_56">
    <path clip-path="url(#p4782af11d8)" d="M 248.573573 24.040189 
L 301.008483 128.852784 
" style="fill:none;stroke:#000000;stroke-linecap:square;"/>
   </g>
   <g id="line2d_57">
    <path clip-path="url(#p4782af11d8)" d="M 248.573573 185.479811 
L 301.008483 80.667216 
" style="fill:none;stroke:#000000;stroke-linecap:square;"/>
   </g>
   <g id="line2d_58">
    <path clip-path="url(#p4782af11d8)" d="M 249.800657 129.736734 
L 299.781399 79.783266 
" style="fill:none;stroke:#000000;stroke-linecap:square;"/>
   </g>
   <g id="line2d_59">
    <path clip-path="url(#p4782af11d8)" d="M 251.183551 76.446486 
L 298.398505 76.446486 
" style="fill:none;stroke:#000000;stroke-linecap:square;"/>
   </g>
   <g id="line2d_60">
    <path clip-path="url(#p4782af11d8)" d="M 249.800657 23.156239 
L 299.781399 73.109707 
" style="fill:none;stroke:#000000;stroke-linecap:square;"/>
   </g>
   <g id="line2d_61">
    <path clip-path="url(#p4782af11d8)" d="M 247.955124 185.223781 
L 301.626932 24.296219 
" style="fill:none;stroke:#000000;stroke-linecap:square;"/>
   </g>
   <g id="line2d_62">
    <path clip-path="url(#p4782af11d8)" d="M 248.573573 128.852784 
L 301.008483 24.040189 
" style="fill:none;stroke:#000000;stroke-linecap:square;"/>
   </g>
   <g id="line2d_63">
    <path clip-path="url(#p4782af11d8)" d="M 249.800657 73.109707 
L 299.781399 23.156239 
" style="fill:none;stroke:#000000;stroke-linecap:square;"/>
   </g>
   <g id="line2d_64">
    <path clip-path="url(#p4782af11d8)" d="M 251.183551 19.819459 
L 298.398505 19.819459 
" style="fill:none;stroke:#000000;stroke-linecap:square;"/>
   </g>
   <g id="line2d_65">
    <path clip-path="url(#p4782af11d8)" d="M 33.994766 189.700541 
L 71.766729 189.700541 
" style="fill:none;stroke:#000000;stroke-linecap:square;"/>
   </g>
   <g id="line2d_66">
    <path clip-path="url(#p4782af11d8)" d="M 33.994766 133.073514 
L 71.766729 133.073514 
" style="fill:none;stroke:#000000;stroke-linecap:square;"/>
   </g>
   <g id="line2d_67">
    <path clip-path="url(#p4782af11d8)" d="M 33.994766 76.446486 
L 71.766729 76.446486 
" style="fill:none;stroke:#000000;stroke-linecap:square;"/>
   </g>
   <g id="line2d_68">
    <path clip-path="url(#p4782af11d8)" d="M 33.994766 19.819459 
L 71.766729 19.819459 
" style="fill:none;stroke:#000000;stroke-linecap:square;"/>
   </g>
   <g id="line2d_69">
    <path clip-path="url(#p4782af11d8)" d="M 305.231517 185.479811 
L 355.55491 84.887945 
" style="fill:none;stroke:#000000;stroke-linecap:square;"/>
   </g>
   <g id="line2d_70">
    <path clip-path="url(#p4782af11d8)" d="M 306.458601 186.363761 
L 353.100741 139.747073 
" style="fill:none;stroke:#000000;stroke-linecap:square;"/>
   </g>
   <g id="line2d_71">
    <path clip-path="url(#p4782af11d8)" d="M 306.458601 129.736734 
L 353.100741 83.120046 
" style="fill:none;stroke:#000000;stroke-linecap:square;"/>
   </g>
   <g id="line2d_72">
    <path clip-path="url(#p4782af11d8)" d="M 307.841495 133.073514 
L 350.334953 133.073514 
" style="fill:none;stroke:#000000;stroke-linecap:square;"/>
   </g>
   <g id="line2d_73">
    <path clip-path="url(#p4782af11d8)" d="M 307.841495 76.446486 
L 350.334953 76.446486 
" style="fill:none;stroke:#000000;stroke-linecap:square;"/>
   </g>
   <g id="line2d_74">
    <path clip-path="url(#p4782af11d8)" d="M 306.458601 79.783266 
L 353.100741 126.399954 
" style="fill:none;stroke:#000000;stroke-linecap:square;"/>
   </g>
   <g id="line2d_75">
    <path clip-path="url(#p4782af11d8)" d="M 306.458601 23.156239 
L 353.100741 69.772927 
" style="fill:none;stroke:#000000;stroke-linecap:square;"/>
   </g>
   <g id="line2d_76">
    <path clip-path="url(#p4782af11d8)" d="M 305.231517 24.040189 
L 355.55491 124.632055 
" style="fill:none;stroke:#000000;stroke-linecap:square;"/>
   </g>
   <g id="text_1">
    <!-- miller index $h$ -->
    <g transform="translate(441.266168 165.632745)scale(0.1 -0.1)">
     <defs>
      <path d="M 52 44.1875 
Q 55.375 50.25 60.0625 53.125 
Q 64.75 56 71.09375 56 
Q 79.640625 56 84.28125 50.015625 
Q 88.921875 44.046875 88.921875 33.015625 
L 88.921875 0 
L 79.890625 0 
L 79.890625 32.71875 
Q 79.890625 40.578125 77.09375 44.375 
Q 74.3125 48.1875 68.609375 48.1875 
Q 61.625 48.1875 57.5625 43.546875 
Q 53.515625 38.921875 53.515625 30.90625 
L 53.515625 0 
L 44.484375 0 
L 44.484375 32.71875 
Q 44.484375 40.625 41.703125 44.40625 
Q 38.921875 48.1875 33.109375 48.1875 
Q 26.21875 48.1875 22.15625 43.53125 
Q 18.109375 38.875 18.109375 30.90625 
L 18.109375 0 
L 9.078125 0 
L 9.078125 54.6875 
L 18.109375 54.6875 
L 18.109375 46.1875 
Q 21.1875 51.21875 25.484375 53.609375 
Q 29.78125 56 35.6875 56 
Q 41.65625 56 45.828125 52.96875 
Q 50 49.953125 52 44.1875 
z
" id="DejaVuSans-109"/>
      <path d="M 9.421875 54.6875 
L 18.40625 54.6875 
L 18.40625 0 
L 9.421875 0 
z
M 9.421875 75.984375 
L 18.40625 75.984375 
L 18.40625 64.59375 
L 9.421875 64.59375 
z
" id="DejaVuSans-105"/>
      <path d="M 9.421875 75.984375 
L 18.40625 75.984375 
L 18.40625 0 
L 9.421875 0 
z
" id="DejaVuSans-108"/>
      <path d="M 56.203125 29.59375 
L 56.203125 25.203125 
L 14.890625 25.203125 
Q 15.484375 15.921875 20.484375 11.0625 
Q 25.484375 6.203125 34.421875 6.203125 
Q 39.59375 6.203125 44.453125 7.46875 
Q 49.3125 8.734375 54.109375 11.28125 
L 54.109375 2.78125 
Q 49.265625 0.734375 44.1875 -0.34375 
Q 39.109375 -1.421875 33.890625 -1.421875 
Q 20.796875 -1.421875 13.15625 6.1875 
Q 5.515625 13.8125 5.515625 26.8125 
Q 5.515625 40.234375 12.765625 48.109375 
Q 20.015625 56 32.328125 56 
Q 43.359375 56 49.78125 48.890625 
Q 56.203125 41.796875 56.203125 29.59375 
z
M 47.21875 32.234375 
Q 47.125 39.59375 43.09375 43.984375 
Q 39.0625 48.390625 32.421875 48.390625 
Q 24.90625 48.390625 20.390625 44.140625 
Q 15.875 39.890625 15.1875 32.171875 
z
" id="DejaVuSans-101"/>
      <path d="M 41.109375 46.296875 
Q 39.59375 47.171875 37.8125 47.578125 
Q 36.03125 48 33.890625 48 
Q 26.265625 48 22.1875 43.046875 
Q 18.109375 38.09375 18.109375 28.8125 
L 18.109375 0 
L 9.078125 0 
L 9.078125 54.6875 
L 18.109375 54.6875 
L 18.109375 46.1875 
Q 20.953125 51.171875 25.484375 53.578125 
Q 30.03125 56 36.53125 56 
Q 37.453125 56 38.578125 55.875 
Q 39.703125 55.765625 41.0625 55.515625 
z
" id="DejaVuSans-114"/>
      <path id="DejaVuSans-32"/>
      <path d="M 54.890625 33.015625 
L 54.890625 0 
L 45.90625 0 
L 45.90625 32.71875 
Q 45.90625 40.484375 42.875 44.328125 
Q 39.84375 48.1875 33.796875 48.1875 
Q 26.515625 48.1875 22.3125 43.546875 
Q 18.109375 38.921875 18.109375 30.90625 
L 18.109375 0 
L 9.078125 0 
L 9.078125 54.6875 
L 18.109375 54.6875 
L 18.109375 46.1875 
Q 21.34375 51.125 25.703125 53.5625 
Q 30.078125 56 35.796875 56 
Q 45.21875 56 50.046875 50.171875 
Q 54.890625 44.34375 54.890625 33.015625 
z
" id="DejaVuSans-110"/>
      <path d="M 45.40625 46.390625 
L 45.40625 75.984375 
L 54.390625 75.984375 
L 54.390625 0 
L 45.40625 0 
L 45.40625 8.203125 
Q 42.578125 3.328125 38.25 0.953125 
Q 33.9375 -1.421875 27.875 -1.421875 
Q 17.96875 -1.421875 11.734375 6.484375 
Q 5.515625 14.40625 5.515625 27.296875 
Q 5.515625 40.1875 11.734375 48.09375 
Q 17.96875 56 27.875 56 
Q 33.9375 56 38.25 53.625 
Q 42.578125 51.265625 45.40625 46.390625 
z
M 14.796875 27.296875 
Q 14.796875 17.390625 18.875 11.75 
Q 22.953125 6.109375 30.078125 6.109375 
Q 37.203125 6.109375 41.296875 11.75 
Q 45.40625 17.390625 45.40625 27.296875 
Q 45.40625 37.203125 41.296875 42.84375 
Q 37.203125 48.484375 30.078125 48.484375 
Q 22.953125 48.484375 18.875 42.84375 
Q 14.796875 37.203125 14.796875 27.296875 
z
" id="DejaVuSans-100"/>
      <path d="M 54.890625 54.6875 
L 35.109375 28.078125 
L 55.90625 0 
L 45.3125 0 
L 29.390625 21.484375 
L 13.484375 0 
L 2.875 0 
L 24.125 28.609375 
L 4.6875 54.6875 
L 15.28125 54.6875 
L 29.78125 35.203125 
L 44.28125 54.6875 
z
" id="DejaVuSans-120"/>
      <path d="M 55.71875 33.015625 
L 49.3125 0 
L 40.28125 0 
L 46.6875 32.671875 
Q 47.125 34.96875 47.359375 36.71875 
Q 47.609375 38.484375 47.609375 39.5 
Q 47.609375 43.609375 45.015625 45.890625 
Q 42.4375 48.1875 37.796875 48.1875 
Q 30.5625 48.1875 25.265625 43.296875 
Q 19.96875 38.421875 18.40625 30.328125 
L 12.5 0 
L 3.515625 0 
L 18.3125 75.984375 
L 27.296875 75.984375 
L 21.484375 46.09375 
Q 24.90625 50.6875 30.21875 53.34375 
Q 35.546875 56 41.40625 56 
Q 48.640625 56 52.609375 52.09375 
Q 56.59375 48.1875 56.59375 41.109375 
Q 56.59375 39.359375 56.375 37.359375 
Q 56.15625 35.359375 55.71875 33.015625 
z
" id="DejaVuSans-Oblique-104"/>
     </defs>
     <use transform="translate(0 0.015625)" xlink:href="#DejaVuSans-109"/>
     <use transform="translate(97.412109 0.015625)" xlink:href="#DejaVuSans-105"/>
     <use transform="translate(125.195312 0.015625)" xlink:href="#DejaVuSans-108"/>
     <use transform="translate(152.978516 0.015625)" xlink:href="#DejaVuSans-108"/>
     <use transform="translate(180.761719 0.015625)" xlink:href="#DejaVuSans-101"/>
     <use transform="translate(242.285156 0.015625)" xlink:href="#DejaVuSans-114"/>
     <use transform="translate(283.398438 0.015625)" xlink:href="#DejaVuSans-32"/>
     <use transform="translate(315.185547 0.015625)" xlink:href="#DejaVuSans-105"/>
     <use transform="translate(342.96875 0.015625)" xlink:href="#DejaVuSans-110"/>
     <use transform="translate(406.347656 0.015625)" xlink:href="#DejaVuSans-100"/>
     <use transform="translate(469.824219 0.015625)" xlink:href="#DejaVuSans-101"/>
     <use transform="translate(531.347656 0.015625)" xlink:href="#DejaVuSans-120"/>
     <use transform="translate(590.527344 0.015625)" xlink:href="#DejaVuSans-32"/>
     <use transform="translate(622.314453 0.015625)" xlink:href="#DejaVuSans-Oblique-104"/>
    </g>
   </g>
   <g id="text_2">
    <!-- image $i$ -->
    <g transform="translate(449.76486 131.636216)scale(0.1 -0.1)">
     <defs>
      <path d="M 34.28125 27.484375 
Q 23.390625 27.484375 19.1875 25 
Q 14.984375 22.515625 14.984375 16.5 
Q 14.984375 11.71875 18.140625 8.90625 
Q 21.296875 6.109375 26.703125 6.109375 
Q 34.1875 6.109375 38.703125 11.40625 
Q 43.21875 16.703125 43.21875 25.484375 
L 43.21875 27.484375 
z
M 52.203125 31.203125 
L 52.203125 0 
L 43.21875 0 
L 43.21875 8.296875 
Q 40.140625 3.328125 35.546875 0.953125 
Q 30.953125 -1.421875 24.3125 -1.421875 
Q 15.921875 -1.421875 10.953125 3.296875 
Q 6 8.015625 6 15.921875 
Q 6 25.140625 12.171875 29.828125 
Q 18.359375 34.515625 30.609375 34.515625 
L 43.21875 34.515625 
L 43.21875 35.40625 
Q 43.21875 41.609375 39.140625 45 
Q 35.0625 48.390625 27.6875 48.390625 
Q 23 48.390625 18.546875 47.265625 
Q 14.109375 46.140625 10.015625 43.890625 
L 10.015625 52.203125 
Q 14.9375 54.109375 19.578125 55.046875 
Q 24.21875 56 28.609375 56 
Q 40.484375 56 46.34375 49.84375 
Q 52.203125 43.703125 52.203125 31.203125 
z
" id="DejaVuSans-97"/>
      <path d="M 45.40625 27.984375 
Q 45.40625 37.75 41.375 43.109375 
Q 37.359375 48.484375 30.078125 48.484375 
Q 22.859375 48.484375 18.828125 43.109375 
Q 14.796875 37.75 14.796875 27.984375 
Q 14.796875 18.265625 18.828125 12.890625 
Q 22.859375 7.515625 30.078125 7.515625 
Q 37.359375 7.515625 41.375 12.890625 
Q 45.40625 18.265625 45.40625 27.984375 
z
M 54.390625 6.78125 
Q 54.390625 -7.171875 48.1875 -13.984375 
Q 42 -20.796875 29.203125 -20.796875 
Q 24.46875 -20.796875 20.265625 -20.09375 
Q 16.0625 -19.390625 12.109375 -17.921875 
L 12.109375 -9.1875 
Q 16.0625 -11.328125 19.921875 -12.34375 
Q 23.78125 -13.375 27.78125 -13.375 
Q 36.625 -13.375 41.015625 -8.765625 
Q 45.40625 -4.15625 45.40625 5.171875 
L 45.40625 9.625 
Q 42.625 4.78125 38.28125 2.390625 
Q 33.9375 0 27.875 0 
Q 17.828125 0 11.671875 7.65625 
Q 5.515625 15.328125 5.515625 27.984375 
Q 5.515625 40.671875 11.671875 48.328125 
Q 17.828125 56 27.875 56 
Q 33.9375 56 38.28125 53.609375 
Q 42.625 51.21875 45.40625 46.390625 
L 45.40625 54.6875 
L 54.390625 54.6875 
z
" id="DejaVuSans-103"/>
      <path d="M 18.3125 75.984375 
L 27.296875 75.984375 
L 25.09375 64.59375 
L 16.109375 64.59375 
z
M 14.203125 54.6875 
L 23.1875 54.6875 
L 12.5 0 
L 3.515625 0 
z
" id="DejaVuSans-Oblique-105"/>
     </defs>
     <use transform="translate(0 0.015625)" xlink:href="#DejaVuSans-105"/>
     <use transform="translate(27.783203 0.015625)" xlink:href="#DejaVuSans-109"/>
     <use transform="translate(125.195312 0.015625)" xlink:href="#DejaVuSans-97"/>
     <use transform="translate(186.474609 0.015625)" xlink:href="#DejaVuSans-103"/>
     <use transform="translate(249.951172 0.015625)" xlink:href="#DejaVuSans-101"/>
     <use transform="translate(311.474609 0.015625)" xlink:href="#DejaVuSans-32"/>
     <use transform="translate(343.261719 0.015625)" xlink:href="#DejaVuSans-Oblique-105"/>
    </g>
   </g>
   <g id="text_3">
    <!-- $m_4$ -->
    <g transform="translate(12.58028 192.459916)scale(0.1 -0.1)">
     <defs>
      <path d="M 89.796875 33.015625 
L 83.40625 0 
L 74.421875 0 
L 80.71875 32.71875 
Q 81.109375 34.8125 81.296875 36.328125 
Q 81.5 37.84375 81.5 38.921875 
Q 81.5 43.3125 79.046875 45.75 
Q 76.609375 48.1875 72.21875 48.1875 
Q 65.671875 48.1875 60.546875 43.28125 
Q 55.421875 38.375 53.90625 30.515625 
L 47.90625 0 
L 38.921875 0 
L 45.3125 32.71875 
Q 45.703125 34.515625 45.890625 36.046875 
Q 46.09375 37.59375 46.09375 38.8125 
Q 46.09375 43.265625 43.65625 45.71875 
Q 41.21875 48.1875 36.921875 48.1875 
Q 30.28125 48.1875 25.140625 43.28125 
Q 20.015625 38.375 18.5 30.515625 
L 12.5 0 
L 3.515625 0 
L 14.203125 54.6875 
L 23.1875 54.6875 
L 21.484375 46.1875 
Q 25.140625 50.984375 30.046875 53.484375 
Q 34.96875 56 40.578125 56 
Q 46.53125 56 50.359375 52.875 
Q 54.203125 49.75 54.984375 44.1875 
Q 59.078125 49.953125 64.46875 52.96875 
Q 69.875 56 75.875 56 
Q 82.90625 56 86.734375 51.953125 
Q 90.578125 47.90625 90.578125 40.484375 
Q 90.578125 38.875 90.375 36.9375 
Q 90.1875 35.015625 89.796875 33.015625 
z
" id="DejaVuSans-Oblique-109"/>
      <path d="M 37.796875 64.3125 
L 12.890625 25.390625 
L 37.796875 25.390625 
z
M 35.203125 72.90625 
L 47.609375 72.90625 
L 47.609375 25.390625 
L 58.015625 25.390625 
L 58.015625 17.1875 
L 47.609375 17.1875 
L 47.609375 0 
L 37.796875 0 
L 37.796875 17.1875 
L 4.890625 17.1875 
L 4.890625 26.703125 
z
" id="DejaVuSans-52"/>
     </defs>
     <use xlink:href="#DejaVuSans-Oblique-109"/>
     <use transform="translate(97.412109 -16.40625)scale(0.7)" xlink:href="#DejaVuSans-52"/>
    </g>
   </g>
   <g id="text_4">
    <!-- $m_3$ -->
    <g transform="translate(12.58028 135.832889)scale(0.1 -0.1)">
     <defs>
      <path d="M 40.578125 39.3125 
Q 47.65625 37.796875 51.625 33 
Q 55.609375 28.21875 55.609375 21.1875 
Q 55.609375 10.40625 48.1875 4.484375 
Q 40.765625 -1.421875 27.09375 -1.421875 
Q 22.515625 -1.421875 17.65625 -0.515625 
Q 12.796875 0.390625 7.625 2.203125 
L 7.625 11.71875 
Q 11.71875 9.328125 16.59375 8.109375 
Q 21.484375 6.890625 26.8125 6.890625 
Q 36.078125 6.890625 40.9375 10.546875 
Q 45.796875 14.203125 45.796875 21.1875 
Q 45.796875 27.640625 41.28125 31.265625 
Q 36.765625 34.90625 28.71875 34.90625 
L 20.21875 34.90625 
L 20.21875 43.015625 
L 29.109375 43.015625 
Q 36.375 43.015625 40.234375 45.921875 
Q 44.09375 48.828125 44.09375 54.296875 
Q 44.09375 59.90625 40.109375 62.90625 
Q 36.140625 65.921875 28.71875 65.921875 
Q 24.65625 65.921875 20.015625 65.03125 
Q 15.375 64.15625 9.8125 62.3125 
L 9.8125 71.09375 
Q 15.4375 72.65625 20.34375 73.4375 
Q 25.25 74.21875 29.59375 74.21875 
Q 40.828125 74.21875 47.359375 69.109375 
Q 53.90625 64.015625 53.90625 55.328125 
Q 53.90625 49.265625 50.4375 45.09375 
Q 46.96875 40.921875 40.578125 39.3125 
z
" id="DejaVuSans-51"/>
     </defs>
     <use xlink:href="#DejaVuSans-Oblique-109"/>
     <use transform="translate(97.412109 -16.40625)scale(0.7)" xlink:href="#DejaVuSans-51"/>
    </g>
   </g>
   <g id="text_5">
    <!-- $m_2$ -->
    <g transform="translate(12.58028 79.205861)scale(0.1 -0.1)">
     <defs>
      <path d="M 19.1875 8.296875 
L 53.609375 8.296875 
L 53.609375 0 
L 7.328125 0 
L 7.328125 8.296875 
Q 12.9375 14.109375 22.625 23.890625 
Q 32.328125 33.6875 34.8125 36.53125 
Q 39.546875 41.84375 41.421875 45.53125 
Q 43.3125 49.21875 43.3125 52.78125 
Q 43.3125 58.59375 39.234375 62.25 
Q 35.15625 65.921875 28.609375 65.921875 
Q 23.96875 65.921875 18.8125 64.3125 
Q 13.671875 62.703125 7.8125 59.421875 
L 7.8125 69.390625 
Q 13.765625 71.78125 18.9375 73 
Q 24.125 74.21875 28.421875 74.21875 
Q 39.75 74.21875 46.484375 68.546875 
Q 53.21875 62.890625 53.21875 53.421875 
Q 53.21875 48.921875 51.53125 44.890625 
Q 49.859375 40.875 45.40625 35.40625 
Q 44.1875 33.984375 37.640625 27.21875 
Q 31.109375 20.453125 19.1875 8.296875 
z
" id="DejaVuSans-50"/>
     </defs>
     <use xlink:href="#DejaVuSans-Oblique-109"/>
     <use transform="translate(97.412109 -16.40625)scale(0.7)" xlink:href="#DejaVuSans-50"/>
    </g>
   </g>
   <g id="text_6">
    <!-- $m_1$ -->
    <g transform="translate(12.58028 22.578834)scale(0.1 -0.1)">
     <defs>
      <path d="M 12.40625 8.296875 
L 28.515625 8.296875 
L 28.515625 63.921875 
L 10.984375 60.40625 
L 10.984375 69.390625 
L 28.421875 72.90625 
L 38.28125 72.90625 
L 38.28125 8.296875 
L 54.390625 8.296875 
L 54.390625 0 
L 12.40625 0 
z
" id="DejaVuSans-49"/>
     </defs>
     <use xlink:href="#DejaVuSans-Oblique-109"/>
     <use transform="translate(97.412109 -16.40625)scale(0.7)" xlink:href="#DejaVuSans-49"/>
    </g>
   </g>
   <g id="text_7">
    <!-- $\mu$ -->
    <g style="fill:#ffffff;" transform="translate(356.577944 76.946486)scale(0.1 -0.1)">
     <defs>
      <path d="M -1.3125 -20.796875 
L 13.375 54.6875 
L 22.40625 54.6875 
L 15.765625 20.65625 
Q 15.578125 19.625 15.421875 18.359375 
Q 15.28125 17.09375 15.28125 15.828125 
Q 15.28125 11.28125 18.140625 8.828125 
Q 21 6.390625 26.3125 6.390625 
Q 33.546875 6.390625 37.984375 10.484375 
Q 42.4375 14.59375 44 22.796875 
L 50.203125 54.6875 
L 59.1875 54.6875 
L 51.03125 12.640625 
Q 50.828125 11.71875 50.75 11.03125 
Q 50.6875 10.359375 50.6875 9.8125 
Q 50.6875 8.296875 51.296875 7.59375 
Q 51.90625 6.890625 53.21875 6.890625 
Q 53.71875 6.890625 54.5625 7.125 
Q 55.421875 7.375 56.984375 8.015625 
L 55.609375 0.78125 
Q 53.46875 -0.296875 51.515625 -0.859375 
Q 49.5625 -1.421875 47.703125 -1.421875 
Q 44.484375 -1.421875 42.65625 0.625 
Q 40.828125 2.6875 40.828125 6.296875 
Q 38.09375 2.390625 34.296875 0.484375 
Q 30.515625 -1.421875 25.390625 -1.421875 
Q 20.84375 -1.421875 17.453125 0.671875 
Q 14.0625 2.78125 12.984375 6.203125 
L 7.71875 -20.796875 
z
" id="DejaVuSans-Oblique-956"/>
     </defs>
     <use transform="translate(0 0.3125)" xlink:href="#DejaVuSans-Oblique-956"/>
    </g>
   </g>
   <g id="text_8">
    <!-- $\sigma$ -->
    <g style="fill:#ffffff;" transform="translate(356.577944 134.573514)scale(0.1 -0.1)">
     <defs>
      <path d="M 34.671875 47.5625 
Q 27.25 47.5625 22.21875 42.1875 
Q 16.890625 36.578125 15.140625 27.296875 
Q 13.1875 17.484375 16.3125 11.8125 
Q 19.390625 6.203125 26.65625 6.203125 
Q 33.84375 6.203125 39.109375 11.859375 
Q 44.4375 17.53125 46.34375 27.296875 
Q 48.046875 36.234375 45.015625 42.1875 
Q 42.1875 47.5625 34.671875 47.5625 
z
M 36.078125 54.734375 
L 65.921875 54.6875 
L 64.15625 45.703125 
L 54.109375 45.703125 
Q 57.90625 38.09375 55.859375 27.296875 
Q 53.21875 13.875 45.0625 6.25 
Q 36.859375 -1.421875 25.140625 -1.421875 
Q 13.375 -1.421875 8.203125 6.25 
Q 3.03125 13.875 5.671875 27.296875 
Q 8.25 40.765625 16.40625 48.390625 
Q 23.1875 54.734375 36.078125 54.734375 
z
" id="DejaVuSans-Oblique-963"/>
     </defs>
     <use transform="translate(0 0.265625)" xlink:href="#DejaVuSans-Oblique-963"/>
    </g>
   </g>
   <g id="text_9">
    <!-- $\Sigma$ -->
    <g transform="translate(413.235888 107.519375)scale(0.1 -0.1)">
     <defs>
      <path d="M 21.140625 8.296875 
L 56.78125 8.296875 
L 56.78125 0 
L 9.8125 0 
L 9.8125 8.296875 
L 33.203125 38.765625 
L 9.8125 64.59375 
L 9.8125 72.90625 
L 55.90625 72.90625 
L 55.90625 64.59375 
L 21.140625 64.59375 
L 44.53125 38.96875 
z
" id="DejaVuSans-931"/>
     </defs>
     <use transform="translate(0 0.09375)" xlink:href="#DejaVuSans-931"/>
    </g>
   </g>
   <g id="text_10">
    <!-- $I_{h}^{i}$ -->
    <g transform="translate(469.243832 107.96)scale(0.1 -0.1)">
     <defs>
      <path d="M 16.890625 72.90625 
L 26.8125 72.90625 
L 12.59375 0 
L 2.6875 0 
z
" id="DejaVuSans-Oblique-73"/>
     </defs>
     <use transform="translate(0 0.465625)" xlink:href="#DejaVuSans-Oblique-73"/>
     <use transform="translate(36.508958 38.810938)scale(0.7)" xlink:href="#DejaVuSans-Oblique-105"/>
     <use transform="translate(29.492188 -26.878125)scale(0.7)" xlink:href="#DejaVuSans-Oblique-104"/>
    </g>
   </g>
   <g id="text_11">
    <!-- $F_{h}$ -->
    <g transform="translate(524.501776 107.519375)scale(0.1 -0.1)">
     <defs>
      <path d="M 16.890625 72.90625 
L 58.6875 72.90625 
L 57.078125 64.59375 
L 25.09375 64.59375 
L 20.90625 43.109375 
L 49.8125 43.109375 
L 48.1875 34.8125 
L 19.28125 34.8125 
L 12.5 0 
L 2.6875 0 
z
" id="DejaVuSans-Oblique-70"/>
     </defs>
     <use transform="translate(0 0.09375)" xlink:href="#DejaVuSans-Oblique-70"/>
     <use transform="translate(57.519531 -16.3125)scale(0.7)" xlink:href="#DejaVuSans-Oblique-104"/>
    </g>
   </g>
   <g id="text_12">
    <!-- W -->
    <g transform="translate(581.46597 107.519375)scale(0.1 -0.1)">
     <defs>
      <path d="M 3.328125 72.90625 
L 13.28125 72.90625 
L 28.609375 11.28125 
L 43.890625 72.90625 
L 54.984375 72.90625 
L 70.3125 11.28125 
L 85.59375 72.90625 
L 95.609375 72.90625 
L 77.296875 0 
L 64.890625 0 
L 49.515625 63.28125 
L 33.984375 0 
L 21.578125 0 
z
" id="DejaVuSans-87"/>
     </defs>
     <use xlink:href="#DejaVuSans-87"/>
    </g>
   </g>
  </g>
 </g>
 <defs>
  <clipPath id="p4782af11d8">
   <rect height="209.52" width="606.24" x="0" y="0"/>
  </clipPath>
 </defs>
</svg>
