<?xml version="1.0" encoding="utf-8" standalone="no"?>
<!DOCTYPE svg PUBLIC "-//W3C//DTD SVG 1.1//EN"
  "http://www.w3.org/Graphics/SVG/1.1/DTD/svg11.dtd">
<!-- Created with matplotlib (https://matplotlib.org/) -->
<svg height="209.52pt" version="1.1" viewBox="0 0 606.24 209.52" width="606.24pt" xmlns="http://www.w3.org/2000/svg" xmlns:xlink="http://www.w3.org/1999/xlink">
 <metadata>
  <rdf:RDF xmlns:cc="http://creativecommons.org/ns#" xmlns:dc="http://purl.org/dc/elements/1.1/" xmlns:rdf="http://www.w3.org/1999/02/22-rdf-syntax-ns#">
   <cc:Work>
    <dc:type rdf:resource="http://purl.org/dc/dcmitype/StillImage"/>
    <dc:date>2020-08-27T21:20:12.464209</dc:date>
    <dc:format>image/svg+xml</dc:format>
    <dc:creator>
     <cc:Agent>
      <dc:title>Matplotlib v3.3.0, https://matplotlib.org/</dc:title>
     </cc:Agent>
    </dc:creator>
   </cc:Work>
  </rdf:RDF>
 </metadata>
 <defs>
  <style type="text/css">*{stroke-linecap:butt;stroke-linejoin:round;}</style>
 </defs>
 <g id="figure_1">
  <g id="patch_1">
   <path d="M 0 209.52 
L 606.24 209.52 
L 606.24 0 
L 0 0 
z
" style="fill:#ffffff;"/>
  </g>
  <g id="axes_1">
   <g id="patch_2">
    <path clip-path="url(#p499498283f)" d="M 436.266168 172.712432 
L 560.913645 172.712432 
L 560.913645 59.458378 
L 436.266168 59.458378 
z
" style="fill:none;stroke:#000000;stroke-linejoin:miter;"/>
   </g>
   <g id="patch_3">
    <path clip-path="url(#p499498283f)" d="M 444.76486 138.736216 
L 501.422804 138.736216 
L 501.422804 82.109189 
L 444.76486 82.109189 
z
" style="fill:none;stroke:#000000;stroke-linejoin:miter;"/>
   </g>
   <g id="patch_4">
    <path clip-path="url(#p499498283f)" d="M 74.127477 189.700541 
L 67.045234 191.116216 
L 67.045234 189.700541 
L 33.994766 189.700541 
L 33.994766 189.700541 
L 67.045234 189.700541 
L 67.045234 188.284865 
z
" style="stroke:#000000;stroke-linejoin:miter;"/>
   </g>
   <g id="patch_5">
    <path clip-path="url(#p499498283f)" d="M 74.127477 133.073514 
L 67.045234 134.489189 
L 67.045234 133.073514 
L 33.994766 133.073514 
L 33.994766 133.073514 
L 67.045234 133.073514 
L 67.045234 131.657838 
z
" style="stroke:#000000;stroke-linejoin:miter;"/>
   </g>
   <g id="patch_6">
    <path clip-path="url(#p499498283f)" d="M 74.127477 76.446486 
L 67.045234 77.862162 
L 67.045234 76.446486 
L 33.994766 76.446486 
L 33.994766 76.446486 
L 67.045234 76.446486 
L 67.045234 75.030811 
z
" style="stroke:#000000;stroke-linejoin:miter;"/>
   </g>
   <g id="patch_7">
    <path clip-path="url(#p499498283f)" d="M 74.127477 19.819459 
L 67.045234 21.235135 
L 67.045234 19.819459 
L 33.994766 19.819459 
L 33.994766 19.819459 
L 67.045234 19.819459 
L 67.045234 18.403784 
z
" style="stroke:#000000;stroke-linejoin:miter;"/>
   </g>
   <g id="patch_8">
    <path clip-path="url(#p499498283f)" d="M 403.766786 98.428906 
L 396.798781 96.529578 
L 397.432236 95.263359 
L 361.889461 77.501669 
L 361.889461 77.501669 
L 397.432236 95.263359 
L 398.065691 93.99714 
z
" style="stroke:#000000;stroke-linejoin:miter;"/>
   </g>
   <g id="patch_9">
    <path clip-path="url(#p499498283f)" d="M 403.766786 111.091094 
L 398.065691 115.52286 
L 397.432236 114.256641 
L 361.889461 132.018331 
L 361.889461 132.018331 
L 397.432236 114.256641 
L 396.798781 112.990422 
z
" style="stroke:#000000;stroke-linejoin:miter;"/>
   </g>
   <g id="patch_10">
    <path clip-path="url(#p499498283f)" d="M 458.929346 104.76 
L 451.847103 106.175676 
L 451.847103 104.76 
L 430.600374 104.76 
L 430.600374 104.76 
L 451.847103 104.76 
L 451.847103 103.344324 
z
" style="stroke:#000000;stroke-linejoin:miter;"/>
   </g>
   <g id="patch_11">
    <path clip-path="url(#p499498283f)" d="M 487.258318 104.76 
L 494.340561 103.344324 
L 494.340561 104.76 
L 515.58729 104.76 
L 515.58729 104.76 
L 494.340561 104.76 
L 494.340561 106.175676 
z
" style="stroke:#000000;stroke-linejoin:miter;"/>
   </g>
   <g id="patch_12">
    <path clip-path="url(#p499498283f)" d="M 543.916262 104.76 
L 550.998505 103.344324 
L 550.998505 104.76 
L 572.245234 104.76 
L 572.245234 104.76 
L 550.998505 104.76 
L 550.998505 106.175676 
z
" style="stroke:#000000;stroke-linejoin:miter;"/>
   </g>
   <g id="patch_13">
    <path clip-path="url(#p499498283f)" d="M 76.488224 192.06 
C 77.114302 192.06 77.714821 191.811392 78.157525 191.36893 
C 78.600229 190.926468 78.848972 190.326277 78.848972 189.700541 
C 78.848972 189.074805 78.600229 188.474613 78.157525 188.032151 
C 77.714821 187.589689 77.114302 187.341081 76.488224 187.341081 
C 75.862147 187.341081 75.261627 187.589689 74.818924 188.032151 
C 74.37622 188.474613 74.127477 189.074805 74.127477 189.700541 
C 74.127477 190.326277 74.37622 190.926468 74.818924 191.36893 
C 75.261627 191.811392 75.862147 192.06 76.488224 192.06 
z
" style="stroke:#000000;stroke-linejoin:miter;"/>
   </g>
   <g id="patch_14">
    <path clip-path="url(#p499498283f)" d="M 76.488224 135.432973 
C 77.114302 135.432973 77.714821 135.184365 78.157525 134.741903 
C 78.600229 134.299441 78.848972 133.699249 78.848972 133.073514 
C 78.848972 132.447778 78.600229 131.847586 78.157525 131.405124 
C 77.714821 130.962662 77.114302 130.714054 76.488224 130.714054 
C 75.862147 130.714054 75.261627 130.962662 74.818924 131.405124 
C 74.37622 131.847586 74.127477 132.447778 74.127477 133.073514 
C 74.127477 133.699249 74.37622 134.299441 74.818924 134.741903 
C 75.261627 135.184365 75.862147 135.432973 76.488224 135.432973 
z
" style="stroke:#000000;stroke-linejoin:miter;"/>
   </g>
   <g id="patch_15">
    <path clip-path="url(#p499498283f)" d="M 76.488224 78.805946 
C 77.114302 78.805946 77.714821 78.557338 78.157525 78.114876 
C 78.600229 77.672414 78.848972 77.072222 78.848972 76.446486 
C 78.848972 75.820751 78.600229 75.220559 78.157525 74.778097 
C 77.714821 74.335635 77.114302 74.087027 76.488224 74.087027 
C 75.862147 74.087027 75.261627 74.335635 74.818924 74.778097 
C 74.37622 75.220559 74.127477 75.820751 74.127477 76.446486 
C 74.127477 77.072222 74.37622 77.672414 74.818924 78.114876 
C 75.261627 78.557338 75.862147 78.805946 76.488224 78.805946 
z
" style="stroke:#000000;stroke-linejoin:miter;"/>
   </g>
   <g id="patch_16">
    <path clip-path="url(#p499498283f)" d="M 76.488224 22.178919 
C 77.114302 22.178919 77.714821 21.930311 78.157525 21.487849 
C 78.600229 21.045387 78.848972 20.445195 78.848972 19.819459 
C 78.848972 19.193723 78.600229 18.593532 78.157525 18.15107 
C 77.714821 17.708608 77.114302 17.46 76.488224 17.46 
C 75.862147 17.46 75.261627 17.708608 74.818924 18.15107 
C 74.37622 18.593532 74.127477 19.193723 74.127477 19.819459 
C 74.127477 20.445195 74.37622 21.045387 74.818924 21.487849 
C 75.261627 21.930311 75.862147 22.178919 76.488224 22.178919 
z
" style="stroke:#000000;stroke-linejoin:miter;"/>
   </g>
   <g id="patch_17">
    <path clip-path="url(#p499498283f)" d="M 133.146168 192.06 
C 133.772246 192.06 134.372765 191.811392 134.815469 191.36893 
C 135.258173 190.926468 135.506916 190.326277 135.506916 189.700541 
C 135.506916 189.074805 135.258173 188.474613 134.815469 188.032151 
C 134.372765 187.589689 133.772246 187.341081 133.146168 187.341081 
C 132.520091 187.341081 131.919571 187.589689 131.476868 188.032151 
C 131.034164 188.474613 130.785421 189.074805 130.785421 189.700541 
C 130.785421 190.326277 131.034164 190.926468 131.476868 191.36893 
C 131.919571 191.811392 132.520091 192.06 133.146168 192.06 
z
" style="stroke:#000000;stroke-linejoin:miter;"/>
   </g>
   <g id="patch_18">
    <path clip-path="url(#p499498283f)" d="M 133.146168 135.432973 
C 133.772246 135.432973 134.372765 135.184365 134.815469 134.741903 
C 135.258173 134.299441 135.506916 133.699249 135.506916 133.073514 
C 135.506916 132.447778 135.258173 131.847586 134.815469 131.405124 
C 134.372765 130.962662 133.772246 130.714054 133.146168 130.714054 
C 132.520091 130.714054 131.919571 130.962662 131.476868 131.405124 
C 131.034164 131.847586 130.785421 132.447778 130.785421 133.073514 
C 130.785421 133.699249 131.034164 134.299441 131.476868 134.741903 
C 131.919571 135.184365 132.520091 135.432973 133.146168 135.432973 
z
" style="stroke:#000000;stroke-linejoin:miter;"/>
   </g>
   <g id="patch_19">
    <path clip-path="url(#p499498283f)" d="M 133.146168 78.805946 
C 133.772246 78.805946 134.372765 78.557338 134.815469 78.114876 
C 135.258173 77.672414 135.506916 77.072222 135.506916 76.446486 
C 135.506916 75.820751 135.258173 75.220559 134.815469 74.778097 
C 134.372765 74.335635 133.772246 74.087027 133.146168 74.087027 
C 132.520091 74.087027 131.919571 74.335635 131.476868 74.778097 
C 131.034164 75.220559 130.785421 75.820751 130.785421 76.446486 
C 130.785421 77.072222 131.034164 77.672414 131.476868 78.114876 
C 131.919571 78.557338 132.520091 78.805946 133.146168 78.805946 
z
" style="stroke:#000000;stroke-linejoin:miter;"/>
   </g>
   <g id="patch_20">
    <path clip-path="url(#p499498283f)" d="M 133.146168 22.178919 
C 133.772246 22.178919 134.372765 21.930311 134.815469 21.487849 
C 135.258173 21.045387 135.506916 20.445195 135.506916 19.819459 
C 135.506916 19.193723 135.258173 18.593532 134.815469 18.15107 
C 134.372765 17.708608 133.772246 17.46 133.146168 17.46 
C 132.520091 17.46 131.919571 17.708608 131.476868 18.15107 
C 131.034164 18.593532 130.785421 19.193723 130.785421 19.819459 
C 130.785421 20.445195 131.034164 21.045387 131.476868 21.487849 
C 131.919571 21.930311 132.520091 22.178919 133.146168 22.178919 
z
" style="stroke:#000000;stroke-linejoin:miter;"/>
   </g>
   <g id="patch_21">
    <path clip-path="url(#p499498283f)" d="M 189.804112 192.06 
C 190.43019 192.06 191.030709 191.811392 191.473413 191.36893 
C 191.916117 190.926468 192.16486 190.326277 192.16486 189.700541 
C 192.16486 189.074805 191.916117 188.474613 191.473413 188.032151 
C 191.030709 187.589689 190.43019 187.341081 189.804112 187.341081 
C 189.178035 187.341081 188.577515 187.589689 188.134811 188.032151 
C 187.692108 188.474613 187.443364 189.074805 187.443364 189.700541 
C 187.443364 190.326277 187.692108 190.926468 188.134811 191.36893 
C 188.577515 191.811392 189.178035 192.06 189.804112 192.06 
z
" style="stroke:#000000;stroke-linejoin:miter;"/>
   </g>
   <g id="patch_22">
    <path clip-path="url(#p499498283f)" d="M 189.804112 135.432973 
C 190.43019 135.432973 191.030709 135.184365 191.473413 134.741903 
C 191.916117 134.299441 192.16486 133.699249 192.16486 133.073514 
C 192.16486 132.447778 191.916117 131.847586 191.473413 131.405124 
C 191.030709 130.962662 190.43019 130.714054 189.804112 130.714054 
C 189.178035 130.714054 188.577515 130.962662 188.134811 131.405124 
C 187.692108 131.847586 187.443364 132.447778 187.443364 133.073514 
C 187.443364 133.699249 187.692108 134.299441 188.134811 134.741903 
C 188.577515 135.184365 189.178035 135.432973 189.804112 135.432973 
z
" style="stroke:#000000;stroke-linejoin:miter;"/>
   </g>
   <g id="patch_23">
    <path clip-path="url(#p499498283f)" d="M 189.804112 78.805946 
C 190.43019 78.805946 191.030709 78.557338 191.473413 78.114876 
C 191.916117 77.672414 192.16486 77.072222 192.16486 76.446486 
C 192.16486 75.820751 191.916117 75.220559 191.473413 74.778097 
C 191.030709 74.335635 190.43019 74.087027 189.804112 74.087027 
C 189.178035 74.087027 188.577515 74.335635 188.134811 74.778097 
C 187.692108 75.220559 187.443364 75.820751 187.443364 76.446486 
C 187.443364 77.072222 187.692108 77.672414 188.134811 78.114876 
C 188.577515 78.557338 189.178035 78.805946 189.804112 78.805946 
z
" style="stroke:#000000;stroke-linejoin:miter;"/>
   </g>
   <g id="patch_24">
    <path clip-path="url(#p499498283f)" d="M 189.804112 22.178919 
C 190.43019 22.178919 191.030709 21.930311 191.473413 21.487849 
C 191.916117 21.045387 192.16486 20.445195 192.16486 19.819459 
C 192.16486 19.193723 191.916117 18.593532 191.473413 18.15107 
C 191.030709 17.708608 190.43019 17.46 189.804112 17.46 
C 189.178035 17.46 188.577515 17.708608 188.134811 18.15107 
C 187.692108 18.593532 187.443364 19.193723 187.443364 19.819459 
C 187.443364 20.445195 187.692108 21.045387 188.134811 21.487849 
C 188.577515 21.930311 189.178035 22.178919 189.804112 22.178919 
z
" style="stroke:#000000;stroke-linejoin:miter;"/>
   </g>
   <g id="patch_25">
    <path clip-path="url(#p499498283f)" d="M 246.462056 192.06 
C 247.088134 192.06 247.688653 191.811392 248.131357 191.36893 
C 248.57406 190.926468 248.822804 190.326277 248.822804 189.700541 
C 248.822804 189.074805 248.57406 188.474613 248.131357 188.032151 
C 247.688653 187.589689 247.088134 187.341081 246.462056 187.341081 
C 245.835978 187.341081 245.235459 187.589689 244.792755 188.032151 
C 244.350052 188.474613 244.101308 189.074805 244.101308 189.700541 
C 244.101308 190.326277 244.350052 190.926468 244.792755 191.36893 
C 245.235459 191.811392 245.835978 192.06 246.462056 192.06 
z
" style="stroke:#000000;stroke-linejoin:miter;"/>
   </g>
   <g id="patch_26">
    <path clip-path="url(#p499498283f)" d="M 246.462056 135.432973 
C 247.088134 135.432973 247.688653 135.184365 248.131357 134.741903 
C 248.57406 134.299441 248.822804 133.699249 248.822804 133.073514 
C 248.822804 132.447778 248.57406 131.847586 248.131357 131.405124 
C 247.688653 130.962662 247.088134 130.714054 246.462056 130.714054 
C 245.835978 130.714054 245.235459 130.962662 244.792755 131.405124 
C 244.350052 131.847586 244.101308 132.447778 244.101308 133.073514 
C 244.101308 133.699249 244.350052 134.299441 244.792755 134.741903 
C 245.235459 135.184365 245.835978 135.432973 246.462056 135.432973 
z
" style="stroke:#000000;stroke-linejoin:miter;"/>
   </g>
   <g id="patch_27">
    <path clip-path="url(#p499498283f)" d="M 246.462056 78.805946 
C 247.088134 78.805946 247.688653 78.557338 248.131357 78.114876 
C 248.57406 77.672414 248.822804 77.072222 248.822804 76.446486 
C 248.822804 75.820751 248.57406 75.220559 248.131357 74.778097 
C 247.688653 74.335635 247.088134 74.087027 246.462056 74.087027 
C 245.835978 74.087027 245.235459 74.335635 244.792755 74.778097 
C 244.350052 75.220559 244.101308 75.820751 244.101308 76.446486 
C 244.101308 77.072222 244.350052 77.672414 244.792755 78.114876 
C 245.235459 78.557338 245.835978 78.805946 246.462056 78.805946 
z
" style="stroke:#000000;stroke-linejoin:miter;"/>
   </g>
   <g id="patch_28">
    <path clip-path="url(#p499498283f)" d="M 246.462056 22.178919 
C 247.088134 22.178919 247.688653 21.930311 248.131357 21.487849 
C 248.57406 21.045387 248.822804 20.445195 248.822804 19.819459 
C 248.822804 19.193723 248.57406 18.593532 248.131357 18.15107 
C 247.688653 17.708608 247.088134 17.46 246.462056 17.46 
C 245.835978 17.46 245.235459 17.708608 244.792755 18.15107 
C 244.350052 18.593532 244.101308 19.193723 244.101308 19.819459 
C 244.101308 20.445195 244.350052 21.045387 244.792755 21.487849 
C 245.235459 21.930311 245.835978 22.178919 246.462056 22.178919 
z
" style="stroke:#000000;stroke-linejoin:miter;"/>
   </g>
   <g id="patch_29">
    <path clip-path="url(#p499498283f)" d="M 303.12 192.06 
C 303.746078 192.06 304.346597 191.811392 304.789301 191.36893 
C 305.232004 190.926468 305.480748 190.326277 305.480748 189.700541 
C 305.480748 189.074805 305.232004 188.474613 304.789301 188.032151 
C 304.346597 187.589689 303.746078 187.341081 303.12 187.341081 
C 302.493922 187.341081 301.893403 187.589689 301.450699 188.032151 
C 301.007996 188.474613 300.759252 189.074805 300.759252 189.700541 
C 300.759252 190.326277 301.007996 190.926468 301.450699 191.36893 
C 301.893403 191.811392 302.493922 192.06 303.12 192.06 
z
" style="stroke:#000000;stroke-linejoin:miter;"/>
   </g>
   <g id="patch_30">
    <path clip-path="url(#p499498283f)" d="M 303.12 135.432973 
C 303.746078 135.432973 304.346597 135.184365 304.789301 134.741903 
C 305.232004 134.299441 305.480748 133.699249 305.480748 133.073514 
C 305.480748 132.447778 305.232004 131.847586 304.789301 131.405124 
C 304.346597 130.962662 303.746078 130.714054 303.12 130.714054 
C 302.493922 130.714054 301.893403 130.962662 301.450699 131.405124 
C 301.007996 131.847586 300.759252 132.447778 300.759252 133.073514 
C 300.759252 133.699249 301.007996 134.299441 301.450699 134.741903 
C 301.893403 135.184365 302.493922 135.432973 303.12 135.432973 
z
" style="stroke:#000000;stroke-linejoin:miter;"/>
   </g>
   <g id="patch_31">
    <path clip-path="url(#p499498283f)" d="M 303.12 78.805946 
C 303.746078 78.805946 304.346597 78.557338 304.789301 78.114876 
C 305.232004 77.672414 305.480748 77.072222 305.480748 76.446486 
C 305.480748 75.820751 305.232004 75.220559 304.789301 74.778097 
C 304.346597 74.335635 303.746078 74.087027 303.12 74.087027 
C 302.493922 74.087027 301.893403 74.335635 301.450699 74.778097 
C 301.007996 75.220559 300.759252 75.820751 300.759252 76.446486 
C 300.759252 77.072222 301.007996 77.672414 301.450699 78.114876 
C 301.893403 78.557338 302.493922 78.805946 303.12 78.805946 
z
" style="stroke:#000000;stroke-linejoin:miter;"/>
   </g>
   <g id="patch_32">
    <path clip-path="url(#p499498283f)" d="M 303.12 22.178919 
C 303.746078 22.178919 304.346597 21.930311 304.789301 21.487849 
C 305.232004 21.045387 305.480748 20.445195 305.480748 19.819459 
C 305.480748 19.193723 305.232004 18.593532 304.789301 18.15107 
C 304.346597 17.708608 303.746078 17.46 303.12 17.46 
C 302.493922 17.46 301.893403 17.708608 301.450699 18.15107 
C 301.007996 18.593532 300.759252 19.193723 300.759252 19.819459 
C 300.759252 20.445195 301.007996 21.045387 301.450699 21.487849 
C 301.893403 21.930311 302.493922 22.178919 303.12 22.178919 
z
" style="stroke:#000000;stroke-linejoin:miter;"/>
   </g>
   <g id="patch_33">
    <path clip-path="url(#p499498283f)" d="M 19.83028 203.857297 
C 23.586746 203.857297 27.189862 202.365652 29.846084 199.710879 
C 32.502307 197.056106 33.994766 193.454956 33.994766 189.700541 
C 33.994766 185.946125 32.502307 182.344975 29.846084 179.690202 
C 27.189862 177.035429 23.586746 175.543784 19.83028 175.543784 
C 16.073815 175.543784 12.470699 177.035429 9.814476 179.690202 
C 7.158254 182.344975 5.665794 185.946125 5.665794 189.700541 
C 5.665794 193.454956 7.158254 197.056106 9.814476 199.710879 
C 12.470699 202.365652 16.073815 203.857297 19.83028 203.857297 
z
" style="fill:#b2b2b2;stroke:#000000;stroke-linejoin:miter;"/>
   </g>
   <g id="patch_34">
    <path clip-path="url(#p499498283f)" d="M 19.83028 203.857297 
C 23.586746 203.857297 27.189862 202.365652 29.846084 199.710879 
C 32.502307 197.056106 33.994766 193.454956 33.994766 189.700541 
C 33.994766 185.946125 32.502307 182.344975 29.846084 179.690202 
C 27.189862 177.035429 23.586746 175.543784 19.83028 175.543784 
C 16.073815 175.543784 12.470699 177.035429 9.814476 179.690202 
C 7.158254 182.344975 5.665794 185.946125 5.665794 189.700541 
C 5.665794 193.454956 7.158254 197.056106 9.814476 199.710879 
C 12.470699 202.365652 16.073815 203.857297 19.83028 203.857297 
z
" style="fill:none;stroke:#000000;stroke-linejoin:miter;"/>
   </g>
   <g id="patch_35">
    <path clip-path="url(#p499498283f)" d="M 19.83028 147.23027 
C 23.586746 147.23027 27.189862 145.738625 29.846084 143.083852 
C 32.502307 140.429079 33.994766 136.827929 33.994766 133.073514 
C 33.994766 129.319098 32.502307 125.717948 29.846084 123.063175 
C 27.189862 120.408402 23.586746 118.916757 19.83028 118.916757 
C 16.073815 118.916757 12.470699 120.408402 9.814476 123.063175 
C 7.158254 125.717948 5.665794 129.319098 5.665794 133.073514 
C 5.665794 136.827929 7.158254 140.429079 9.814476 143.083852 
C 12.470699 145.738625 16.073815 147.23027 19.83028 147.23027 
z
" style="fill:#b2b2b2;stroke:#000000;stroke-linejoin:miter;"/>
   </g>
   <g id="patch_36">
    <path clip-path="url(#p499498283f)" d="M 19.83028 147.23027 
C 23.586746 147.23027 27.189862 145.738625 29.846084 143.083852 
C 32.502307 140.429079 33.994766 136.827929 33.994766 133.073514 
C 33.994766 129.319098 32.502307 125.717948 29.846084 123.063175 
C 27.189862 120.408402 23.586746 118.916757 19.83028 118.916757 
C 16.073815 118.916757 12.470699 120.408402 9.814476 123.063175 
C 7.158254 125.717948 5.665794 129.319098 5.665794 133.073514 
C 5.665794 136.827929 7.158254 140.429079 9.814476 143.083852 
C 12.470699 145.738625 16.073815 147.23027 19.83028 147.23027 
z
" style="fill:none;stroke:#000000;stroke-linejoin:miter;"/>
   </g>
   <g id="patch_37">
    <path clip-path="url(#p499498283f)" d="M 19.83028 90.603243 
C 23.586746 90.603243 27.189862 89.111598 29.846084 86.456825 
C 32.502307 83.802052 33.994766 80.200902 33.994766 76.446486 
C 33.994766 72.692071 32.502307 69.090921 29.846084 66.436148 
C 27.189862 63.781375 23.586746 62.28973 19.83028 62.28973 
C 16.073815 62.28973 12.470699 63.781375 9.814476 66.436148 
C 7.158254 69.090921 5.665794 72.692071 5.665794 76.446486 
C 5.665794 80.200902 7.158254 83.802052 9.814476 86.456825 
C 12.470699 89.111598 16.073815 90.603243 19.83028 90.603243 
z
" style="fill:#b2b2b2;stroke:#000000;stroke-linejoin:miter;"/>
   </g>
   <g id="patch_38">
    <path clip-path="url(#p499498283f)" d="M 19.83028 90.603243 
C 23.586746 90.603243 27.189862 89.111598 29.846084 86.456825 
C 32.502307 83.802052 33.994766 80.200902 33.994766 76.446486 
C 33.994766 72.692071 32.502307 69.090921 29.846084 66.436148 
C 27.189862 63.781375 23.586746 62.28973 19.83028 62.28973 
C 16.073815 62.28973 12.470699 63.781375 9.814476 66.436148 
C 7.158254 69.090921 5.665794 72.692071 5.665794 76.446486 
C 5.665794 80.200902 7.158254 83.802052 9.814476 86.456825 
C 12.470699 89.111598 16.073815 90.603243 19.83028 90.603243 
z
" style="fill:none;stroke:#000000;stroke-linejoin:miter;"/>
   </g>
   <g id="patch_39">
    <path clip-path="url(#p499498283f)" d="M 19.83028 33.976216 
C 23.586746 33.976216 27.189862 32.484571 29.846084 29.829798 
C 32.502307 27.175025 33.994766 23.573875 33.994766 19.819459 
C 33.994766 16.065044 32.502307 12.463894 29.846084 9.809121 
C 27.189862 7.154348 23.586746 5.662703 19.83028 5.662703 
C 16.073815 5.662703 12.470699 7.154348 9.814476 9.809121 
C 7.158254 12.463894 5.665794 16.065044 5.665794 19.819459 
C 5.665794 23.573875 7.158254 27.175025 9.814476 29.829798 
C 12.470699 32.484571 16.073815 33.976216 19.83028 33.976216 
z
" style="fill:#b2b2b2;stroke:#000000;stroke-linejoin:miter;"/>
   </g>
   <g id="patch_40">
    <path clip-path="url(#p499498283f)" d="M 19.83028 33.976216 
C 23.586746 33.976216 27.189862 32.484571 29.846084 29.829798 
C 32.502307 27.175025 33.994766 23.573875 33.994766 19.819459 
C 33.994766 16.065044 32.502307 12.463894 29.846084 9.809121 
C 27.189862 7.154348 23.586746 5.662703 19.83028 5.662703 
C 16.073815 5.662703 12.470699 7.154348 9.814476 9.809121 
C 7.158254 12.463894 5.665794 16.065044 5.665794 19.819459 
C 5.665794 23.573875 7.158254 27.175025 9.814476 29.829798 
C 12.470699 32.484571 16.073815 33.976216 19.83028 33.976216 
z
" style="fill:none;stroke:#000000;stroke-linejoin:miter;"/>
   </g>
   <g id="patch_41">
    <path clip-path="url(#p499498283f)" d="M 359.777944 78.805946 
C 360.404022 78.805946 361.004541 78.557338 361.447245 78.114876 
C 361.889948 77.672414 362.138692 77.072222 362.138692 76.446486 
C 362.138692 75.820751 361.889948 75.220559 361.447245 74.778097 
C 361.004541 74.335635 360.404022 74.087027 359.777944 74.087027 
C 359.151866 74.087027 358.551347 74.335635 358.108643 74.778097 
C 357.66594 75.220559 357.417196 75.820751 357.417196 76.446486 
C 357.417196 77.072222 357.66594 77.672414 358.108643 78.114876 
C 358.551347 78.557338 359.151866 78.805946 359.777944 78.805946 
z
" style="stroke:#000000;stroke-linejoin:miter;"/>
   </g>
   <g id="patch_42">
    <path clip-path="url(#p499498283f)" d="M 359.777944 135.432973 
C 360.404022 135.432973 361.004541 135.184365 361.447245 134.741903 
C 361.889948 134.299441 362.138692 133.699249 362.138692 133.073514 
C 362.138692 132.447778 361.889948 131.847586 361.447245 131.405124 
C 361.004541 130.962662 360.404022 130.714054 359.777944 130.714054 
C 359.151866 130.714054 358.551347 130.962662 358.108643 131.405124 
C 357.66594 131.847586 357.417196 132.447778 357.417196 133.073514 
C 357.417196 133.699249 357.66594 134.299441 358.108643 134.741903 
C 358.551347 135.184365 359.151866 135.432973 359.777944 135.432973 
z
" style="stroke:#000000;stroke-linejoin:miter;"/>
   </g>
   <g id="patch_43">
    <path clip-path="url(#p499498283f)" d="M 416.435888 118.916757 
C 420.192353 118.916757 423.79547 117.425112 426.451692 114.770339 
C 429.107914 112.115566 430.600374 108.514416 430.600374 104.76 
C 430.600374 101.005584 429.107914 97.404434 426.451692 94.749661 
C 423.79547 92.094888 420.192353 90.603243 416.435888 90.603243 
C 412.679422 90.603243 409.076306 92.094888 406.420084 94.749661 
C 403.763861 97.404434 402.271402 101.005584 402.271402 104.76 
C 402.271402 108.514416 403.763861 112.115566 406.420084 114.770339 
C 409.076306 117.425112 412.679422 118.916757 416.435888 118.916757 
z
" style="fill:none;stroke:#000000;stroke-linejoin:miter;"/>
   </g>
   <g id="patch_44">
    <path clip-path="url(#p499498283f)" d="M 473.093832 118.916757 
C 476.850297 118.916757 480.453414 117.425112 483.109636 114.770339 
C 485.765858 112.115566 487.258318 108.514416 487.258318 104.76 
C 487.258318 101.005584 485.765858 97.404434 483.109636 94.749661 
C 480.453414 92.094888 476.850297 90.603243 473.093832 90.603243 
C 469.337366 90.603243 465.73425 92.094888 463.078028 94.749661 
C 460.421805 97.404434 458.929346 101.005584 458.929346 104.76 
C 458.929346 108.514416 460.421805 112.115566 463.078028 114.770339 
C 465.73425 117.425112 469.337366 118.916757 473.093832 118.916757 
z
" style="fill:#b2b2b2;stroke:#000000;stroke-linejoin:miter;"/>
   </g>
   <g id="patch_45">
    <path clip-path="url(#p499498283f)" d="M 473.093832 118.916757 
C 476.850297 118.916757 480.453414 117.425112 483.109636 114.770339 
C 485.765858 112.115566 487.258318 108.514416 487.258318 104.76 
C 487.258318 101.005584 485.765858 97.404434 483.109636 94.749661 
C 480.453414 92.094888 476.850297 90.603243 473.093832 90.603243 
C 469.337366 90.603243 465.73425 92.094888 463.078028 94.749661 
C 460.421805 97.404434 458.929346 101.005584 458.929346 104.76 
C 458.929346 108.514416 460.421805 112.115566 463.078028 114.770339 
C 465.73425 117.425112 469.337366 118.916757 473.093832 118.916757 
z
" style="fill:none;stroke:#000000;stroke-linejoin:miter;"/>
   </g>
   <g id="patch_46">
    <path clip-path="url(#p499498283f)" d="M 529.751776 118.916757 
C 533.508241 118.916757 537.111357 117.425112 539.76758 114.770339 
C 542.423802 112.115566 543.916262 108.514416 543.916262 104.76 
C 543.916262 101.005584 542.423802 97.404434 539.76758 94.749661 
C 537.111357 92.094888 533.508241 90.603243 529.751776 90.603243 
C 525.99531 90.603243 522.392194 92.094888 519.735972 94.749661 
C 517.079749 97.404434 515.58729 101.005584 515.58729 104.76 
C 515.58729 108.514416 517.079749 112.115566 519.735972 114.770339 
C 522.392194 117.425112 525.99531 118.916757 529.751776 118.916757 
z
" style="fill:none;stroke:#000000;stroke-linejoin:miter;"/>
   </g>
   <g id="patch_47">
    <path clip-path="url(#p499498283f)" d="M 586.40972 118.916757 
C 590.166185 118.916757 593.769301 117.425112 596.425524 114.770339 
C 599.081746 112.115566 600.574206 108.514416 600.574206 104.76 
C 600.574206 101.005584 599.081746 97.404434 596.425524 94.749661 
C 593.769301 92.094888 590.166185 90.603243 586.40972 90.603243 
C 582.653254 90.603243 579.050138 92.094888 576.393916 94.749661 
C 573.737693 97.404434 572.245234 101.005584 572.245234 104.76 
C 572.245234 108.514416 573.737693 112.115566 576.393916 114.770339 
C 579.050138 117.425112 582.653254 118.916757 586.40972 118.916757 
z
" style="fill:none;stroke:#000000;stroke-linejoin:miter;"/>
   </g>
   <g id="matplotlib.axis_1"/>
   <g id="matplotlib.axis_2"/>
   <g id="line2d_1">
    <path clip-path="url(#p499498283f)" d="M 130.785421 189.700541 
L 78.848972 189.700541 
" style="fill:none;stroke:#000000;stroke-linecap:square;"/>
   </g>
   <g id="line2d_2">
    <path clip-path="url(#p499498283f)" d="M 131.476868 188.032151 
L 78.157525 134.741903 
" style="fill:none;stroke:#000000;stroke-linecap:square;"/>
   </g>
   <g id="line2d_3">
    <path clip-path="url(#p499498283f)" d="M 132.09041 187.590176 
L 77.543983 78.556851 
" style="fill:none;stroke:#000000;stroke-linecap:square;"/>
   </g>
   <g id="line2d_4">
    <path clip-path="url(#p499498283f)" d="M 132.399634 187.462161 
L 77.234758 22.057839 
" style="fill:none;stroke:#000000;stroke-linecap:square;"/>
   </g>
   <g id="line2d_5">
    <path clip-path="url(#p499498283f)" d="M 131.476868 134.741903 
L 78.157525 188.032151 
" style="fill:none;stroke:#000000;stroke-linecap:square;"/>
   </g>
   <g id="line2d_6">
    <path clip-path="url(#p499498283f)" d="M 130.785421 133.073514 
L 78.848972 133.073514 
" style="fill:none;stroke:#000000;stroke-linecap:square;"/>
   </g>
   <g id="line2d_7">
    <path clip-path="url(#p499498283f)" d="M 131.476868 131.405124 
L 78.157525 78.114876 
" style="fill:none;stroke:#000000;stroke-linecap:square;"/>
   </g>
   <g id="line2d_8">
    <path clip-path="url(#p499498283f)" d="M 132.09041 130.963149 
L 77.543983 21.929824 
" style="fill:none;stroke:#000000;stroke-linecap:square;"/>
   </g>
   <g id="line2d_9">
    <path clip-path="url(#p499498283f)" d="M 132.09041 78.556851 
L 77.543983 187.590176 
" style="fill:none;stroke:#000000;stroke-linecap:square;"/>
   </g>
   <g id="line2d_10">
    <path clip-path="url(#p499498283f)" d="M 131.476868 78.114876 
L 78.157525 131.405124 
" style="fill:none;stroke:#000000;stroke-linecap:square;"/>
   </g>
   <g id="line2d_11">
    <path clip-path="url(#p499498283f)" d="M 130.785421 76.446486 
L 78.848972 76.446486 
" style="fill:none;stroke:#000000;stroke-linecap:square;"/>
   </g>
   <g id="line2d_12">
    <path clip-path="url(#p499498283f)" d="M 131.476868 74.778097 
L 78.157525 21.487849 
" style="fill:none;stroke:#000000;stroke-linecap:square;"/>
   </g>
   <g id="line2d_13">
    <path clip-path="url(#p499498283f)" d="M 132.399634 22.057839 
L 77.234758 187.462161 
" style="fill:none;stroke:#000000;stroke-linecap:square;"/>
   </g>
   <g id="line2d_14">
    <path clip-path="url(#p499498283f)" d="M 132.09041 21.929824 
L 77.543983 130.963149 
" style="fill:none;stroke:#000000;stroke-linecap:square;"/>
   </g>
   <g id="line2d_15">
    <path clip-path="url(#p499498283f)" d="M 131.476868 21.487849 
L 78.157525 74.778097 
" style="fill:none;stroke:#000000;stroke-linecap:square;"/>
   </g>
   <g id="line2d_16">
    <path clip-path="url(#p499498283f)" d="M 130.785421 19.819459 
L 78.848972 19.819459 
" style="fill:none;stroke:#000000;stroke-linecap:square;"/>
   </g>
   <g id="line2d_17">
    <path clip-path="url(#p499498283f)" d="M 187.443364 189.700541 
L 135.506916 189.700541 
" style="fill:none;stroke:#000000;stroke-linecap:square;"/>
   </g>
   <g id="line2d_18">
    <path clip-path="url(#p499498283f)" d="M 188.134811 188.032151 
L 134.815469 134.741903 
" style="fill:none;stroke:#000000;stroke-linecap:square;"/>
   </g>
   <g id="line2d_19">
    <path clip-path="url(#p499498283f)" d="M 188.748354 187.590176 
L 134.201927 78.556851 
" style="fill:none;stroke:#000000;stroke-linecap:square;"/>
   </g>
   <g id="line2d_20">
    <path clip-path="url(#p499498283f)" d="M 189.057578 187.462161 
L 133.892702 22.057839 
" style="fill:none;stroke:#000000;stroke-linecap:square;"/>
   </g>
   <g id="line2d_21">
    <path clip-path="url(#p499498283f)" d="M 188.134811 134.741903 
L 134.815469 188.032151 
" style="fill:none;stroke:#000000;stroke-linecap:square;"/>
   </g>
   <g id="line2d_22">
    <path clip-path="url(#p499498283f)" d="M 187.443364 133.073514 
L 135.506916 133.073514 
" style="fill:none;stroke:#000000;stroke-linecap:square;"/>
   </g>
   <g id="line2d_23">
    <path clip-path="url(#p499498283f)" d="M 188.134811 131.405124 
L 134.815469 78.114876 
" style="fill:none;stroke:#000000;stroke-linecap:square;"/>
   </g>
   <g id="line2d_24">
    <path clip-path="url(#p499498283f)" d="M 188.748354 130.963149 
L 134.201927 21.929824 
" style="fill:none;stroke:#000000;stroke-linecap:square;"/>
   </g>
   <g id="line2d_25">
    <path clip-path="url(#p499498283f)" d="M 188.748354 78.556851 
L 134.201927 187.590176 
" style="fill:none;stroke:#000000;stroke-linecap:square;"/>
   </g>
   <g id="line2d_26">
    <path clip-path="url(#p499498283f)" d="M 188.134811 78.114876 
L 134.815469 131.405124 
" style="fill:none;stroke:#000000;stroke-linecap:square;"/>
   </g>
   <g id="line2d_27">
    <path clip-path="url(#p499498283f)" d="M 187.443364 76.446486 
L 135.506916 76.446486 
" style="fill:none;stroke:#000000;stroke-linecap:square;"/>
   </g>
   <g id="line2d_28">
    <path clip-path="url(#p499498283f)" d="M 188.134811 74.778097 
L 134.815469 21.487849 
" style="fill:none;stroke:#000000;stroke-linecap:square;"/>
   </g>
   <g id="line2d_29">
    <path clip-path="url(#p499498283f)" d="M 189.057578 22.057839 
L 133.892702 187.462161 
" style="fill:none;stroke:#000000;stroke-linecap:square;"/>
   </g>
   <g id="line2d_30">
    <path clip-path="url(#p499498283f)" d="M 188.748354 21.929824 
L 134.201927 130.963149 
" style="fill:none;stroke:#000000;stroke-linecap:square;"/>
   </g>
   <g id="line2d_31">
    <path clip-path="url(#p499498283f)" d="M 188.134811 21.487849 
L 134.815469 74.778097 
" style="fill:none;stroke:#000000;stroke-linecap:square;"/>
   </g>
   <g id="line2d_32">
    <path clip-path="url(#p499498283f)" d="M 187.443364 19.819459 
L 135.506916 19.819459 
" style="fill:none;stroke:#000000;stroke-linecap:square;"/>
   </g>
   <g id="line2d_33">
    <path clip-path="url(#p499498283f)" d="M 244.101308 189.700541 
L 192.16486 189.700541 
" style="fill:none;stroke:#000000;stroke-linecap:square;"/>
   </g>
   <g id="line2d_34">
    <path clip-path="url(#p499498283f)" d="M 244.792755 188.032151 
L 191.473413 134.741903 
" style="fill:none;stroke:#000000;stroke-linecap:square;"/>
   </g>
   <g id="line2d_35">
    <path clip-path="url(#p499498283f)" d="M 245.406298 187.590176 
L 190.859871 78.556851 
" style="fill:none;stroke:#000000;stroke-linecap:square;"/>
   </g>
   <g id="line2d_36">
    <path clip-path="url(#p499498283f)" d="M 245.715522 187.462161 
L 190.550646 22.057839 
" style="fill:none;stroke:#000000;stroke-linecap:square;"/>
   </g>
   <g id="line2d_37">
    <path clip-path="url(#p499498283f)" d="M 244.792755 134.741903 
L 191.473413 188.032151 
" style="fill:none;stroke:#000000;stroke-linecap:square;"/>
   </g>
   <g id="line2d_38">
    <path clip-path="url(#p499498283f)" d="M 244.101308 133.073514 
L 192.16486 133.073514 
" style="fill:none;stroke:#000000;stroke-linecap:square;"/>
   </g>
   <g id="line2d_39">
    <path clip-path="url(#p499498283f)" d="M 244.792755 131.405124 
L 191.473413 78.114876 
" style="fill:none;stroke:#000000;stroke-linecap:square;"/>
   </g>
   <g id="line2d_40">
    <path clip-path="url(#p499498283f)" d="M 245.406298 130.963149 
L 190.859871 21.929824 
" style="fill:none;stroke:#000000;stroke-linecap:square;"/>
   </g>
   <g id="line2d_41">
    <path clip-path="url(#p499498283f)" d="M 245.406298 78.556851 
L 190.859871 187.590176 
" style="fill:none;stroke:#000000;stroke-linecap:square;"/>
   </g>
   <g id="line2d_42">
    <path clip-path="url(#p499498283f)" d="M 244.792755 78.114876 
L 191.473413 131.405124 
" style="fill:none;stroke:#000000;stroke-linecap:square;"/>
   </g>
   <g id="line2d_43">
    <path clip-path="url(#p499498283f)" d="M 244.101308 76.446486 
L 192.16486 76.446486 
" style="fill:none;stroke:#000000;stroke-linecap:square;"/>
   </g>
   <g id="line2d_44">
    <path clip-path="url(#p499498283f)" d="M 244.792755 74.778097 
L 191.473413 21.487849 
" style="fill:none;stroke:#000000;stroke-linecap:square;"/>
   </g>
   <g id="line2d_45">
    <path clip-path="url(#p499498283f)" d="M 245.715522 22.057839 
L 190.550646 187.462161 
" style="fill:none;stroke:#000000;stroke-linecap:square;"/>
   </g>
   <g id="line2d_46">
    <path clip-path="url(#p499498283f)" d="M 245.406298 21.929824 
L 190.859871 130.963149 
" style="fill:none;stroke:#000000;stroke-linecap:square;"/>
   </g>
   <g id="line2d_47">
    <path clip-path="url(#p499498283f)" d="M 244.792755 21.487849 
L 191.473413 74.778097 
" style="fill:none;stroke:#000000;stroke-linecap:square;"/>
   </g>
   <g id="line2d_48">
    <path clip-path="url(#p499498283f)" d="M 244.101308 19.819459 
L 192.16486 19.819459 
" style="fill:none;stroke:#000000;stroke-linecap:square;"/>
   </g>
   <g id="line2d_49">
    <path clip-path="url(#p499498283f)" d="M 300.759252 189.700541 
L 248.822804 189.700541 
" style="fill:none;stroke:#000000;stroke-linecap:square;"/>
   </g>
   <g id="line2d_50">
    <path clip-path="url(#p499498283f)" d="M 301.450699 188.032151 
L 248.131357 134.741903 
" style="fill:none;stroke:#000000;stroke-linecap:square;"/>
   </g>
   <g id="line2d_51">
    <path clip-path="url(#p499498283f)" d="M 302.064242 187.590176 
L 247.517815 78.556851 
" style="fill:none;stroke:#000000;stroke-linecap:square;"/>
   </g>
   <g id="line2d_52">
    <path clip-path="url(#p499498283f)" d="M 302.373466 187.462161 
L 247.20859 22.057839 
" style="fill:none;stroke:#000000;stroke-linecap:square;"/>
   </g>
   <g id="line2d_53">
    <path clip-path="url(#p499498283f)" d="M 301.450699 134.741903 
L 248.131357 188.032151 
" style="fill:none;stroke:#000000;stroke-linecap:square;"/>
   </g>
   <g id="line2d_54">
    <path clip-path="url(#p499498283f)" d="M 300.759252 133.073514 
L 248.822804 133.073514 
" style="fill:none;stroke:#000000;stroke-linecap:square;"/>
   </g>
   <g id="line2d_55">
    <path clip-path="url(#p499498283f)" d="M 301.450699 131.405124 
L 248.131357 78.114876 
" style="fill:none;stroke:#000000;stroke-linecap:square;"/>
   </g>
   <g id="line2d_56">
    <path clip-path="url(#p499498283f)" d="M 302.064242 130.963149 
L 247.517815 21.929824 
" style="fill:none;stroke:#000000;stroke-linecap:square;"/>
   </g>
   <g id="line2d_57">
    <path clip-path="url(#p499498283f)" d="M 302.064242 78.556851 
L 247.517815 187.590176 
" style="fill:none;stroke:#000000;stroke-linecap:square;"/>
   </g>
   <g id="line2d_58">
    <path clip-path="url(#p499498283f)" d="M 301.450699 78.114876 
L 248.131357 131.405124 
" style="fill:none;stroke:#000000;stroke-linecap:square;"/>
   </g>
   <g id="line2d_59">
    <path clip-path="url(#p499498283f)" d="M 300.759252 76.446486 
L 248.822804 76.446486 
" style="fill:none;stroke:#000000;stroke-linecap:square;"/>
   </g>
   <g id="line2d_60">
    <path clip-path="url(#p499498283f)" d="M 301.450699 74.778097 
L 248.131357 21.487849 
" style="fill:none;stroke:#000000;stroke-linecap:square;"/>
   </g>
   <g id="line2d_61">
    <path clip-path="url(#p499498283f)" d="M 302.373466 22.057839 
L 247.20859 187.462161 
" style="fill:none;stroke:#000000;stroke-linecap:square;"/>
   </g>
   <g id="line2d_62">
    <path clip-path="url(#p499498283f)" d="M 302.064242 21.929824 
L 247.517815 130.963149 
" style="fill:none;stroke:#000000;stroke-linecap:square;"/>
   </g>
   <g id="line2d_63">
    <path clip-path="url(#p499498283f)" d="M 301.450699 21.487849 
L 248.131357 74.778097 
" style="fill:none;stroke:#000000;stroke-linecap:square;"/>
   </g>
   <g id="line2d_64">
    <path clip-path="url(#p499498283f)" d="M 300.759252 19.819459 
L 248.822804 19.819459 
" style="fill:none;stroke:#000000;stroke-linecap:square;"/>
   </g>
   <g id="line2d_65">
    <path clip-path="url(#p499498283f)" d="M 358.722185 78.556851 
L 304.175758 187.590176 
" style="fill:none;stroke:#000000;stroke-linecap:square;"/>
   </g>
   <g id="line2d_66">
    <path clip-path="url(#p499498283f)" d="M 358.108643 134.741903 
L 304.789301 188.032151 
" style="fill:none;stroke:#000000;stroke-linecap:square;"/>
   </g>
   <g id="line2d_67">
    <path clip-path="url(#p499498283f)" d="M 358.108643 78.114876 
L 304.789301 131.405124 
" style="fill:none;stroke:#000000;stroke-linecap:square;"/>
   </g>
   <g id="line2d_68">
    <path clip-path="url(#p499498283f)" d="M 357.417196 133.073514 
L 305.480748 133.073514 
" style="fill:none;stroke:#000000;stroke-linecap:square;"/>
   </g>
   <g id="line2d_69">
    <path clip-path="url(#p499498283f)" d="M 357.417196 76.446486 
L 305.480748 76.446486 
" style="fill:none;stroke:#000000;stroke-linecap:square;"/>
   </g>
   <g id="line2d_70">
    <path clip-path="url(#p499498283f)" d="M 358.108643 131.405124 
L 304.789301 78.114876 
" style="fill:none;stroke:#000000;stroke-linecap:square;"/>
   </g>
   <g id="line2d_71">
    <path clip-path="url(#p499498283f)" d="M 358.108643 74.778097 
L 304.789301 21.487849 
" style="fill:none;stroke:#000000;stroke-linecap:square;"/>
   </g>
   <g id="line2d_72">
    <path clip-path="url(#p499498283f)" d="M 358.722185 130.963149 
L 304.175758 21.929824 
" style="fill:none;stroke:#000000;stroke-linecap:square;"/>
   </g>
   <g id="text_1">
    <!-- miller index $h$ -->
    <g transform="translate(441.266168 165.632745)scale(0.1 -0.1)">
     <defs>
      <path d="M 52 44.1875 
Q 55.375 50.25 60.0625 53.125 
Q 64.75 56 71.09375 56 
Q 79.640625 56 84.28125 50.015625 
Q 88.921875 44.046875 88.921875 33.015625 
L 88.921875 0 
L 79.890625 0 
L 79.890625 32.71875 
Q 79.890625 40.578125 77.09375 44.375 
Q 74.3125 48.1875 68.609375 48.1875 
Q 61.625 48.1875 57.5625 43.546875 
Q 53.515625 38.921875 53.515625 30.90625 
L 53.515625 0 
L 44.484375 0 
L 44.484375 32.71875 
Q 44.484375 40.625 41.703125 44.40625 
Q 38.921875 48.1875 33.109375 48.1875 
Q 26.21875 48.1875 22.15625 43.53125 
Q 18.109375 38.875 18.109375 30.90625 
L 18.109375 0 
L 9.078125 0 
L 9.078125 54.6875 
L 18.109375 54.6875 
L 18.109375 46.1875 
Q 21.1875 51.21875 25.484375 53.609375 
Q 29.78125 56 35.6875 56 
Q 41.65625 56 45.828125 52.96875 
Q 50 49.953125 52 44.1875 
z
" id="DejaVuSans-109"/>
      <path d="M 9.421875 54.6875 
L 18.40625 54.6875 
L 18.40625 0 
L 9.421875 0 
z
M 9.421875 75.984375 
L 18.40625 75.984375 
L 18.40625 64.59375 
L 9.421875 64.59375 
z
" id="DejaVuSans-105"/>
      <path d="M 9.421875 75.984375 
L 18.40625 75.984375 
L 18.40625 0 
L 9.421875 0 
z
" id="DejaVuSans-108"/>
      <path d="M 56.203125 29.59375 
L 56.203125 25.203125 
L 14.890625 25.203125 
Q 15.484375 15.921875 20.484375 11.0625 
Q 25.484375 6.203125 34.421875 6.203125 
Q 39.59375 6.203125 44.453125 7.46875 
Q 49.3125 8.734375 54.109375 11.28125 
L 54.109375 2.78125 
Q 49.265625 0.734375 44.1875 -0.34375 
Q 39.109375 -1.421875 33.890625 -1.421875 
Q 20.796875 -1.421875 13.15625 6.1875 
Q 5.515625 13.8125 5.515625 26.8125 
Q 5.515625 40.234375 12.765625 48.109375 
Q 20.015625 56 32.328125 56 
Q 43.359375 56 49.78125 48.890625 
Q 56.203125 41.796875 56.203125 29.59375 
z
M 47.21875 32.234375 
Q 47.125 39.59375 43.09375 43.984375 
Q 39.0625 48.390625 32.421875 48.390625 
Q 24.90625 48.390625 20.390625 44.140625 
Q 15.875 39.890625 15.1875 32.171875 
z
" id="DejaVuSans-101"/>
      <path d="M 41.109375 46.296875 
Q 39.59375 47.171875 37.8125 47.578125 
Q 36.03125 48 33.890625 48 
Q 26.265625 48 22.1875 43.046875 
Q 18.109375 38.09375 18.109375 28.8125 
L 18.109375 0 
L 9.078125 0 
L 9.078125 54.6875 
L 18.109375 54.6875 
L 18.109375 46.1875 
Q 20.953125 51.171875 25.484375 53.578125 
Q 30.03125 56 36.53125 56 
Q 37.453125 56 38.578125 55.875 
Q 39.703125 55.765625 41.0625 55.515625 
z
" id="DejaVuSans-114"/>
      <path id="DejaVuSans-32"/>
      <path d="M 54.890625 33.015625 
L 54.890625 0 
L 45.90625 0 
L 45.90625 32.71875 
Q 45.90625 40.484375 42.875 44.328125 
Q 39.84375 48.1875 33.796875 48.1875 
Q 26.515625 48.1875 22.3125 43.546875 
Q 18.109375 38.921875 18.109375 30.90625 
L 18.109375 0 
L 9.078125 0 
L 9.078125 54.6875 
L 18.109375 54.6875 
L 18.109375 46.1875 
Q 21.34375 51.125 25.703125 53.5625 
Q 30.078125 56 35.796875 56 
Q 45.21875 56 50.046875 50.171875 
Q 54.890625 44.34375 54.890625 33.015625 
z
" id="DejaVuSans-110"/>
      <path d="M 45.40625 46.390625 
L 45.40625 75.984375 
L 54.390625 75.984375 
L 54.390625 0 
L 45.40625 0 
L 45.40625 8.203125 
Q 42.578125 3.328125 38.25 0.953125 
Q 33.9375 -1.421875 27.875 -1.421875 
Q 17.96875 -1.421875 11.734375 6.484375 
Q 5.515625 14.40625 5.515625 27.296875 
Q 5.515625 40.1875 11.734375 48.09375 
Q 17.96875 56 27.875 56 
Q 33.9375 56 38.25 53.625 
Q 42.578125 51.265625 45.40625 46.390625 
z
M 14.796875 27.296875 
Q 14.796875 17.390625 18.875 11.75 
Q 22.953125 6.109375 30.078125 6.109375 
Q 37.203125 6.109375 41.296875 11.75 
Q 45.40625 17.390625 45.40625 27.296875 
Q 45.40625 37.203125 41.296875 42.84375 
Q 37.203125 48.484375 30.078125 48.484375 
Q 22.953125 48.484375 18.875 42.84375 
Q 14.796875 37.203125 14.796875 27.296875 
z
" id="DejaVuSans-100"/>
      <path d="M 54.890625 54.6875 
L 35.109375 28.078125 
L 55.90625 0 
L 45.3125 0 
L 29.390625 21.484375 
L 13.484375 0 
L 2.875 0 
L 24.125 28.609375 
L 4.6875 54.6875 
L 15.28125 54.6875 
L 29.78125 35.203125 
L 44.28125 54.6875 
z
" id="DejaVuSans-120"/>
      <path d="M 55.71875 33.015625 
L 49.3125 0 
L 40.28125 0 
L 46.6875 32.671875 
Q 47.125 34.96875 47.359375 36.71875 
Q 47.609375 38.484375 47.609375 39.5 
Q 47.609375 43.609375 45.015625 45.890625 
Q 42.4375 48.1875 37.796875 48.1875 
Q 30.5625 48.1875 25.265625 43.296875 
Q 19.96875 38.421875 18.40625 30.328125 
L 12.5 0 
L 3.515625 0 
L 18.3125 75.984375 
L 27.296875 75.984375 
L 21.484375 46.09375 
Q 24.90625 50.6875 30.21875 53.34375 
Q 35.546875 56 41.40625 56 
Q 48.640625 56 52.609375 52.09375 
Q 56.59375 48.1875 56.59375 41.109375 
Q 56.59375 39.359375 56.375 37.359375 
Q 56.15625 35.359375 55.71875 33.015625 
z
" id="DejaVuSans-Oblique-104"/>
     </defs>
     <use transform="translate(0 0.015625)" xlink:href="#DejaVuSans-109"/>
     <use transform="translate(97.412109 0.015625)" xlink:href="#DejaVuSans-105"/>
     <use transform="translate(125.195312 0.015625)" xlink:href="#DejaVuSans-108"/>
     <use transform="translate(152.978516 0.015625)" xlink:href="#DejaVuSans-108"/>
     <use transform="translate(180.761719 0.015625)" xlink:href="#DejaVuSans-101"/>
     <use transform="translate(242.285156 0.015625)" xlink:href="#DejaVuSans-114"/>
     <use transform="translate(283.398438 0.015625)" xlink:href="#DejaVuSans-32"/>
     <use transform="translate(315.185547 0.015625)" xlink:href="#DejaVuSans-105"/>
     <use transform="translate(342.96875 0.015625)" xlink:href="#DejaVuSans-110"/>
     <use transform="translate(406.347656 0.015625)" xlink:href="#DejaVuSans-100"/>
     <use transform="translate(469.824219 0.015625)" xlink:href="#DejaVuSans-101"/>
     <use transform="translate(531.347656 0.015625)" xlink:href="#DejaVuSans-120"/>
     <use transform="translate(590.527344 0.015625)" xlink:href="#DejaVuSans-32"/>
     <use transform="translate(622.314453 0.015625)" xlink:href="#DejaVuSans-Oblique-104"/>
    </g>
   </g>
   <g id="text_2">
    <!-- image $i$ -->
    <g transform="translate(449.76486 131.636216)scale(0.1 -0.1)">
     <defs>
      <path d="M 34.28125 27.484375 
Q 23.390625 27.484375 19.1875 25 
Q 14.984375 22.515625 14.984375 16.5 
Q 14.984375 11.71875 18.140625 8.90625 
Q 21.296875 6.109375 26.703125 6.109375 
Q 34.1875 6.109375 38.703125 11.40625 
Q 43.21875 16.703125 43.21875 25.484375 
L 43.21875 27.484375 
z
M 52.203125 31.203125 
L 52.203125 0 
L 43.21875 0 
L 43.21875 8.296875 
Q 40.140625 3.328125 35.546875 0.953125 
Q 30.953125 -1.421875 24.3125 -1.421875 
Q 15.921875 -1.421875 10.953125 3.296875 
Q 6 8.015625 6 15.921875 
Q 6 25.140625 12.171875 29.828125 
Q 18.359375 34.515625 30.609375 34.515625 
L 43.21875 34.515625 
L 43.21875 35.40625 
Q 43.21875 41.609375 39.140625 45 
Q 35.0625 48.390625 27.6875 48.390625 
Q 23 48.390625 18.546875 47.265625 
Q 14.109375 46.140625 10.015625 43.890625 
L 10.015625 52.203125 
Q 14.9375 54.109375 19.578125 55.046875 
Q 24.21875 56 28.609375 56 
Q 40.484375 56 46.34375 49.84375 
Q 52.203125 43.703125 52.203125 31.203125 
z
" id="DejaVuSans-97"/>
      <path d="M 45.40625 27.984375 
Q 45.40625 37.75 41.375 43.109375 
Q 37.359375 48.484375 30.078125 48.484375 
Q 22.859375 48.484375 18.828125 43.109375 
Q 14.796875 37.75 14.796875 27.984375 
Q 14.796875 18.265625 18.828125 12.890625 
Q 22.859375 7.515625 30.078125 7.515625 
Q 37.359375 7.515625 41.375 12.890625 
Q 45.40625 18.265625 45.40625 27.984375 
z
M 54.390625 6.78125 
Q 54.390625 -7.171875 48.1875 -13.984375 
Q 42 -20.796875 29.203125 -20.796875 
Q 24.46875 -20.796875 20.265625 -20.09375 
Q 16.0625 -19.390625 12.109375 -17.921875 
L 12.109375 -9.1875 
Q 16.0625 -11.328125 19.921875 -12.34375 
Q 23.78125 -13.375 27.78125 -13.375 
Q 36.625 -13.375 41.015625 -8.765625 
Q 45.40625 -4.15625 45.40625 5.171875 
L 45.40625 9.625 
Q 42.625 4.78125 38.28125 2.390625 
Q 33.9375 0 27.875 0 
Q 17.828125 0 11.671875 7.65625 
Q 5.515625 15.328125 5.515625 27.984375 
Q 5.515625 40.671875 11.671875 48.328125 
Q 17.828125 56 27.875 56 
Q 33.9375 56 38.28125 53.609375 
Q 42.625 51.21875 45.40625 46.390625 
L 45.40625 54.6875 
L 54.390625 54.6875 
z
" id="DejaVuSans-103"/>
      <path d="M 18.3125 75.984375 
L 27.296875 75.984375 
L 25.09375 64.59375 
L 16.109375 64.59375 
z
M 14.203125 54.6875 
L 23.1875 54.6875 
L 12.5 0 
L 3.515625 0 
z
" id="DejaVuSans-Oblique-105"/>
     </defs>
     <use transform="translate(0 0.015625)" xlink:href="#DejaVuSans-105"/>
     <use transform="translate(27.783203 0.015625)" xlink:href="#DejaVuSans-109"/>
     <use transform="translate(125.195312 0.015625)" xlink:href="#DejaVuSans-97"/>
     <use transform="translate(186.474609 0.015625)" xlink:href="#DejaVuSans-103"/>
     <use transform="translate(249.951172 0.015625)" xlink:href="#DejaVuSans-101"/>
     <use transform="translate(311.474609 0.015625)" xlink:href="#DejaVuSans-32"/>
     <use transform="translate(343.261719 0.015625)" xlink:href="#DejaVuSans-Oblique-105"/>
    </g>
   </g>
   <g id="text_3">
    <!-- $m_{i}$ -->
    <g transform="translate(13.83028 192.459916)scale(0.1 -0.1)">
     <defs>
      <path d="M 89.796875 33.015625 
L 83.40625 0 
L 74.421875 0 
L 80.71875 32.71875 
Q 81.109375 34.8125 81.296875 36.328125 
Q 81.5 37.84375 81.5 38.921875 
Q 81.5 43.3125 79.046875 45.75 
Q 76.609375 48.1875 72.21875 48.1875 
Q 65.671875 48.1875 60.546875 43.28125 
Q 55.421875 38.375 53.90625 30.515625 
L 47.90625 0 
L 38.921875 0 
L 45.3125 32.71875 
Q 45.703125 34.515625 45.890625 36.046875 
Q 46.09375 37.59375 46.09375 38.8125 
Q 46.09375 43.265625 43.65625 45.71875 
Q 41.21875 48.1875 36.921875 48.1875 
Q 30.28125 48.1875 25.140625 43.28125 
Q 20.015625 38.375 18.5 30.515625 
L 12.5 0 
L 3.515625 0 
L 14.203125 54.6875 
L 23.1875 54.6875 
L 21.484375 46.1875 
Q 25.140625 50.984375 30.046875 53.484375 
Q 34.96875 56 40.578125 56 
Q 46.53125 56 50.359375 52.875 
Q 54.203125 49.75 54.984375 44.1875 
Q 59.078125 49.953125 64.46875 52.96875 
Q 69.875 56 75.875 56 
Q 82.90625 56 86.734375 51.953125 
Q 90.578125 47.90625 90.578125 40.484375 
Q 90.578125 38.875 90.375 36.9375 
Q 90.1875 35.015625 89.796875 33.015625 
z
" id="DejaVuSans-Oblique-109"/>
     </defs>
     <use xlink:href="#DejaVuSans-Oblique-109"/>
     <use transform="translate(97.412109 -16.40625)scale(0.7)" xlink:href="#DejaVuSans-Oblique-105"/>
    </g>
   </g>
   <g id="text_4">
    <!-- $m_{i}$ -->
    <g transform="translate(13.83028 135.832889)scale(0.1 -0.1)">
     <use xlink:href="#DejaVuSans-Oblique-109"/>
     <use transform="translate(97.412109 -16.40625)scale(0.7)" xlink:href="#DejaVuSans-Oblique-105"/>
    </g>
   </g>
   <g id="text_5">
    <!-- $m_{i}$ -->
    <g transform="translate(13.83028 79.205861)scale(0.1 -0.1)">
     <use xlink:href="#DejaVuSans-Oblique-109"/>
     <use transform="translate(97.412109 -16.40625)scale(0.7)" xlink:href="#DejaVuSans-Oblique-105"/>
    </g>
   </g>
   <g id="text_6">
    <!-- $m_{i}$ -->
    <g transform="translate(13.83028 22.578834)scale(0.1 -0.1)">
     <use xlink:href="#DejaVuSans-Oblique-109"/>
     <use transform="translate(97.412109 -16.40625)scale(0.7)" xlink:href="#DejaVuSans-Oblique-105"/>
    </g>
   </g>
   <g id="text_7">
    <!-- $\Sigma$ -->
    <g transform="translate(413.235888 107.519375)scale(0.1 -0.1)">
     <defs>
      <path d="M 21.140625 8.296875 
L 56.78125 8.296875 
L 56.78125 0 
L 9.8125 0 
L 9.8125 8.296875 
L 33.203125 38.765625 
L 9.8125 64.59375 
L 9.8125 72.90625 
L 55.90625 72.90625 
L 55.90625 64.59375 
L 21.140625 64.59375 
L 44.53125 38.96875 
z
" id="DejaVuSans-931"/>
     </defs>
     <use transform="translate(0 0.09375)" xlink:href="#DejaVuSans-931"/>
    </g>
   </g>
   <g id="text_8">
    <!-- $I_{h}^{i}$ -->
    <g transform="translate(469.243832 107.96)scale(0.1 -0.1)">
     <defs>
      <path d="M 16.890625 72.90625 
L 26.8125 72.90625 
L 12.59375 0 
L 2.6875 0 
z
" id="DejaVuSans-Oblique-73"/>
     </defs>
     <use transform="translate(0 0.465625)" xlink:href="#DejaVuSans-Oblique-73"/>
     <use transform="translate(36.508958 38.810938)scale(0.7)" xlink:href="#DejaVuSans-Oblique-105"/>
     <use transform="translate(29.492188 -26.878125)scale(0.7)" xlink:href="#DejaVuSans-Oblique-104"/>
    </g>
   </g>
   <g id="text_9">
    <!-- $F_{h}$ -->
    <g transform="translate(524.501776 107.519375)scale(0.1 -0.1)">
     <defs>
      <path d="M 16.890625 72.90625 
L 58.6875 72.90625 
L 57.078125 64.59375 
L 25.09375 64.59375 
L 20.90625 43.109375 
L 49.8125 43.109375 
L 48.1875 34.8125 
L 19.28125 34.8125 
L 12.5 0 
L 2.6875 0 
z
" id="DejaVuSans-Oblique-70"/>
     </defs>
     <use transform="translate(0 0.09375)" xlink:href="#DejaVuSans-Oblique-70"/>
     <use transform="translate(57.519531 -16.3125)scale(0.7)" xlink:href="#DejaVuSans-Oblique-104"/>
    </g>
   </g>
   <g id="text_10">
    <!-- W -->
    <g transform="translate(581.46597 107.519375)scale(0.1 -0.1)">
     <defs>
      <path d="M 3.328125 72.90625 
L 13.28125 72.90625 
L 28.609375 11.28125 
L 43.890625 72.90625 
L 54.984375 72.90625 
L 70.3125 11.28125 
L 85.59375 72.90625 
L 95.609375 72.90625 
L 77.296875 0 
L 64.890625 0 
L 49.515625 63.28125 
L 33.984375 0 
L 21.578125 0 
z
" id="DejaVuSans-87"/>
     </defs>
     <use xlink:href="#DejaVuSans-87"/>
    </g>
   </g>
  </g>
 </g>
 <defs>
  <clipPath id="p499498283f">
   <rect height="209.52" width="606.24" x="0" y="0"/>
  </clipPath>
 </defs>
</svg>
