<?xml version="1.0" encoding="utf-8" standalone="no"?>
<!DOCTYPE svg PUBLIC "-//W3C//DTD SVG 1.1//EN"
  "http://www.w3.org/Graphics/SVG/1.1/DTD/svg11.dtd">
<!-- Created with matplotlib (https://matplotlib.org/) -->
<svg height="209.76378pt" version="1.1" viewBox="0 0 555.590551 209.76378" width="555.590551pt" xmlns="http://www.w3.org/2000/svg" xmlns:xlink="http://www.w3.org/1999/xlink">
 <metadata>
  <rdf:RDF xmlns:cc="http://creativecommons.org/ns#" xmlns:dc="http://purl.org/dc/elements/1.1/" xmlns:rdf="http://www.w3.org/1999/02/22-rdf-syntax-ns#">
   <cc:Work>
    <dc:type rdf:resource="http://purl.org/dc/dcmitype/StillImage"/>
    <dc:date>2020-09-02T12:30:02.557861</dc:date>
    <dc:format>image/svg+xml</dc:format>
    <dc:creator>
     <cc:Agent>
      <dc:title>Matplotlib v3.3.0, https://matplotlib.org/</dc:title>
     </cc:Agent>
    </dc:creator>
   </cc:Work>
  </rdf:RDF>
 </metadata>
 <defs>
  <style type="text/css">*{stroke-linecap:butt;stroke-linejoin:round;}</style>
 </defs>
 <g id="figure_1">
  <g id="patch_1">
   <path d="M 0 209.76378 
L 555.590551 209.76378 
L 555.590551 0 
L 0 0 
z
" style="fill:#ffffff;"/>
  </g>
  <g id="axes_1">
   <g id="patch_2">
    <path clip-path="url(#pe8e13a02df)" d="M 436.535433 172.913386 
L 549.92126 172.913386 
L 549.92126 59.527559 
L 436.535433 59.527559 
z
" style="fill:none;stroke:#000000;stroke-linejoin:miter;"/>
   </g>
   <g id="patch_3">
    <path clip-path="url(#pe8e13a02df)" d="M 445.03937 138.897638 
L 501.732283 138.897638 
L 501.732283 82.204724 
L 445.03937 82.204724 
z
" style="fill:none;stroke:#000000;stroke-linejoin:miter;"/>
   </g>
   <g id="patch_4">
    <path clip-path="url(#pe8e13a02df)" d="M 71.811024 189.92126 
L 64.724409 191.338583 
L 64.724409 189.92126 
L 34.015748 189.92126 
L 34.015748 189.92126 
L 64.724409 189.92126 
L 64.724409 188.503937 
z
" style="stroke:#000000;stroke-linejoin:miter;"/>
   </g>
   <g id="patch_5">
    <path clip-path="url(#pe8e13a02df)" d="M 71.811024 133.228346 
L 64.724409 134.645669 
L 64.724409 133.228346 
L 34.015748 133.228346 
L 34.015748 133.228346 
L 64.724409 133.228346 
L 64.724409 131.811024 
z
" style="stroke:#000000;stroke-linejoin:miter;"/>
   </g>
   <g id="patch_6">
    <path clip-path="url(#pe8e13a02df)" d="M 71.811024 76.535433 
L 64.724409 77.952756 
L 64.724409 76.535433 
L 34.015748 76.535433 
L 34.015748 76.535433 
L 64.724409 76.535433 
L 64.724409 75.11811 
z
" style="stroke:#000000;stroke-linejoin:miter;"/>
   </g>
   <g id="patch_7">
    <path clip-path="url(#pe8e13a02df)" d="M 71.811024 19.84252 
L 64.724409 21.259843 
L 64.724409 19.84252 
L 34.015748 19.84252 
L 34.015748 19.84252 
L 64.724409 19.84252 
L 64.724409 18.425197 
z
" style="stroke:#000000;stroke-linejoin:miter;"/>
   </g>
   <g id="patch_8">
    <path clip-path="url(#pe8e13a02df)" d="M 404.015993 98.543429 
L 397.043686 96.641891 
L 397.677532 95.374199 
L 368.451281 80.761073 
L 368.451281 80.761073 
L 397.677532 95.374199 
L 398.311378 94.106507 
z
" style="stroke:#000000;stroke-linejoin:miter;"/>
   </g>
   <g id="patch_9">
    <path clip-path="url(#pe8e13a02df)" d="M 404.015993 111.22035 
L 398.311378 115.657272 
L 397.677532 114.38958 
L 368.451281 129.002706 
L 368.451281 129.002706 
L 397.677532 114.38958 
L 397.043686 113.121888 
z
" style="stroke:#000000;stroke-linejoin:miter;"/>
   </g>
   <g id="patch_10">
    <path clip-path="url(#pe8e13a02df)" d="M 459.212598 104.88189 
L 452.125984 106.299213 
L 452.125984 104.88189 
L 430.866142 104.88189 
L 430.866142 104.88189 
L 452.125984 104.88189 
L 452.125984 103.464567 
z
" style="stroke:#000000;stroke-linejoin:miter;"/>
   </g>
   <g id="patch_11">
    <path clip-path="url(#pe8e13a02df)" d="M 487.559055 104.88189 
L 494.645669 103.464567 
L 494.645669 104.88189 
L 515.905512 104.88189 
L 515.905512 104.88189 
L 494.645669 104.88189 
L 494.645669 106.299213 
z
" style="stroke:#000000;stroke-linejoin:miter;"/>
   </g>
   <g id="patch_12">
    <path clip-path="url(#pe8e13a02df)" d="M 76.535433 194.645669 
C 77.788361 194.645669 78.990141 194.147876 79.876095 193.261922 
C 80.762049 192.375968 81.259843 191.174188 81.259843 189.92126 
C 81.259843 188.668332 80.762049 187.466552 79.876095 186.580598 
C 78.990141 185.694644 77.788361 185.19685 76.535433 185.19685 
C 75.282505 185.19685 74.080725 185.694644 73.194771 186.580598 
C 72.308817 187.466552 71.811024 188.668332 71.811024 189.92126 
C 71.811024 191.174188 72.308817 192.375968 73.194771 193.261922 
C 74.080725 194.147876 75.282505 194.645669 76.535433 194.645669 
z
" style="stroke:#000000;stroke-linejoin:miter;"/>
   </g>
   <g id="patch_13">
    <path clip-path="url(#pe8e13a02df)" d="M 76.535433 137.952756 
C 77.788361 137.952756 78.990141 137.454962 79.876095 136.569008 
C 80.762049 135.683055 81.259843 134.481274 81.259843 133.228346 
C 81.259843 131.975418 80.762049 130.773638 79.876095 129.887684 
C 78.990141 129.001731 77.788361 128.503937 76.535433 128.503937 
C 75.282505 128.503937 74.080725 129.001731 73.194771 129.887684 
C 72.308817 130.773638 71.811024 131.975418 71.811024 133.228346 
C 71.811024 134.481274 72.308817 135.683055 73.194771 136.569008 
C 74.080725 137.454962 75.282505 137.952756 76.535433 137.952756 
z
" style="stroke:#000000;stroke-linejoin:miter;"/>
   </g>
   <g id="patch_14">
    <path clip-path="url(#pe8e13a02df)" d="M 76.535433 81.259843 
C 77.788361 81.259843 78.990141 80.762049 79.876095 79.876095 
C 80.762049 78.990141 81.259843 77.788361 81.259843 76.535433 
C 81.259843 75.282505 80.762049 74.080725 79.876095 73.194771 
C 78.990141 72.308817 77.788361 71.811024 76.535433 71.811024 
C 75.282505 71.811024 74.080725 72.308817 73.194771 73.194771 
C 72.308817 74.080725 71.811024 75.282505 71.811024 76.535433 
C 71.811024 77.788361 72.308817 78.990141 73.194771 79.876095 
C 74.080725 80.762049 75.282505 81.259843 76.535433 81.259843 
z
" style="stroke:#000000;stroke-linejoin:miter;"/>
   </g>
   <g id="patch_15">
    <path clip-path="url(#pe8e13a02df)" d="M 76.535433 24.566929 
C 77.788361 24.566929 78.990141 24.069136 79.876095 23.183182 
C 80.762049 22.297228 81.259843 21.095448 81.259843 19.84252 
C 81.259843 18.589592 80.762049 17.387812 79.876095 16.501858 
C 78.990141 15.615904 77.788361 15.11811 76.535433 15.11811 
C 75.282505 15.11811 74.080725 15.615904 73.194771 16.501858 
C 72.308817 17.387812 71.811024 18.589592 71.811024 19.84252 
C 71.811024 21.095448 72.308817 22.297228 73.194771 23.183182 
C 74.080725 24.069136 75.282505 24.566929 76.535433 24.566929 
z
" style="stroke:#000000;stroke-linejoin:miter;"/>
   </g>
   <g id="patch_16">
    <path clip-path="url(#pe8e13a02df)" d="M 133.228346 194.645669 
C 134.481274 194.645669 135.683055 194.147876 136.569008 193.261922 
C 137.454962 192.375968 137.952756 191.174188 137.952756 189.92126 
C 137.952756 188.668332 137.454962 187.466552 136.569008 186.580598 
C 135.683055 185.694644 134.481274 185.19685 133.228346 185.19685 
C 131.975418 185.19685 130.773638 185.694644 129.887684 186.580598 
C 129.001731 187.466552 128.503937 188.668332 128.503937 189.92126 
C 128.503937 191.174188 129.001731 192.375968 129.887684 193.261922 
C 130.773638 194.147876 131.975418 194.645669 133.228346 194.645669 
z
" style="stroke:#000000;stroke-linejoin:miter;"/>
   </g>
   <g id="patch_17">
    <path clip-path="url(#pe8e13a02df)" d="M 133.228346 137.952756 
C 134.481274 137.952756 135.683055 137.454962 136.569008 136.569008 
C 137.454962 135.683055 137.952756 134.481274 137.952756 133.228346 
C 137.952756 131.975418 137.454962 130.773638 136.569008 129.887684 
C 135.683055 129.001731 134.481274 128.503937 133.228346 128.503937 
C 131.975418 128.503937 130.773638 129.001731 129.887684 129.887684 
C 129.001731 130.773638 128.503937 131.975418 128.503937 133.228346 
C 128.503937 134.481274 129.001731 135.683055 129.887684 136.569008 
C 130.773638 137.454962 131.975418 137.952756 133.228346 137.952756 
z
" style="stroke:#000000;stroke-linejoin:miter;"/>
   </g>
   <g id="patch_18">
    <path clip-path="url(#pe8e13a02df)" d="M 133.228346 81.259843 
C 134.481274 81.259843 135.683055 80.762049 136.569008 79.876095 
C 137.454962 78.990141 137.952756 77.788361 137.952756 76.535433 
C 137.952756 75.282505 137.454962 74.080725 136.569008 73.194771 
C 135.683055 72.308817 134.481274 71.811024 133.228346 71.811024 
C 131.975418 71.811024 130.773638 72.308817 129.887684 73.194771 
C 129.001731 74.080725 128.503937 75.282505 128.503937 76.535433 
C 128.503937 77.788361 129.001731 78.990141 129.887684 79.876095 
C 130.773638 80.762049 131.975418 81.259843 133.228346 81.259843 
z
" style="stroke:#000000;stroke-linejoin:miter;"/>
   </g>
   <g id="patch_19">
    <path clip-path="url(#pe8e13a02df)" d="M 133.228346 24.566929 
C 134.481274 24.566929 135.683055 24.069136 136.569008 23.183182 
C 137.454962 22.297228 137.952756 21.095448 137.952756 19.84252 
C 137.952756 18.589592 137.454962 17.387812 136.569008 16.501858 
C 135.683055 15.615904 134.481274 15.11811 133.228346 15.11811 
C 131.975418 15.11811 130.773638 15.615904 129.887684 16.501858 
C 129.001731 17.387812 128.503937 18.589592 128.503937 19.84252 
C 128.503937 21.095448 129.001731 22.297228 129.887684 23.183182 
C 130.773638 24.069136 131.975418 24.566929 133.228346 24.566929 
z
" style="stroke:#000000;stroke-linejoin:miter;"/>
   </g>
   <g id="patch_20">
    <path clip-path="url(#pe8e13a02df)" d="M 189.92126 194.645669 
C 191.174188 194.645669 192.375968 194.147876 193.261922 193.261922 
C 194.147876 192.375968 194.645669 191.174188 194.645669 189.92126 
C 194.645669 188.668332 194.147876 187.466552 193.261922 186.580598 
C 192.375968 185.694644 191.174188 185.19685 189.92126 185.19685 
C 188.668332 185.19685 187.466552 185.694644 186.580598 186.580598 
C 185.694644 187.466552 185.19685 188.668332 185.19685 189.92126 
C 185.19685 191.174188 185.694644 192.375968 186.580598 193.261922 
C 187.466552 194.147876 188.668332 194.645669 189.92126 194.645669 
z
" style="stroke:#000000;stroke-linejoin:miter;"/>
   </g>
   <g id="patch_21">
    <path clip-path="url(#pe8e13a02df)" d="M 189.92126 137.952756 
C 191.174188 137.952756 192.375968 137.454962 193.261922 136.569008 
C 194.147876 135.683055 194.645669 134.481274 194.645669 133.228346 
C 194.645669 131.975418 194.147876 130.773638 193.261922 129.887684 
C 192.375968 129.001731 191.174188 128.503937 189.92126 128.503937 
C 188.668332 128.503937 187.466552 129.001731 186.580598 129.887684 
C 185.694644 130.773638 185.19685 131.975418 185.19685 133.228346 
C 185.19685 134.481274 185.694644 135.683055 186.580598 136.569008 
C 187.466552 137.454962 188.668332 137.952756 189.92126 137.952756 
z
" style="stroke:#000000;stroke-linejoin:miter;"/>
   </g>
   <g id="patch_22">
    <path clip-path="url(#pe8e13a02df)" d="M 189.92126 81.259843 
C 191.174188 81.259843 192.375968 80.762049 193.261922 79.876095 
C 194.147876 78.990141 194.645669 77.788361 194.645669 76.535433 
C 194.645669 75.282505 194.147876 74.080725 193.261922 73.194771 
C 192.375968 72.308817 191.174188 71.811024 189.92126 71.811024 
C 188.668332 71.811024 187.466552 72.308817 186.580598 73.194771 
C 185.694644 74.080725 185.19685 75.282505 185.19685 76.535433 
C 185.19685 77.788361 185.694644 78.990141 186.580598 79.876095 
C 187.466552 80.762049 188.668332 81.259843 189.92126 81.259843 
z
" style="stroke:#000000;stroke-linejoin:miter;"/>
   </g>
   <g id="patch_23">
    <path clip-path="url(#pe8e13a02df)" d="M 189.92126 24.566929 
C 191.174188 24.566929 192.375968 24.069136 193.261922 23.183182 
C 194.147876 22.297228 194.645669 21.095448 194.645669 19.84252 
C 194.645669 18.589592 194.147876 17.387812 193.261922 16.501858 
C 192.375968 15.615904 191.174188 15.11811 189.92126 15.11811 
C 188.668332 15.11811 187.466552 15.615904 186.580598 16.501858 
C 185.694644 17.387812 185.19685 18.589592 185.19685 19.84252 
C 185.19685 21.095448 185.694644 22.297228 186.580598 23.183182 
C 187.466552 24.069136 188.668332 24.566929 189.92126 24.566929 
z
" style="stroke:#000000;stroke-linejoin:miter;"/>
   </g>
   <g id="patch_24">
    <path clip-path="url(#pe8e13a02df)" d="M 246.614173 194.645669 
C 247.867101 194.645669 249.068881 194.147876 249.954835 193.261922 
C 250.840789 192.375968 251.338583 191.174188 251.338583 189.92126 
C 251.338583 188.668332 250.840789 187.466552 249.954835 186.580598 
C 249.068881 185.694644 247.867101 185.19685 246.614173 185.19685 
C 245.361245 185.19685 244.159465 185.694644 243.273511 186.580598 
C 242.387557 187.466552 241.889764 188.668332 241.889764 189.92126 
C 241.889764 191.174188 242.387557 192.375968 243.273511 193.261922 
C 244.159465 194.147876 245.361245 194.645669 246.614173 194.645669 
z
" style="stroke:#000000;stroke-linejoin:miter;"/>
   </g>
   <g id="patch_25">
    <path clip-path="url(#pe8e13a02df)" d="M 246.614173 137.952756 
C 247.867101 137.952756 249.068881 137.454962 249.954835 136.569008 
C 250.840789 135.683055 251.338583 134.481274 251.338583 133.228346 
C 251.338583 131.975418 250.840789 130.773638 249.954835 129.887684 
C 249.068881 129.001731 247.867101 128.503937 246.614173 128.503937 
C 245.361245 128.503937 244.159465 129.001731 243.273511 129.887684 
C 242.387557 130.773638 241.889764 131.975418 241.889764 133.228346 
C 241.889764 134.481274 242.387557 135.683055 243.273511 136.569008 
C 244.159465 137.454962 245.361245 137.952756 246.614173 137.952756 
z
" style="stroke:#000000;stroke-linejoin:miter;"/>
   </g>
   <g id="patch_26">
    <path clip-path="url(#pe8e13a02df)" d="M 246.614173 81.259843 
C 247.867101 81.259843 249.068881 80.762049 249.954835 79.876095 
C 250.840789 78.990141 251.338583 77.788361 251.338583 76.535433 
C 251.338583 75.282505 250.840789 74.080725 249.954835 73.194771 
C 249.068881 72.308817 247.867101 71.811024 246.614173 71.811024 
C 245.361245 71.811024 244.159465 72.308817 243.273511 73.194771 
C 242.387557 74.080725 241.889764 75.282505 241.889764 76.535433 
C 241.889764 77.788361 242.387557 78.990141 243.273511 79.876095 
C 244.159465 80.762049 245.361245 81.259843 246.614173 81.259843 
z
" style="stroke:#000000;stroke-linejoin:miter;"/>
   </g>
   <g id="patch_27">
    <path clip-path="url(#pe8e13a02df)" d="M 246.614173 24.566929 
C 247.867101 24.566929 249.068881 24.069136 249.954835 23.183182 
C 250.840789 22.297228 251.338583 21.095448 251.338583 19.84252 
C 251.338583 18.589592 250.840789 17.387812 249.954835 16.501858 
C 249.068881 15.615904 247.867101 15.11811 246.614173 15.11811 
C 245.361245 15.11811 244.159465 15.615904 243.273511 16.501858 
C 242.387557 17.387812 241.889764 18.589592 241.889764 19.84252 
C 241.889764 21.095448 242.387557 22.297228 243.273511 23.183182 
C 244.159465 24.069136 245.361245 24.566929 246.614173 24.566929 
z
" style="stroke:#000000;stroke-linejoin:miter;"/>
   </g>
   <g id="patch_28">
    <path clip-path="url(#pe8e13a02df)" d="M 303.307087 194.645669 
C 304.560015 194.645669 305.761795 194.147876 306.647749 193.261922 
C 307.533702 192.375968 308.031496 191.174188 308.031496 189.92126 
C 308.031496 188.668332 307.533702 187.466552 306.647749 186.580598 
C 305.761795 185.694644 304.560015 185.19685 303.307087 185.19685 
C 302.054159 185.19685 300.852379 185.694644 299.966425 186.580598 
C 299.080471 187.466552 298.582677 188.668332 298.582677 189.92126 
C 298.582677 191.174188 299.080471 192.375968 299.966425 193.261922 
C 300.852379 194.147876 302.054159 194.645669 303.307087 194.645669 
z
" style="stroke:#000000;stroke-linejoin:miter;"/>
   </g>
   <g id="patch_29">
    <path clip-path="url(#pe8e13a02df)" d="M 303.307087 137.952756 
C 304.560015 137.952756 305.761795 137.454962 306.647749 136.569008 
C 307.533702 135.683055 308.031496 134.481274 308.031496 133.228346 
C 308.031496 131.975418 307.533702 130.773638 306.647749 129.887684 
C 305.761795 129.001731 304.560015 128.503937 303.307087 128.503937 
C 302.054159 128.503937 300.852379 129.001731 299.966425 129.887684 
C 299.080471 130.773638 298.582677 131.975418 298.582677 133.228346 
C 298.582677 134.481274 299.080471 135.683055 299.966425 136.569008 
C 300.852379 137.454962 302.054159 137.952756 303.307087 137.952756 
z
" style="stroke:#000000;stroke-linejoin:miter;"/>
   </g>
   <g id="patch_30">
    <path clip-path="url(#pe8e13a02df)" d="M 303.307087 81.259843 
C 304.560015 81.259843 305.761795 80.762049 306.647749 79.876095 
C 307.533702 78.990141 308.031496 77.788361 308.031496 76.535433 
C 308.031496 75.282505 307.533702 74.080725 306.647749 73.194771 
C 305.761795 72.308817 304.560015 71.811024 303.307087 71.811024 
C 302.054159 71.811024 300.852379 72.308817 299.966425 73.194771 
C 299.080471 74.080725 298.582677 75.282505 298.582677 76.535433 
C 298.582677 77.788361 299.080471 78.990141 299.966425 79.876095 
C 300.852379 80.762049 302.054159 81.259843 303.307087 81.259843 
z
" style="stroke:#000000;stroke-linejoin:miter;"/>
   </g>
   <g id="patch_31">
    <path clip-path="url(#pe8e13a02df)" d="M 303.307087 24.566929 
C 304.560015 24.566929 305.761795 24.069136 306.647749 23.183182 
C 307.533702 22.297228 308.031496 21.095448 308.031496 19.84252 
C 308.031496 18.589592 307.533702 17.387812 306.647749 16.501858 
C 305.761795 15.615904 304.560015 15.11811 303.307087 15.11811 
C 302.054159 15.11811 300.852379 15.615904 299.966425 16.501858 
C 299.080471 17.387812 298.582677 18.589592 298.582677 19.84252 
C 298.582677 21.095448 299.080471 22.297228 299.966425 23.183182 
C 300.852379 24.069136 302.054159 24.566929 303.307087 24.566929 
z
" style="stroke:#000000;stroke-linejoin:miter;"/>
   </g>
   <g id="patch_32">
    <path clip-path="url(#pe8e13a02df)" d="M 19.84252 204.094488 
C 23.601304 204.094488 27.206644 202.601107 29.864506 199.943246 
C 32.522367 197.285384 34.015748 193.680044 34.015748 189.92126 
C 34.015748 186.162476 32.522367 182.557136 29.864506 179.899274 
C 27.206644 177.241412 23.601304 175.748031 19.84252 175.748031 
C 16.083736 175.748031 12.478396 177.241412 9.820534 179.899274 
C 7.162672 182.557136 5.669291 186.162476 5.669291 189.92126 
C 5.669291 193.680044 7.162672 197.285384 9.820534 199.943246 
C 12.478396 202.601107 16.083736 204.094488 19.84252 204.094488 
z
" style="fill:#b2b2b2;stroke:#000000;stroke-linejoin:miter;"/>
   </g>
   <g id="patch_33">
    <path clip-path="url(#pe8e13a02df)" d="M 19.84252 204.094488 
C 23.601304 204.094488 27.206644 202.601107 29.864506 199.943246 
C 32.522367 197.285384 34.015748 193.680044 34.015748 189.92126 
C 34.015748 186.162476 32.522367 182.557136 29.864506 179.899274 
C 27.206644 177.241412 23.601304 175.748031 19.84252 175.748031 
C 16.083736 175.748031 12.478396 177.241412 9.820534 179.899274 
C 7.162672 182.557136 5.669291 186.162476 5.669291 189.92126 
C 5.669291 193.680044 7.162672 197.285384 9.820534 199.943246 
C 12.478396 202.601107 16.083736 204.094488 19.84252 204.094488 
z
" style="fill:none;stroke:#000000;stroke-linejoin:miter;"/>
   </g>
   <g id="patch_34">
    <path clip-path="url(#pe8e13a02df)" d="M 19.84252 147.401575 
C 23.601304 147.401575 27.206644 145.908194 29.864506 143.250332 
C 32.522367 140.592471 34.015748 136.987131 34.015748 133.228346 
C 34.015748 129.469562 32.522367 125.864222 29.864506 123.206361 
C 27.206644 120.548499 23.601304 119.055118 19.84252 119.055118 
C 16.083736 119.055118 12.478396 120.548499 9.820534 123.206361 
C 7.162672 125.864222 5.669291 129.469562 5.669291 133.228346 
C 5.669291 136.987131 7.162672 140.592471 9.820534 143.250332 
C 12.478396 145.908194 16.083736 147.401575 19.84252 147.401575 
z
" style="fill:#b2b2b2;stroke:#000000;stroke-linejoin:miter;"/>
   </g>
   <g id="patch_35">
    <path clip-path="url(#pe8e13a02df)" d="M 19.84252 147.401575 
C 23.601304 147.401575 27.206644 145.908194 29.864506 143.250332 
C 32.522367 140.592471 34.015748 136.987131 34.015748 133.228346 
C 34.015748 129.469562 32.522367 125.864222 29.864506 123.206361 
C 27.206644 120.548499 23.601304 119.055118 19.84252 119.055118 
C 16.083736 119.055118 12.478396 120.548499 9.820534 123.206361 
C 7.162672 125.864222 5.669291 129.469562 5.669291 133.228346 
C 5.669291 136.987131 7.162672 140.592471 9.820534 143.250332 
C 12.478396 145.908194 16.083736 147.401575 19.84252 147.401575 
z
" style="fill:none;stroke:#000000;stroke-linejoin:miter;"/>
   </g>
   <g id="patch_36">
    <path clip-path="url(#pe8e13a02df)" d="M 19.84252 90.708661 
C 23.601304 90.708661 27.206644 89.215281 29.864506 86.557419 
C 32.522367 83.899557 34.015748 80.294217 34.015748 76.535433 
C 34.015748 72.776649 32.522367 69.171309 29.864506 66.513447 
C 27.206644 63.855585 23.601304 62.362205 19.84252 62.362205 
C 16.083736 62.362205 12.478396 63.855585 9.820534 66.513447 
C 7.162672 69.171309 5.669291 72.776649 5.669291 76.535433 
C 5.669291 80.294217 7.162672 83.899557 9.820534 86.557419 
C 12.478396 89.215281 16.083736 90.708661 19.84252 90.708661 
z
" style="fill:#b2b2b2;stroke:#000000;stroke-linejoin:miter;"/>
   </g>
   <g id="patch_37">
    <path clip-path="url(#pe8e13a02df)" d="M 19.84252 90.708661 
C 23.601304 90.708661 27.206644 89.215281 29.864506 86.557419 
C 32.522367 83.899557 34.015748 80.294217 34.015748 76.535433 
C 34.015748 72.776649 32.522367 69.171309 29.864506 66.513447 
C 27.206644 63.855585 23.601304 62.362205 19.84252 62.362205 
C 16.083736 62.362205 12.478396 63.855585 9.820534 66.513447 
C 7.162672 69.171309 5.669291 72.776649 5.669291 76.535433 
C 5.669291 80.294217 7.162672 83.899557 9.820534 86.557419 
C 12.478396 89.215281 16.083736 90.708661 19.84252 90.708661 
z
" style="fill:none;stroke:#000000;stroke-linejoin:miter;"/>
   </g>
   <g id="patch_38">
    <path clip-path="url(#pe8e13a02df)" d="M 19.84252 34.015748 
C 23.601304 34.015748 27.206644 32.522367 29.864506 29.864506 
C 32.522367 27.206644 34.015748 23.601304 34.015748 19.84252 
C 34.015748 16.083736 32.522367 12.478396 29.864506 9.820534 
C 27.206644 7.162672 23.601304 5.669291 19.84252 5.669291 
C 16.083736 5.669291 12.478396 7.162672 9.820534 9.820534 
C 7.162672 12.478396 5.669291 16.083736 5.669291 19.84252 
C 5.669291 23.601304 7.162672 27.206644 9.820534 29.864506 
C 12.478396 32.522367 16.083736 34.015748 19.84252 34.015748 
z
" style="fill:#b2b2b2;stroke:#000000;stroke-linejoin:miter;"/>
   </g>
   <g id="patch_39">
    <path clip-path="url(#pe8e13a02df)" d="M 19.84252 34.015748 
C 23.601304 34.015748 27.206644 32.522367 29.864506 29.864506 
C 32.522367 27.206644 34.015748 23.601304 34.015748 19.84252 
C 34.015748 16.083736 32.522367 12.478396 29.864506 9.820534 
C 27.206644 7.162672 23.601304 5.669291 19.84252 5.669291 
C 16.083736 5.669291 12.478396 7.162672 9.820534 9.820534 
C 7.162672 12.478396 5.669291 16.083736 5.669291 19.84252 
C 5.669291 23.601304 7.162672 27.206644 9.820534 29.864506 
C 12.478396 32.522367 16.083736 34.015748 19.84252 34.015748 
z
" style="fill:none;stroke:#000000;stroke-linejoin:miter;"/>
   </g>
   <g id="patch_40">
    <path clip-path="url(#pe8e13a02df)" d="M 360 85.984252 
C 362.505856 85.984252 364.909416 84.988665 366.681324 83.216757 
C 368.453232 81.444849 369.448819 79.041289 369.448819 76.535433 
C 369.448819 74.029577 368.453232 71.626017 366.681324 69.854109 
C 364.909416 68.082201 362.505856 67.086614 360 67.086614 
C 357.494144 67.086614 355.090584 68.082201 353.318676 69.854109 
C 351.546768 71.626017 350.551181 74.029577 350.551181 76.535433 
C 350.551181 79.041289 351.546768 81.444849 353.318676 83.216757 
C 355.090584 84.988665 357.494144 85.984252 360 85.984252 
z
" style="stroke:#000000;stroke-linejoin:miter;"/>
   </g>
   <g id="patch_41">
    <path clip-path="url(#pe8e13a02df)" d="M 360 142.677165 
C 362.505856 142.677165 364.909416 141.681578 366.681324 139.90967 
C 368.453232 138.137763 369.448819 135.734203 369.448819 133.228346 
C 369.448819 130.72249 368.453232 128.31893 366.681324 126.547023 
C 364.909416 124.775115 362.505856 123.779528 360 123.779528 
C 357.494144 123.779528 355.090584 124.775115 353.318676 126.547023 
C 351.546768 128.31893 350.551181 130.72249 350.551181 133.228346 
C 350.551181 135.734203 351.546768 138.137763 353.318676 139.90967 
C 355.090584 141.681578 357.494144 142.677165 360 142.677165 
z
" style="stroke:#000000;stroke-linejoin:miter;"/>
   </g>
   <g id="patch_42">
    <path clip-path="url(#pe8e13a02df)" d="M 416.692913 119.055118 
C 420.451697 119.055118 424.057038 117.561737 426.714899 114.903876 
C 429.372761 112.246014 430.866142 108.640674 430.866142 104.88189 
C 430.866142 101.123106 429.372761 97.517766 426.714899 94.859904 
C 424.057038 92.202042 420.451697 90.708661 416.692913 90.708661 
C 412.934129 90.708661 409.328789 92.202042 406.670928 94.859904 
C 404.013066 97.517766 402.519685 101.123106 402.519685 104.88189 
C 402.519685 108.640674 404.013066 112.246014 406.670928 114.903876 
C 409.328789 117.561737 412.934129 119.055118 416.692913 119.055118 
z
" style="fill:none;stroke:#000000;stroke-linejoin:miter;"/>
   </g>
   <g id="patch_43">
    <path clip-path="url(#pe8e13a02df)" d="M 473.385827 119.055118 
C 477.144611 119.055118 480.749951 117.561737 483.407813 114.903876 
C 486.065674 112.246014 487.559055 108.640674 487.559055 104.88189 
C 487.559055 101.123106 486.065674 97.517766 483.407813 94.859904 
C 480.749951 92.202042 477.144611 90.708661 473.385827 90.708661 
C 469.627043 90.708661 466.021703 92.202042 463.363841 94.859904 
C 460.705979 97.517766 459.212598 101.123106 459.212598 104.88189 
C 459.212598 108.640674 460.705979 112.246014 463.363841 114.903876 
C 466.021703 117.561737 469.627043 119.055118 473.385827 119.055118 
z
" style="fill:#b2b2b2;stroke:#000000;stroke-linejoin:miter;"/>
   </g>
   <g id="patch_44">
    <path clip-path="url(#pe8e13a02df)" d="M 473.385827 119.055118 
C 477.144611 119.055118 480.749951 117.561737 483.407813 114.903876 
C 486.065674 112.246014 487.559055 108.640674 487.559055 104.88189 
C 487.559055 101.123106 486.065674 97.517766 483.407813 94.859904 
C 480.749951 92.202042 477.144611 90.708661 473.385827 90.708661 
C 469.627043 90.708661 466.021703 92.202042 463.363841 94.859904 
C 460.705979 97.517766 459.212598 101.123106 459.212598 104.88189 
C 459.212598 108.640674 460.705979 112.246014 463.363841 114.903876 
C 466.021703 117.561737 469.627043 119.055118 473.385827 119.055118 
z
" style="fill:none;stroke:#000000;stroke-linejoin:miter;"/>
   </g>
   <g id="patch_45">
    <path clip-path="url(#pe8e13a02df)" d="M 530.07874 119.055118 
C 533.837524 119.055118 537.442864 117.561737 540.100726 114.903876 
C 542.758588 112.246014 544.251969 108.640674 544.251969 104.88189 
C 544.251969 101.123106 542.758588 97.517766 540.100726 94.859904 
C 537.442864 92.202042 533.837524 90.708661 530.07874 90.708661 
C 526.319956 90.708661 522.714616 92.202042 520.056754 94.859904 
C 517.398893 97.517766 515.905512 101.123106 515.905512 104.88189 
C 515.905512 108.640674 517.398893 112.246014 520.056754 114.903876 
C 522.714616 117.561737 526.319956 119.055118 530.07874 119.055118 
z
" style="fill:none;stroke:#000000;stroke-linejoin:miter;"/>
   </g>
   <g id="matplotlib.axis_1"/>
   <g id="matplotlib.axis_2"/>
   <g id="line2d_1">
    <path clip-path="url(#pe8e13a02df)" d="M 81.259843 189.92126 
L 128.503937 189.92126 
" style="fill:none;stroke:#000000;stroke-linecap:square;"/>
   </g>
   <g id="line2d_2">
    <path clip-path="url(#pe8e13a02df)" d="M 79.876095 136.569008 
L 129.887684 186.580598 
" style="fill:none;stroke:#000000;stroke-linecap:square;"/>
   </g>
   <g id="line2d_3">
    <path clip-path="url(#pe8e13a02df)" d="M 78.648253 80.761073 
L 131.115526 185.69562 
" style="fill:none;stroke:#000000;stroke-linecap:square;"/>
   </g>
   <g id="line2d_4">
    <path clip-path="url(#pe8e13a02df)" d="M 78.029423 24.324488 
L 131.734357 185.439292 
" style="fill:none;stroke:#000000;stroke-linecap:square;"/>
   </g>
   <g id="line2d_5">
    <path clip-path="url(#pe8e13a02df)" d="M 79.876095 186.580598 
L 129.887684 136.569008 
" style="fill:none;stroke:#000000;stroke-linecap:square;"/>
   </g>
   <g id="line2d_6">
    <path clip-path="url(#pe8e13a02df)" d="M 81.259843 133.228346 
L 128.503937 133.228346 
" style="fill:none;stroke:#000000;stroke-linecap:square;"/>
   </g>
   <g id="line2d_7">
    <path clip-path="url(#pe8e13a02df)" d="M 79.876095 79.876095 
L 129.887684 129.887684 
" style="fill:none;stroke:#000000;stroke-linecap:square;"/>
   </g>
   <g id="line2d_8">
    <path clip-path="url(#pe8e13a02df)" d="M 78.648253 24.06816 
L 131.115526 129.002706 
" style="fill:none;stroke:#000000;stroke-linecap:square;"/>
   </g>
   <g id="line2d_9">
    <path clip-path="url(#pe8e13a02df)" d="M 78.648253 185.69562 
L 131.115526 80.761073 
" style="fill:none;stroke:#000000;stroke-linecap:square;"/>
   </g>
   <g id="line2d_10">
    <path clip-path="url(#pe8e13a02df)" d="M 79.876095 129.887684 
L 129.887684 79.876095 
" style="fill:none;stroke:#000000;stroke-linecap:square;"/>
   </g>
   <g id="line2d_11">
    <path clip-path="url(#pe8e13a02df)" d="M 81.259843 76.535433 
L 128.503937 76.535433 
" style="fill:none;stroke:#000000;stroke-linecap:square;"/>
   </g>
   <g id="line2d_12">
    <path clip-path="url(#pe8e13a02df)" d="M 79.876095 23.183182 
L 129.887684 73.194771 
" style="fill:none;stroke:#000000;stroke-linecap:square;"/>
   </g>
   <g id="line2d_13">
    <path clip-path="url(#pe8e13a02df)" d="M 78.029423 185.439292 
L 131.734357 24.324488 
" style="fill:none;stroke:#000000;stroke-linecap:square;"/>
   </g>
   <g id="line2d_14">
    <path clip-path="url(#pe8e13a02df)" d="M 78.648253 129.002706 
L 131.115526 24.06816 
" style="fill:none;stroke:#000000;stroke-linecap:square;"/>
   </g>
   <g id="line2d_15">
    <path clip-path="url(#pe8e13a02df)" d="M 79.876095 73.194771 
L 129.887684 23.183182 
" style="fill:none;stroke:#000000;stroke-linecap:square;"/>
   </g>
   <g id="line2d_16">
    <path clip-path="url(#pe8e13a02df)" d="M 81.259843 19.84252 
L 128.503937 19.84252 
" style="fill:none;stroke:#000000;stroke-linecap:square;"/>
   </g>
   <g id="line2d_17">
    <path clip-path="url(#pe8e13a02df)" d="M 137.952756 189.92126 
L 185.19685 189.92126 
" style="fill:none;stroke:#000000;stroke-linecap:square;"/>
   </g>
   <g id="line2d_18">
    <path clip-path="url(#pe8e13a02df)" d="M 136.569008 136.569008 
L 186.580598 186.580598 
" style="fill:none;stroke:#000000;stroke-linecap:square;"/>
   </g>
   <g id="line2d_19">
    <path clip-path="url(#pe8e13a02df)" d="M 135.341167 80.761073 
L 187.80844 185.69562 
" style="fill:none;stroke:#000000;stroke-linecap:square;"/>
   </g>
   <g id="line2d_20">
    <path clip-path="url(#pe8e13a02df)" d="M 134.722336 24.324488 
L 188.42727 185.439292 
" style="fill:none;stroke:#000000;stroke-linecap:square;"/>
   </g>
   <g id="line2d_21">
    <path clip-path="url(#pe8e13a02df)" d="M 136.569008 186.580598 
L 186.580598 136.569008 
" style="fill:none;stroke:#000000;stroke-linecap:square;"/>
   </g>
   <g id="line2d_22">
    <path clip-path="url(#pe8e13a02df)" d="M 137.952756 133.228346 
L 185.19685 133.228346 
" style="fill:none;stroke:#000000;stroke-linecap:square;"/>
   </g>
   <g id="line2d_23">
    <path clip-path="url(#pe8e13a02df)" d="M 136.569008 79.876095 
L 186.580598 129.887684 
" style="fill:none;stroke:#000000;stroke-linecap:square;"/>
   </g>
   <g id="line2d_24">
    <path clip-path="url(#pe8e13a02df)" d="M 135.341167 24.06816 
L 187.80844 129.002706 
" style="fill:none;stroke:#000000;stroke-linecap:square;"/>
   </g>
   <g id="line2d_25">
    <path clip-path="url(#pe8e13a02df)" d="M 135.341167 185.69562 
L 187.80844 80.761073 
" style="fill:none;stroke:#000000;stroke-linecap:square;"/>
   </g>
   <g id="line2d_26">
    <path clip-path="url(#pe8e13a02df)" d="M 136.569008 129.887684 
L 186.580598 79.876095 
" style="fill:none;stroke:#000000;stroke-linecap:square;"/>
   </g>
   <g id="line2d_27">
    <path clip-path="url(#pe8e13a02df)" d="M 137.952756 76.535433 
L 185.19685 76.535433 
" style="fill:none;stroke:#000000;stroke-linecap:square;"/>
   </g>
   <g id="line2d_28">
    <path clip-path="url(#pe8e13a02df)" d="M 136.569008 23.183182 
L 186.580598 73.194771 
" style="fill:none;stroke:#000000;stroke-linecap:square;"/>
   </g>
   <g id="line2d_29">
    <path clip-path="url(#pe8e13a02df)" d="M 134.722336 185.439292 
L 188.42727 24.324488 
" style="fill:none;stroke:#000000;stroke-linecap:square;"/>
   </g>
   <g id="line2d_30">
    <path clip-path="url(#pe8e13a02df)" d="M 135.341167 129.002706 
L 187.80844 24.06816 
" style="fill:none;stroke:#000000;stroke-linecap:square;"/>
   </g>
   <g id="line2d_31">
    <path clip-path="url(#pe8e13a02df)" d="M 136.569008 73.194771 
L 186.580598 23.183182 
" style="fill:none;stroke:#000000;stroke-linecap:square;"/>
   </g>
   <g id="line2d_32">
    <path clip-path="url(#pe8e13a02df)" d="M 137.952756 19.84252 
L 185.19685 19.84252 
" style="fill:none;stroke:#000000;stroke-linecap:square;"/>
   </g>
   <g id="line2d_33">
    <path clip-path="url(#pe8e13a02df)" d="M 194.645669 189.92126 
L 241.889764 189.92126 
" style="fill:none;stroke:#000000;stroke-linecap:square;"/>
   </g>
   <g id="line2d_34">
    <path clip-path="url(#pe8e13a02df)" d="M 193.261922 136.569008 
L 243.273511 186.580598 
" style="fill:none;stroke:#000000;stroke-linecap:square;"/>
   </g>
   <g id="line2d_35">
    <path clip-path="url(#pe8e13a02df)" d="M 192.03408 80.761073 
L 244.501353 185.69562 
" style="fill:none;stroke:#000000;stroke-linecap:square;"/>
   </g>
   <g id="line2d_36">
    <path clip-path="url(#pe8e13a02df)" d="M 191.415249 24.324488 
L 245.120184 185.439292 
" style="fill:none;stroke:#000000;stroke-linecap:square;"/>
   </g>
   <g id="line2d_37">
    <path clip-path="url(#pe8e13a02df)" d="M 193.261922 186.580598 
L 243.273511 136.569008 
" style="fill:none;stroke:#000000;stroke-linecap:square;"/>
   </g>
   <g id="line2d_38">
    <path clip-path="url(#pe8e13a02df)" d="M 194.645669 133.228346 
L 241.889764 133.228346 
" style="fill:none;stroke:#000000;stroke-linecap:square;"/>
   </g>
   <g id="line2d_39">
    <path clip-path="url(#pe8e13a02df)" d="M 193.261922 79.876095 
L 243.273511 129.887684 
" style="fill:none;stroke:#000000;stroke-linecap:square;"/>
   </g>
   <g id="line2d_40">
    <path clip-path="url(#pe8e13a02df)" d="M 192.03408 24.06816 
L 244.501353 129.002706 
" style="fill:none;stroke:#000000;stroke-linecap:square;"/>
   </g>
   <g id="line2d_41">
    <path clip-path="url(#pe8e13a02df)" d="M 192.03408 185.69562 
L 244.501353 80.761073 
" style="fill:none;stroke:#000000;stroke-linecap:square;"/>
   </g>
   <g id="line2d_42">
    <path clip-path="url(#pe8e13a02df)" d="M 193.261922 129.887684 
L 243.273511 79.876095 
" style="fill:none;stroke:#000000;stroke-linecap:square;"/>
   </g>
   <g id="line2d_43">
    <path clip-path="url(#pe8e13a02df)" d="M 194.645669 76.535433 
L 241.889764 76.535433 
" style="fill:none;stroke:#000000;stroke-linecap:square;"/>
   </g>
   <g id="line2d_44">
    <path clip-path="url(#pe8e13a02df)" d="M 193.261922 23.183182 
L 243.273511 73.194771 
" style="fill:none;stroke:#000000;stroke-linecap:square;"/>
   </g>
   <g id="line2d_45">
    <path clip-path="url(#pe8e13a02df)" d="M 191.415249 185.439292 
L 245.120184 24.324488 
" style="fill:none;stroke:#000000;stroke-linecap:square;"/>
   </g>
   <g id="line2d_46">
    <path clip-path="url(#pe8e13a02df)" d="M 192.03408 129.002706 
L 244.501353 24.06816 
" style="fill:none;stroke:#000000;stroke-linecap:square;"/>
   </g>
   <g id="line2d_47">
    <path clip-path="url(#pe8e13a02df)" d="M 193.261922 73.194771 
L 243.273511 23.183182 
" style="fill:none;stroke:#000000;stroke-linecap:square;"/>
   </g>
   <g id="line2d_48">
    <path clip-path="url(#pe8e13a02df)" d="M 194.645669 19.84252 
L 241.889764 19.84252 
" style="fill:none;stroke:#000000;stroke-linecap:square;"/>
   </g>
   <g id="line2d_49">
    <path clip-path="url(#pe8e13a02df)" d="M 251.338583 189.92126 
L 298.582677 189.92126 
" style="fill:none;stroke:#000000;stroke-linecap:square;"/>
   </g>
   <g id="line2d_50">
    <path clip-path="url(#pe8e13a02df)" d="M 249.954835 136.569008 
L 299.966425 186.580598 
" style="fill:none;stroke:#000000;stroke-linecap:square;"/>
   </g>
   <g id="line2d_51">
    <path clip-path="url(#pe8e13a02df)" d="M 248.726993 80.761073 
L 301.194266 185.69562 
" style="fill:none;stroke:#000000;stroke-linecap:square;"/>
   </g>
   <g id="line2d_52">
    <path clip-path="url(#pe8e13a02df)" d="M 248.108163 24.324488 
L 301.813097 185.439292 
" style="fill:none;stroke:#000000;stroke-linecap:square;"/>
   </g>
   <g id="line2d_53">
    <path clip-path="url(#pe8e13a02df)" d="M 249.954835 186.580598 
L 299.966425 136.569008 
" style="fill:none;stroke:#000000;stroke-linecap:square;"/>
   </g>
   <g id="line2d_54">
    <path clip-path="url(#pe8e13a02df)" d="M 251.338583 133.228346 
L 298.582677 133.228346 
" style="fill:none;stroke:#000000;stroke-linecap:square;"/>
   </g>
   <g id="line2d_55">
    <path clip-path="url(#pe8e13a02df)" d="M 249.954835 79.876095 
L 299.966425 129.887684 
" style="fill:none;stroke:#000000;stroke-linecap:square;"/>
   </g>
   <g id="line2d_56">
    <path clip-path="url(#pe8e13a02df)" d="M 248.726993 24.06816 
L 301.194266 129.002706 
" style="fill:none;stroke:#000000;stroke-linecap:square;"/>
   </g>
   <g id="line2d_57">
    <path clip-path="url(#pe8e13a02df)" d="M 248.726993 185.69562 
L 301.194266 80.761073 
" style="fill:none;stroke:#000000;stroke-linecap:square;"/>
   </g>
   <g id="line2d_58">
    <path clip-path="url(#pe8e13a02df)" d="M 249.954835 129.887684 
L 299.966425 79.876095 
" style="fill:none;stroke:#000000;stroke-linecap:square;"/>
   </g>
   <g id="line2d_59">
    <path clip-path="url(#pe8e13a02df)" d="M 251.338583 76.535433 
L 298.582677 76.535433 
" style="fill:none;stroke:#000000;stroke-linecap:square;"/>
   </g>
   <g id="line2d_60">
    <path clip-path="url(#pe8e13a02df)" d="M 249.954835 23.183182 
L 299.966425 73.194771 
" style="fill:none;stroke:#000000;stroke-linecap:square;"/>
   </g>
   <g id="line2d_61">
    <path clip-path="url(#pe8e13a02df)" d="M 248.108163 185.439292 
L 301.813097 24.324488 
" style="fill:none;stroke:#000000;stroke-linecap:square;"/>
   </g>
   <g id="line2d_62">
    <path clip-path="url(#pe8e13a02df)" d="M 248.726993 129.002706 
L 301.194266 24.06816 
" style="fill:none;stroke:#000000;stroke-linecap:square;"/>
   </g>
   <g id="line2d_63">
    <path clip-path="url(#pe8e13a02df)" d="M 249.954835 73.194771 
L 299.966425 23.183182 
" style="fill:none;stroke:#000000;stroke-linecap:square;"/>
   </g>
   <g id="line2d_64">
    <path clip-path="url(#pe8e13a02df)" d="M 251.338583 19.84252 
L 298.582677 19.84252 
" style="fill:none;stroke:#000000;stroke-linecap:square;"/>
   </g>
   <g id="line2d_65">
    <path clip-path="url(#pe8e13a02df)" d="M 305.419907 185.69562 
L 355.77436 84.986714 
" style="fill:none;stroke:#000000;stroke-linecap:square;"/>
   </g>
   <g id="line2d_66">
    <path clip-path="url(#pe8e13a02df)" d="M 306.647749 186.580598 
L 353.318676 139.90967 
" style="fill:none;stroke:#000000;stroke-linecap:square;"/>
   </g>
   <g id="line2d_67">
    <path clip-path="url(#pe8e13a02df)" d="M 306.647749 129.887684 
L 353.318676 83.216757 
" style="fill:none;stroke:#000000;stroke-linecap:square;"/>
   </g>
   <g id="line2d_68">
    <path clip-path="url(#pe8e13a02df)" d="M 308.031496 133.228346 
L 350.551181 133.228346 
" style="fill:none;stroke:#000000;stroke-linecap:square;"/>
   </g>
   <g id="line2d_69">
    <path clip-path="url(#pe8e13a02df)" d="M 308.031496 76.535433 
L 350.551181 76.535433 
" style="fill:none;stroke:#000000;stroke-linecap:square;"/>
   </g>
   <g id="line2d_70">
    <path clip-path="url(#pe8e13a02df)" d="M 306.647749 79.876095 
L 353.318676 126.547023 
" style="fill:none;stroke:#000000;stroke-linecap:square;"/>
   </g>
   <g id="line2d_71">
    <path clip-path="url(#pe8e13a02df)" d="M 306.647749 23.183182 
L 353.318676 69.854109 
" style="fill:none;stroke:#000000;stroke-linecap:square;"/>
   </g>
   <g id="line2d_72">
    <path clip-path="url(#pe8e13a02df)" d="M 305.419907 24.06816 
L 355.77436 124.777066 
" style="fill:none;stroke:#000000;stroke-linecap:square;"/>
   </g>
   <g id="text_1">
    <!-- miller index $h$ -->
    <g transform="translate(441.535433 165.833698)scale(0.1 -0.1)">
     <defs>
      <path d="M 52 44.1875 
Q 55.375 50.25 60.0625 53.125 
Q 64.75 56 71.09375 56 
Q 79.640625 56 84.28125 50.015625 
Q 88.921875 44.046875 88.921875 33.015625 
L 88.921875 0 
L 79.890625 0 
L 79.890625 32.71875 
Q 79.890625 40.578125 77.09375 44.375 
Q 74.3125 48.1875 68.609375 48.1875 
Q 61.625 48.1875 57.5625 43.546875 
Q 53.515625 38.921875 53.515625 30.90625 
L 53.515625 0 
L 44.484375 0 
L 44.484375 32.71875 
Q 44.484375 40.625 41.703125 44.40625 
Q 38.921875 48.1875 33.109375 48.1875 
Q 26.21875 48.1875 22.15625 43.53125 
Q 18.109375 38.875 18.109375 30.90625 
L 18.109375 0 
L 9.078125 0 
L 9.078125 54.6875 
L 18.109375 54.6875 
L 18.109375 46.1875 
Q 21.1875 51.21875 25.484375 53.609375 
Q 29.78125 56 35.6875 56 
Q 41.65625 56 45.828125 52.96875 
Q 50 49.953125 52 44.1875 
z
" id="DejaVuSans-109"/>
      <path d="M 9.421875 54.6875 
L 18.40625 54.6875 
L 18.40625 0 
L 9.421875 0 
z
M 9.421875 75.984375 
L 18.40625 75.984375 
L 18.40625 64.59375 
L 9.421875 64.59375 
z
" id="DejaVuSans-105"/>
      <path d="M 9.421875 75.984375 
L 18.40625 75.984375 
L 18.40625 0 
L 9.421875 0 
z
" id="DejaVuSans-108"/>
      <path d="M 56.203125 29.59375 
L 56.203125 25.203125 
L 14.890625 25.203125 
Q 15.484375 15.921875 20.484375 11.0625 
Q 25.484375 6.203125 34.421875 6.203125 
Q 39.59375 6.203125 44.453125 7.46875 
Q 49.3125 8.734375 54.109375 11.28125 
L 54.109375 2.78125 
Q 49.265625 0.734375 44.1875 -0.34375 
Q 39.109375 -1.421875 33.890625 -1.421875 
Q 20.796875 -1.421875 13.15625 6.1875 
Q 5.515625 13.8125 5.515625 26.8125 
Q 5.515625 40.234375 12.765625 48.109375 
Q 20.015625 56 32.328125 56 
Q 43.359375 56 49.78125 48.890625 
Q 56.203125 41.796875 56.203125 29.59375 
z
M 47.21875 32.234375 
Q 47.125 39.59375 43.09375 43.984375 
Q 39.0625 48.390625 32.421875 48.390625 
Q 24.90625 48.390625 20.390625 44.140625 
Q 15.875 39.890625 15.1875 32.171875 
z
" id="DejaVuSans-101"/>
      <path d="M 41.109375 46.296875 
Q 39.59375 47.171875 37.8125 47.578125 
Q 36.03125 48 33.890625 48 
Q 26.265625 48 22.1875 43.046875 
Q 18.109375 38.09375 18.109375 28.8125 
L 18.109375 0 
L 9.078125 0 
L 9.078125 54.6875 
L 18.109375 54.6875 
L 18.109375 46.1875 
Q 20.953125 51.171875 25.484375 53.578125 
Q 30.03125 56 36.53125 56 
Q 37.453125 56 38.578125 55.875 
Q 39.703125 55.765625 41.0625 55.515625 
z
" id="DejaVuSans-114"/>
      <path id="DejaVuSans-32"/>
      <path d="M 54.890625 33.015625 
L 54.890625 0 
L 45.90625 0 
L 45.90625 32.71875 
Q 45.90625 40.484375 42.875 44.328125 
Q 39.84375 48.1875 33.796875 48.1875 
Q 26.515625 48.1875 22.3125 43.546875 
Q 18.109375 38.921875 18.109375 30.90625 
L 18.109375 0 
L 9.078125 0 
L 9.078125 54.6875 
L 18.109375 54.6875 
L 18.109375 46.1875 
Q 21.34375 51.125 25.703125 53.5625 
Q 30.078125 56 35.796875 56 
Q 45.21875 56 50.046875 50.171875 
Q 54.890625 44.34375 54.890625 33.015625 
z
" id="DejaVuSans-110"/>
      <path d="M 45.40625 46.390625 
L 45.40625 75.984375 
L 54.390625 75.984375 
L 54.390625 0 
L 45.40625 0 
L 45.40625 8.203125 
Q 42.578125 3.328125 38.25 0.953125 
Q 33.9375 -1.421875 27.875 -1.421875 
Q 17.96875 -1.421875 11.734375 6.484375 
Q 5.515625 14.40625 5.515625 27.296875 
Q 5.515625 40.1875 11.734375 48.09375 
Q 17.96875 56 27.875 56 
Q 33.9375 56 38.25 53.625 
Q 42.578125 51.265625 45.40625 46.390625 
z
M 14.796875 27.296875 
Q 14.796875 17.390625 18.875 11.75 
Q 22.953125 6.109375 30.078125 6.109375 
Q 37.203125 6.109375 41.296875 11.75 
Q 45.40625 17.390625 45.40625 27.296875 
Q 45.40625 37.203125 41.296875 42.84375 
Q 37.203125 48.484375 30.078125 48.484375 
Q 22.953125 48.484375 18.875 42.84375 
Q 14.796875 37.203125 14.796875 27.296875 
z
" id="DejaVuSans-100"/>
      <path d="M 54.890625 54.6875 
L 35.109375 28.078125 
L 55.90625 0 
L 45.3125 0 
L 29.390625 21.484375 
L 13.484375 0 
L 2.875 0 
L 24.125 28.609375 
L 4.6875 54.6875 
L 15.28125 54.6875 
L 29.78125 35.203125 
L 44.28125 54.6875 
z
" id="DejaVuSans-120"/>
      <path d="M 55.71875 33.015625 
L 49.3125 0 
L 40.28125 0 
L 46.6875 32.671875 
Q 47.125 34.96875 47.359375 36.71875 
Q 47.609375 38.484375 47.609375 39.5 
Q 47.609375 43.609375 45.015625 45.890625 
Q 42.4375 48.1875 37.796875 48.1875 
Q 30.5625 48.1875 25.265625 43.296875 
Q 19.96875 38.421875 18.40625 30.328125 
L 12.5 0 
L 3.515625 0 
L 18.3125 75.984375 
L 27.296875 75.984375 
L 21.484375 46.09375 
Q 24.90625 50.6875 30.21875 53.34375 
Q 35.546875 56 41.40625 56 
Q 48.640625 56 52.609375 52.09375 
Q 56.59375 48.1875 56.59375 41.109375 
Q 56.59375 39.359375 56.375 37.359375 
Q 56.15625 35.359375 55.71875 33.015625 
z
" id="DejaVuSans-Oblique-104"/>
     </defs>
     <use transform="translate(0 0.015625)" xlink:href="#DejaVuSans-109"/>
     <use transform="translate(97.412109 0.015625)" xlink:href="#DejaVuSans-105"/>
     <use transform="translate(125.195312 0.015625)" xlink:href="#DejaVuSans-108"/>
     <use transform="translate(152.978516 0.015625)" xlink:href="#DejaVuSans-108"/>
     <use transform="translate(180.761719 0.015625)" xlink:href="#DejaVuSans-101"/>
     <use transform="translate(242.285156 0.015625)" xlink:href="#DejaVuSans-114"/>
     <use transform="translate(283.398438 0.015625)" xlink:href="#DejaVuSans-32"/>
     <use transform="translate(315.185547 0.015625)" xlink:href="#DejaVuSans-105"/>
     <use transform="translate(342.96875 0.015625)" xlink:href="#DejaVuSans-110"/>
     <use transform="translate(406.347656 0.015625)" xlink:href="#DejaVuSans-100"/>
     <use transform="translate(469.824219 0.015625)" xlink:href="#DejaVuSans-101"/>
     <use transform="translate(531.347656 0.015625)" xlink:href="#DejaVuSans-120"/>
     <use transform="translate(590.527344 0.015625)" xlink:href="#DejaVuSans-32"/>
     <use transform="translate(622.314453 0.015625)" xlink:href="#DejaVuSans-Oblique-104"/>
    </g>
   </g>
   <g id="text_2">
    <!-- image $i$ -->
    <g transform="translate(450.03937 131.797638)scale(0.1 -0.1)">
     <defs>
      <path d="M 34.28125 27.484375 
Q 23.390625 27.484375 19.1875 25 
Q 14.984375 22.515625 14.984375 16.5 
Q 14.984375 11.71875 18.140625 8.90625 
Q 21.296875 6.109375 26.703125 6.109375 
Q 34.1875 6.109375 38.703125 11.40625 
Q 43.21875 16.703125 43.21875 25.484375 
L 43.21875 27.484375 
z
M 52.203125 31.203125 
L 52.203125 0 
L 43.21875 0 
L 43.21875 8.296875 
Q 40.140625 3.328125 35.546875 0.953125 
Q 30.953125 -1.421875 24.3125 -1.421875 
Q 15.921875 -1.421875 10.953125 3.296875 
Q 6 8.015625 6 15.921875 
Q 6 25.140625 12.171875 29.828125 
Q 18.359375 34.515625 30.609375 34.515625 
L 43.21875 34.515625 
L 43.21875 35.40625 
Q 43.21875 41.609375 39.140625 45 
Q 35.0625 48.390625 27.6875 48.390625 
Q 23 48.390625 18.546875 47.265625 
Q 14.109375 46.140625 10.015625 43.890625 
L 10.015625 52.203125 
Q 14.9375 54.109375 19.578125 55.046875 
Q 24.21875 56 28.609375 56 
Q 40.484375 56 46.34375 49.84375 
Q 52.203125 43.703125 52.203125 31.203125 
z
" id="DejaVuSans-97"/>
      <path d="M 45.40625 27.984375 
Q 45.40625 37.75 41.375 43.109375 
Q 37.359375 48.484375 30.078125 48.484375 
Q 22.859375 48.484375 18.828125 43.109375 
Q 14.796875 37.75 14.796875 27.984375 
Q 14.796875 18.265625 18.828125 12.890625 
Q 22.859375 7.515625 30.078125 7.515625 
Q 37.359375 7.515625 41.375 12.890625 
Q 45.40625 18.265625 45.40625 27.984375 
z
M 54.390625 6.78125 
Q 54.390625 -7.171875 48.1875 -13.984375 
Q 42 -20.796875 29.203125 -20.796875 
Q 24.46875 -20.796875 20.265625 -20.09375 
Q 16.0625 -19.390625 12.109375 -17.921875 
L 12.109375 -9.1875 
Q 16.0625 -11.328125 19.921875 -12.34375 
Q 23.78125 -13.375 27.78125 -13.375 
Q 36.625 -13.375 41.015625 -8.765625 
Q 45.40625 -4.15625 45.40625 5.171875 
L 45.40625 9.625 
Q 42.625 4.78125 38.28125 2.390625 
Q 33.9375 0 27.875 0 
Q 17.828125 0 11.671875 7.65625 
Q 5.515625 15.328125 5.515625 27.984375 
Q 5.515625 40.671875 11.671875 48.328125 
Q 17.828125 56 27.875 56 
Q 33.9375 56 38.28125 53.609375 
Q 42.625 51.21875 45.40625 46.390625 
L 45.40625 54.6875 
L 54.390625 54.6875 
z
" id="DejaVuSans-103"/>
      <path d="M 18.3125 75.984375 
L 27.296875 75.984375 
L 25.09375 64.59375 
L 16.109375 64.59375 
z
M 14.203125 54.6875 
L 23.1875 54.6875 
L 12.5 0 
L 3.515625 0 
z
" id="DejaVuSans-Oblique-105"/>
     </defs>
     <use transform="translate(0 0.015625)" xlink:href="#DejaVuSans-105"/>
     <use transform="translate(27.783203 0.015625)" xlink:href="#DejaVuSans-109"/>
     <use transform="translate(125.195312 0.015625)" xlink:href="#DejaVuSans-97"/>
     <use transform="translate(186.474609 0.015625)" xlink:href="#DejaVuSans-103"/>
     <use transform="translate(249.951172 0.015625)" xlink:href="#DejaVuSans-101"/>
     <use transform="translate(311.474609 0.015625)" xlink:href="#DejaVuSans-32"/>
     <use transform="translate(343.261719 0.015625)" xlink:href="#DejaVuSans-Oblique-105"/>
    </g>
   </g>
   <g id="text_3">
    <!-- $m_4$ -->
    <g transform="translate(12.59252 192.680635)scale(0.1 -0.1)">
     <defs>
      <path d="M 89.796875 33.015625 
L 83.40625 0 
L 74.421875 0 
L 80.71875 32.71875 
Q 81.109375 34.8125 81.296875 36.328125 
Q 81.5 37.84375 81.5 38.921875 
Q 81.5 43.3125 79.046875 45.75 
Q 76.609375 48.1875 72.21875 48.1875 
Q 65.671875 48.1875 60.546875 43.28125 
Q 55.421875 38.375 53.90625 30.515625 
L 47.90625 0 
L 38.921875 0 
L 45.3125 32.71875 
Q 45.703125 34.515625 45.890625 36.046875 
Q 46.09375 37.59375 46.09375 38.8125 
Q 46.09375 43.265625 43.65625 45.71875 
Q 41.21875 48.1875 36.921875 48.1875 
Q 30.28125 48.1875 25.140625 43.28125 
Q 20.015625 38.375 18.5 30.515625 
L 12.5 0 
L 3.515625 0 
L 14.203125 54.6875 
L 23.1875 54.6875 
L 21.484375 46.1875 
Q 25.140625 50.984375 30.046875 53.484375 
Q 34.96875 56 40.578125 56 
Q 46.53125 56 50.359375 52.875 
Q 54.203125 49.75 54.984375 44.1875 
Q 59.078125 49.953125 64.46875 52.96875 
Q 69.875 56 75.875 56 
Q 82.90625 56 86.734375 51.953125 
Q 90.578125 47.90625 90.578125 40.484375 
Q 90.578125 38.875 90.375 36.9375 
Q 90.1875 35.015625 89.796875 33.015625 
z
" id="DejaVuSans-Oblique-109"/>
      <path d="M 37.796875 64.3125 
L 12.890625 25.390625 
L 37.796875 25.390625 
z
M 35.203125 72.90625 
L 47.609375 72.90625 
L 47.609375 25.390625 
L 58.015625 25.390625 
L 58.015625 17.1875 
L 47.609375 17.1875 
L 47.609375 0 
L 37.796875 0 
L 37.796875 17.1875 
L 4.890625 17.1875 
L 4.890625 26.703125 
z
" id="DejaVuSans-52"/>
     </defs>
     <use xlink:href="#DejaVuSans-Oblique-109"/>
     <use transform="translate(97.412109 -16.40625)scale(0.7)" xlink:href="#DejaVuSans-52"/>
    </g>
   </g>
   <g id="text_4">
    <!-- $m_3$ -->
    <g transform="translate(12.59252 135.987721)scale(0.1 -0.1)">
     <defs>
      <path d="M 40.578125 39.3125 
Q 47.65625 37.796875 51.625 33 
Q 55.609375 28.21875 55.609375 21.1875 
Q 55.609375 10.40625 48.1875 4.484375 
Q 40.765625 -1.421875 27.09375 -1.421875 
Q 22.515625 -1.421875 17.65625 -0.515625 
Q 12.796875 0.390625 7.625 2.203125 
L 7.625 11.71875 
Q 11.71875 9.328125 16.59375 8.109375 
Q 21.484375 6.890625 26.8125 6.890625 
Q 36.078125 6.890625 40.9375 10.546875 
Q 45.796875 14.203125 45.796875 21.1875 
Q 45.796875 27.640625 41.28125 31.265625 
Q 36.765625 34.90625 28.71875 34.90625 
L 20.21875 34.90625 
L 20.21875 43.015625 
L 29.109375 43.015625 
Q 36.375 43.015625 40.234375 45.921875 
Q 44.09375 48.828125 44.09375 54.296875 
Q 44.09375 59.90625 40.109375 62.90625 
Q 36.140625 65.921875 28.71875 65.921875 
Q 24.65625 65.921875 20.015625 65.03125 
Q 15.375 64.15625 9.8125 62.3125 
L 9.8125 71.09375 
Q 15.4375 72.65625 20.34375 73.4375 
Q 25.25 74.21875 29.59375 74.21875 
Q 40.828125 74.21875 47.359375 69.109375 
Q 53.90625 64.015625 53.90625 55.328125 
Q 53.90625 49.265625 50.4375 45.09375 
Q 46.96875 40.921875 40.578125 39.3125 
z
" id="DejaVuSans-51"/>
     </defs>
     <use xlink:href="#DejaVuSans-Oblique-109"/>
     <use transform="translate(97.412109 -16.40625)scale(0.7)" xlink:href="#DejaVuSans-51"/>
    </g>
   </g>
   <g id="text_5">
    <!-- $m_2$ -->
    <g transform="translate(12.59252 79.294808)scale(0.1 -0.1)">
     <defs>
      <path d="M 19.1875 8.296875 
L 53.609375 8.296875 
L 53.609375 0 
L 7.328125 0 
L 7.328125 8.296875 
Q 12.9375 14.109375 22.625 23.890625 
Q 32.328125 33.6875 34.8125 36.53125 
Q 39.546875 41.84375 41.421875 45.53125 
Q 43.3125 49.21875 43.3125 52.78125 
Q 43.3125 58.59375 39.234375 62.25 
Q 35.15625 65.921875 28.609375 65.921875 
Q 23.96875 65.921875 18.8125 64.3125 
Q 13.671875 62.703125 7.8125 59.421875 
L 7.8125 69.390625 
Q 13.765625 71.78125 18.9375 73 
Q 24.125 74.21875 28.421875 74.21875 
Q 39.75 74.21875 46.484375 68.546875 
Q 53.21875 62.890625 53.21875 53.421875 
Q 53.21875 48.921875 51.53125 44.890625 
Q 49.859375 40.875 45.40625 35.40625 
Q 44.1875 33.984375 37.640625 27.21875 
Q 31.109375 20.453125 19.1875 8.296875 
z
" id="DejaVuSans-50"/>
     </defs>
     <use xlink:href="#DejaVuSans-Oblique-109"/>
     <use transform="translate(97.412109 -16.40625)scale(0.7)" xlink:href="#DejaVuSans-50"/>
    </g>
   </g>
   <g id="text_6">
    <!-- $m_1$ -->
    <g transform="translate(12.59252 22.601895)scale(0.1 -0.1)">
     <defs>
      <path d="M 12.40625 8.296875 
L 28.515625 8.296875 
L 28.515625 63.921875 
L 10.984375 60.40625 
L 10.984375 69.390625 
L 28.421875 72.90625 
L 38.28125 72.90625 
L 38.28125 8.296875 
L 54.390625 8.296875 
L 54.390625 0 
L 12.40625 0 
z
" id="DejaVuSans-49"/>
     </defs>
     <use xlink:href="#DejaVuSans-Oblique-109"/>
     <use transform="translate(97.412109 -16.40625)scale(0.7)" xlink:href="#DejaVuSans-49"/>
    </g>
   </g>
   <g id="text_7">
    <!-- $\mu$ -->
    <g style="fill:#ffffff;" transform="translate(356.8 77.035433)scale(0.1 -0.1)">
     <defs>
      <path d="M -1.3125 -20.796875 
L 13.375 54.6875 
L 22.40625 54.6875 
L 15.765625 20.65625 
Q 15.578125 19.625 15.421875 18.359375 
Q 15.28125 17.09375 15.28125 15.828125 
Q 15.28125 11.28125 18.140625 8.828125 
Q 21 6.390625 26.3125 6.390625 
Q 33.546875 6.390625 37.984375 10.484375 
Q 42.4375 14.59375 44 22.796875 
L 50.203125 54.6875 
L 59.1875 54.6875 
L 51.03125 12.640625 
Q 50.828125 11.71875 50.75 11.03125 
Q 50.6875 10.359375 50.6875 9.8125 
Q 50.6875 8.296875 51.296875 7.59375 
Q 51.90625 6.890625 53.21875 6.890625 
Q 53.71875 6.890625 54.5625 7.125 
Q 55.421875 7.375 56.984375 8.015625 
L 55.609375 0.78125 
Q 53.46875 -0.296875 51.515625 -0.859375 
Q 49.5625 -1.421875 47.703125 -1.421875 
Q 44.484375 -1.421875 42.65625 0.625 
Q 40.828125 2.6875 40.828125 6.296875 
Q 38.09375 2.390625 34.296875 0.484375 
Q 30.515625 -1.421875 25.390625 -1.421875 
Q 20.84375 -1.421875 17.453125 0.671875 
Q 14.0625 2.78125 12.984375 6.203125 
L 7.71875 -20.796875 
z
" id="DejaVuSans-Oblique-956"/>
     </defs>
     <use transform="translate(0 0.3125)" xlink:href="#DejaVuSans-Oblique-956"/>
    </g>
   </g>
   <g id="text_8">
    <!-- $\sigma$ -->
    <g style="fill:#ffffff;" transform="translate(356.8 134.728346)scale(0.1 -0.1)">
     <defs>
      <path d="M 34.671875 47.5625 
Q 27.25 47.5625 22.21875 42.1875 
Q 16.890625 36.578125 15.140625 27.296875 
Q 13.1875 17.484375 16.3125 11.8125 
Q 19.390625 6.203125 26.65625 6.203125 
Q 33.84375 6.203125 39.109375 11.859375 
Q 44.4375 17.53125 46.34375 27.296875 
Q 48.046875 36.234375 45.015625 42.1875 
Q 42.1875 47.5625 34.671875 47.5625 
z
M 36.078125 54.734375 
L 65.921875 54.6875 
L 64.15625 45.703125 
L 54.109375 45.703125 
Q 57.90625 38.09375 55.859375 27.296875 
Q 53.21875 13.875 45.0625 6.25 
Q 36.859375 -1.421875 25.140625 -1.421875 
Q 13.375 -1.421875 8.203125 6.25 
Q 3.03125 13.875 5.671875 27.296875 
Q 8.25 40.765625 16.40625 48.390625 
Q 23.1875 54.734375 36.078125 54.734375 
z
" id="DejaVuSans-Oblique-963"/>
     </defs>
     <use transform="translate(0 0.265625)" xlink:href="#DejaVuSans-Oblique-963"/>
    </g>
   </g>
   <g id="text_9">
    <!-- $\Sigma$ -->
    <g transform="translate(413.492913 107.641265)scale(0.1 -0.1)">
     <defs>
      <path d="M 21.140625 8.296875 
L 56.78125 8.296875 
L 56.78125 0 
L 9.8125 0 
L 9.8125 8.296875 
L 33.203125 38.765625 
L 9.8125 64.59375 
L 9.8125 72.90625 
L 55.90625 72.90625 
L 55.90625 64.59375 
L 21.140625 64.59375 
L 44.53125 38.96875 
z
" id="DejaVuSans-931"/>
     </defs>
     <use transform="translate(0 0.09375)" xlink:href="#DejaVuSans-931"/>
    </g>
   </g>
   <g id="text_10">
    <!-- $I_{h}^{i}$ -->
    <g transform="translate(469.535827 108.08189)scale(0.1 -0.1)">
     <defs>
      <path d="M 16.890625 72.90625 
L 26.8125 72.90625 
L 12.59375 0 
L 2.6875 0 
z
" id="DejaVuSans-Oblique-73"/>
     </defs>
     <use transform="translate(0 0.465625)" xlink:href="#DejaVuSans-Oblique-73"/>
     <use transform="translate(36.508958 38.810938)scale(0.7)" xlink:href="#DejaVuSans-Oblique-105"/>
     <use transform="translate(29.492188 -26.878125)scale(0.7)" xlink:href="#DejaVuSans-Oblique-104"/>
    </g>
   </g>
   <g id="text_11">
    <!-- $F_{h}$ -->
    <g transform="translate(524.82874 107.641265)scale(0.1 -0.1)">
     <defs>
      <path d="M 16.890625 72.90625 
L 58.6875 72.90625 
L 57.078125 64.59375 
L 25.09375 64.59375 
L 20.90625 43.109375 
L 49.8125 43.109375 
L 48.1875 34.8125 
L 19.28125 34.8125 
L 12.5 0 
L 2.6875 0 
z
" id="DejaVuSans-Oblique-70"/>
     </defs>
     <use transform="translate(0 0.09375)" xlink:href="#DejaVuSans-Oblique-70"/>
     <use transform="translate(57.519531 -16.3125)scale(0.7)" xlink:href="#DejaVuSans-Oblique-104"/>
    </g>
   </g>
  </g>
 </g>
 <defs>
  <clipPath id="pe8e13a02df">
   <rect height="209.76378" width="555.590551" x="0" y="0"/>
  </clipPath>
 </defs>
</svg>
